<?xml version="1.0" encoding="UTF-8" standalone="no"?><!DOCTYPE svg PUBLIC "-//W3C//DTD SVG 1.1//EN" "http://www.w3.org/Graphics/SVG/1.1/DTD/svg11.dtd"><svg viewBox="0 0 720 550" version="1.1" xmlns="http://www.w3.org/2000/svg" xmlns:xlink="http://www.w3.org/1999/xlink" xml:space="preserve" xmlns:serif="http://www.serif.com/" style="fill-rule:evenodd;clip-rule:evenodd;stroke-linejoin:round;stroke-miterlimit:1.41421;"><g><path d="M642.453,13.401c0,-7.401 -6,-13.401 -13.401,-13.401c-76.842,0 -460.756,0 -537.598,0c-7.401,0 -13.401,6 -13.401,13.401c0,56.157 0,272.227 0,328.384c0,7.401 6,13.401 13.401,13.401c76.842,0 460.756,0 537.598,0c7.401,0 13.401,-6 13.401,-13.401c0,-56.157 0,-272.227 0,-328.384Z" style="fill:#2b2a54;"/><path d="M636.688,10.611c0,-1.432 -0.569,-2.805 -1.581,-3.817c-1.012,-1.012 -2.385,-1.58 -3.816,-1.58c-53.541,0 -488.535,0 -542.076,0c-1.431,0 -2.804,0.568 -3.816,1.58c-1.012,1.012 -1.581,2.385 -1.581,3.817c0,39.477 0,283.288 0,322.766c0,1.431 0.569,2.804 1.581,3.816c1.012,1.012 2.385,1.581 3.816,1.581c53.541,0 488.535,0 542.076,0c1.431,0 2.804,-0.569 3.816,-1.581c1.012,-1.012 1.581,-2.385 1.581,-3.816c0,-39.478 0,-283.289 0,-322.766Z" style="fill:#fff;stroke:#fff;stroke-width:1px;"/><path d="M32.249,517.225l12.836,32.44" style="fill:none;"/><path d="M4.13,522.031l75.108,-151.478c2.123,-4.282 6.746,-7.027 11.835,-7.027c63.852,0 474.002,0 537.854,0c5.089,0 9.712,2.745 11.835,7.027l75.108,151.478l4.13,0l0,11.104l-0.001,0c-0.028,2.227 -0.721,4.438 -2.059,6.37c-2.395,3.458 -6.526,5.549 -10.963,5.549l-693.954,0c-4.437,0 -8.568,-2.091 -10.963,-5.549c-1.338,-1.932 -2.031,-4.143 -2.059,-6.37l-0.001,0l0,-11.104l4.13,0Z" style="fill:url(#_Linear1);"/><path d="M79.143,359.533c2.124,-4.282 6.747,-7.026 11.837,-7.026c63.862,0 474.072,0 537.934,0c5.09,0 9.713,2.744 11.837,7.026c13.003,26.221 58.921,118.818 78.061,157.414c1.851,3.733 1.522,8.082 -0.873,11.539c-2.395,3.458 -6.527,5.549 -10.964,5.549c-105.248,0 -587.808,0 -693.761,0c-4.501,0 -8.693,-2.122 -11.123,-5.63c-2.43,-3.508 -2.764,-7.919 -0.886,-11.707c19.213,-38.744 64.963,-131 77.938,-157.165Z" style="fill:url(#_Linear2);"/><path d="M635.38,434.277c0.686,1.546 0.544,3.335 -0.378,4.754c-0.923,1.419 -2.5,2.275 -4.192,2.275c-37.576,0 -200.066,0 -200.066,0c0,0 -290.283,0 -341.554,0c-1.692,0 -3.269,-0.856 -4.192,-2.275c-0.922,-1.419 -1.064,-3.208 -0.378,-4.754c1.22,-2.747 2.332,-5.252 2.332,-5.252l546.096,0c0,0 1.112,2.505 2.332,5.252Zm-3.673,-8.601l-183.394,0l-360.02,0l5.318,-12.281l532.778,0l5.318,12.281Zm-224.121,-27.91l211.989,0l5.377,12.28l-167.488,0l-362.416,0l5.377,-12.28l307.161,0Zm-47.485,-15.63l252.661,0l5.404,12.28l-234.322,0l-282.01,0l5.404,-12.28l252.863,0Zm-247.432,-12.598c0.788,-1.839 2.596,-3.032 4.597,-3.032c40.685,0 444.783,0 485.468,0c2.001,0 3.809,1.193 4.597,3.032c1.556,3.637 3.959,9.249 3.959,9.249l-149.745,0l-203.09,0l-149.745,0c0,0 2.403,-5.612 3.959,-9.249Z" style="fill:#8cbaf3;"/><path d="M444.277,462.939c-0.332,-2.483 -2.45,-4.337 -4.955,-4.337c-23.612,0 -135.636,0 -159.4,0c-2.532,0 -4.664,1.892 -4.965,4.406c-1.248,10.428 -4.383,36.61 -5.763,48.136c-0.17,1.42 0.276,2.844 1.224,3.913c0.949,1.07 2.311,1.681 3.74,1.681c27.149,0 144.281,0 171.605,0c1.441,0 2.813,-0.622 3.762,-1.707c0.95,-1.085 1.385,-2.527 1.193,-3.956c-1.55,-11.586 -5.054,-37.775 -6.441,-48.136Z" style="fill:#8cbaf3;"/><g><g><path d="M149.158,26.437c0.276,0.008 0.545,0.092 0.769,0.245c0,0 0.431,0.401 0.563,0.666c0.041,0.082 0.089,0.199 0.089,0.199c0.029,0.078 0.015,0.037 0.039,0.108c0,0 0.086,0.273 0.124,0.516c0.042,0.266 0.031,0.268 0.031,0.268c0.007,0.114 0.013,0.272 0.013,0.272c0,0.109 -0.005,0.258 -0.005,0.258c-0.007,0.134 -0.024,0.318 -0.024,0.318c-0.014,0.114 -0.037,0.27 -0.037,0.27c-0.005,0.028 -0.009,0.056 -0.015,0.084c-0.042,0.233 -0.05,0.251 -0.069,0.332c-0.02,0.081 -0.024,0.105 -0.067,0.253c-0.05,0.173 -0.107,0.344 -0.173,0.511c0,0 -0.075,0.195 -0.157,0.372c0,0 -0.162,0.339 -0.287,0.574c-0.946,1.778 -2.284,3.542 -4.444,3.91c-0.294,0.051 -0.595,0.068 -0.894,0.05c0,0 0.002,0.159 0.018,0.285c0.064,0.498 -0.02,0.02 0.115,0.724c0.059,0.305 0.127,0.608 0.214,0.905c0,0 0.117,0.39 0.22,0.644c0.027,0.065 0.054,0.13 0.083,0.194c0.203,0.455 0.451,0.919 0.941,1.174c0.682,0.355 1.56,-0.12 2.183,-0.579c0,0 0.294,-0.172 0.544,-0.052c0.337,0.16 0.388,0.688 0.06,0.929c-0.896,0.656 -1.971,1.197 -3.103,0.727c-0.163,-0.067 -0.317,-0.154 -0.461,-0.257c0,0 -0.27,-0.212 -0.42,-0.376c-0.506,-0.556 -0.815,-1.27 -1.034,-1.99c-0.004,-0.014 -0.088,-0.298 -0.149,-0.549l-0.005,-0.018c-0.292,0.978 -0.561,1.967 -0.816,2.957c0,0 -0.141,0.352 -0.44,0.394c-0.341,0.049 -0.665,-0.296 -0.59,-0.659c0.218,-0.85 0.448,-1.698 0.691,-2.536c0,0 0.091,-0.312 0.166,-0.563c0.167,-0.557 0.341,-1.113 0.523,-1.665l0.133,-0.402c0,0 0.079,-0.233 0.14,-0.407c0.08,-0.23 0.161,-0.459 0.244,-0.688c0,0 0.09,-0.245 0.163,-0.439c0.08,-0.212 0.188,-0.491 0.188,-0.491c0.051,-0.129 0.107,-0.272 0.107,-0.272c0.503,-1.247 1.063,-2.498 1.759,-3.617c0,0 0.21,-0.339 0.392,-0.6c0,0 0.59,-0.823 1.085,-1.261c0.01,-0.009 0.348,-0.293 0.594,-0.434c0.289,-0.166 0.613,-0.278 0.953,-0.284c0.023,0 0.023,0 0.046,0Zm-0.036,1.064c-0.48,0.009 -0.899,0.458 -1.247,0.852c-1.403,1.592 -2.105,3.542 -2.557,4.675c-0.081,0.202 -0.183,0.467 -0.183,0.467c-0.137,0.356 -0.269,0.714 -0.396,1.073l-0.006,0.016c1.769,0.075 3.274,-1.719 3.902,-2.739c0.055,-0.089 0.108,-0.179 0.16,-0.269c0.04,-0.069 0.042,-0.073 0.057,-0.1c0.149,-0.265 0.292,-0.534 0.42,-0.812c0.093,-0.202 0.041,-0.051 0.184,-0.454c0.172,-0.481 0.232,-0.808 0.259,-1.228c0.01,-0.158 0.006,-0.158 0.006,-0.158l0,-0.097c-0.005,-0.186 0.045,-0.268 -0.116,-0.745c-0.097,-0.287 -0.231,-0.467 -0.456,-0.48c-0.009,-0.001 -0.018,-0.001 -0.027,-0.001Z" style="fill:#2b2a54;fill-rule:nonzero;"/><path d="M160.914,34.449c0.393,0.06 0.414,0.221 0.458,0.41c0.095,0.412 -0.403,0.748 -0.822,0.968c-0.743,0.391 -1.666,0.413 -2.398,-0.023c-0.151,0.256 -0.303,0.511 -0.457,0.766l-0.08,0.134c-0.591,0.976 -1.182,1.957 -1.841,2.9c0,0 -0.196,0.283 -0.351,0.481c0,0 -0.238,0.332 -0.465,0.506c-0.165,0.128 -0.368,0.186 -0.557,0.144c-0.135,-0.031 -0.116,-0.035 -0.175,-0.07c0,0 -0.183,-0.163 -0.136,-0.109c0.011,0.012 -0.034,-0.017 -0.092,-0.124c0,0 -0.058,-0.123 -0.058,-0.123c-0.036,-0.108 -0.03,-0.078 -0.049,-0.2c-0.025,-0.161 -0.024,-0.325 -0.017,-0.489l0.009,-0.171c0.009,-0.128 0.02,-0.255 0.033,-0.382c0.092,-0.897 0.242,-1.791 0.338,-2.693c0,0 0.027,-0.266 0.046,-0.504c0.011,-0.151 0.012,-0.177 0.016,-0.26c0.006,-0.132 0.009,-0.317 0.009,-0.317c0,-0.181 -0.005,-0.363 -0.042,-0.538c0,0 -0.251,-0.15 -0.299,-0.38c-0.061,-0.297 0.182,-0.618 0.485,-0.639c0.071,-0.005 0.024,-0.013 0.157,0.01c0.092,0.016 0.211,0.07 0.211,0.07c0.209,0.111 0.203,0.142 0.252,0.202c0,0 0.092,0.132 0.103,0.151c0.051,0.093 0.047,0.095 0.047,0.095c0.084,0.205 0.071,0.201 0.092,0.302c0.003,0.016 0.038,0.258 0.038,0.258c0.031,0.352 0.02,0.71 -0.004,1.06c-0.002,0.034 -0.002,0.034 -0.004,0.068c-0.016,0.202 -0.042,0.466 -0.042,0.466c-0.011,0.108 -0.021,0.205 -0.021,0.205c-0.083,0.72 -0.187,1.44 -0.278,2.156l-0.006,0.053c0.735,-1.086 1.41,-2.204 2.075,-3.322l0.072,-0.121c0.101,-0.171 0.235,-0.397 0.235,-0.397c-0.024,-0.055 -0.016,-0.035 -0.035,-0.088l-0.033,-0.108c-0.046,-0.199 -0.028,-0.203 -0.028,-0.203c0,0 -0.033,-0.077 0.042,-0.298c0.023,-0.066 0.017,-0.072 0.076,-0.161c0,0 0.051,-0.072 0.051,-0.072c0.053,-0.063 0,-0.017 0.084,-0.089c0,0 0.093,-0.073 0.093,-0.073c0.155,-0.104 0.108,-0.062 0.139,-0.075c0.029,-0.012 0.058,-0.023 0.088,-0.032c0.185,-0.057 0.35,-0.052 0.568,-0.047c0,0 0.22,0.011 0.365,0.156c0.146,0.147 0.194,0.383 0.116,0.576c-0.067,0.165 -0.121,0.218 -0.181,0.323c0,0 -0.081,0.067 -0.008,0.109c0.554,0.312 1.276,0.083 1.765,-0.328c0,0 0.156,-0.12 0.308,-0.134c0.069,-0.006 0.086,0 0.108,0.001Zm-6.451,0.348c0,0 -0.005,0 0,0Z" style="fill:#2b2a54;fill-rule:nonzero;"/><path d="M151.911,33.727c0.401,0.004 0.781,0.122 1.076,0.422c0,0 0.229,0.306 0.233,0.313c0.049,0.092 0.096,0.227 0.096,0.228c0.067,0.204 0.073,0.499 0.073,0.499c-0.005,0.129 -0.002,0.068 -0.009,0.145l-0.067,0.35c-0.26,0.834 -0.886,1.566 -1.518,2.096c-0.692,0.581 -1.611,0.962 -2.524,0.785c0.021,0.4 0.11,0.857 0.519,1.056c0.557,0.272 1.237,-0.092 1.62,-0.336c0.707,-0.451 1.362,-1.004 1.942,-1.606c0,0 0.665,-0.769 0.816,-1.109c0,0 0.252,-0.383 0.583,-0.327c0.325,0.055 0.532,0.438 0.384,0.77c-0.607,1.368 -1.957,2.407 -3.153,3.17c-0.832,0.53 -1.899,0.858 -2.795,0.321c-0.241,-0.144 -0.447,-0.352 -0.596,-0.584c-0.036,-0.056 0.003,0.05 -0.133,-0.24l-0.096,-0.232c-0.101,-0.304 -0.116,-0.429 -0.138,-0.624c-0.013,-0.12 -0.02,-0.288 -0.02,-0.288c-0.005,-0.389 0.042,-0.778 0.141,-1.149c0,0 0.075,-0.278 0.161,-0.501c0,0 0.205,-0.482 0.367,-0.777c0.497,-0.906 1.156,-1.776 2.155,-2.195c0.279,-0.117 0.579,-0.188 0.883,-0.187Zm-0.017,1.064c-0.316,0.004 -0.618,0.161 -0.875,0.346c0,0 -0.697,0.662 -0.916,0.99c-0.169,0.255 -0.318,0.525 -0.451,0.792c-0.06,0.118 -0.069,0.144 -0.099,0.215c-0.063,0.148 -0.136,0.374 -0.136,0.374c0.902,0.216 1.766,-0.538 2.208,-1.06c0.326,-0.385 0.7,-0.793 0.699,-1.296c0,-0.199 -0.201,-0.362 -0.43,-0.361Z" style="fill:#2b2a54;fill-rule:nonzero;"/><path d="M172.651,34.864c0.243,0.024 0.263,0.081 0.332,0.148c0.329,0.318 -0.078,0.883 -0.072,1.205c0.005,0.229 0.072,0.46 0.227,0.637c0.043,0.049 0.37,0.309 0.761,0.337c1.008,0.07 1.988,-0.514 2.844,-1.079c0,0 0.26,-0.133 0.475,-0.056c0.352,0.128 0.467,0.68 0.136,0.927c-0.719,0.537 -1.879,1.096 -2.818,1.237c-0.679,0.101 -1.403,0.029 -1.984,-0.454c0,0 -0.223,-0.198 -0.357,-0.397c-0.017,-0.025 -0.115,-0.193 -0.115,-0.193c-0.121,-0.247 -0.203,-0.513 -0.226,-0.804l-0.007,-0.141c0,-0.061 0.001,-0.067 0.001,-0.067c0.002,-0.096 0.015,-0.213 0.015,-0.214c0.031,-0.255 0.019,-0.155 0.06,-0.301c0.02,-0.072 0.054,-0.169 0.054,-0.169c0.044,-0.115 0.04,-0.1 0.066,-0.154c0,0 0.18,-0.424 0.515,-0.46c0.06,-0.006 0.074,-0.002 0.093,-0.002Z" style="fill:#2b2a54;fill-rule:nonzero;"/><path d="M162.151,37.341c0.129,0.021 0.166,0.043 0.23,0.087c0.224,0.151 0.278,0.498 0.151,0.73c-0.573,1.042 -1.395,2.042 -2.496,2.477c-0.312,0.123 -0.672,0.177 -0.987,0.037c0,0 -0.185,-0.109 -0.185,-0.109c-0.071,-0.056 -0.171,-0.171 -0.171,-0.171c-0.104,-0.142 -0.105,-0.17 -0.105,-0.17c-0.051,-0.114 -0.096,-0.289 -0.096,-0.289c-0.02,-0.105 -0.03,-0.247 -0.03,-0.247c-0.002,-0.107 0.002,-0.235 0.002,-0.235c0.016,-0.191 0.018,-0.191 0.027,-0.251c0.008,-0.053 0.017,-0.106 0.027,-0.159c0.034,-0.182 0.081,-0.361 0.135,-0.538c0,0 0.262,-0.758 0.463,-1.215c0.502,-1.14 1.119,-2.219 1.763,-3.288c0,0 0.545,-0.477 0.876,-0.051c0.116,0.149 0.143,0.363 0.068,0.538c-0.059,0.135 -0.098,0.171 -0.146,0.251c-0.732,1.223 -1.451,2.464 -1.921,3.814c-0.12,0.344 -0.234,0.673 -0.232,1.051c0.001,0.128 0.021,0.076 0.035,0.072c0.439,-0.123 0.802,-0.477 1.086,-0.763c0.381,-0.384 0.713,-0.819 0.97,-1.296c0,0 0.233,-0.304 0.536,-0.275Zm-2.604,2.417c-0.002,-0.003 -0.001,-0.001 0,0Zm-0.002,-0.003c0,0 0,-0.001 0,0Zm0,-0.001c0,0 0,0 0,0Zm-0.001,0c0,0 0,-0.001 0,0Zm0,-0.001c0,0 0,0 0,0Z" style="fill:#2b2a54;fill-rule:nonzero;"/><path d="M163.318,30.139c0.388,0.014 0.687,0.456 0.505,0.836c-0.18,0.35 -0.331,0.724 -0.556,1.041c-0.233,0.33 -0.851,0.297 -1.013,-0.128c-0.056,-0.148 -0.047,-0.317 0.023,-0.462c0.29,-0.567 0.489,-1.292 1.041,-1.287Z" style="fill:#2b2a54;fill-rule:nonzero;"/><path d="M170.574,33.725c0.132,0.01 0.17,0.029 0.238,0.067c0.226,0.127 0.335,0.432 0.229,0.676c-0.013,0.029 -0.017,0.036 -0.033,0.063l-0.057,0.095c-0.686,1.151 -1.351,2.303 -1.835,3.573c-0.019,0.05 -0.038,0.1 -0.056,0.151c-0.158,0.433 -0.363,0.901 -0.268,1.334c0,0 0.424,-0.144 0.703,-0.35c0.611,-0.451 1.114,-1.05 1.471,-1.712c0,0 0.208,-0.295 0.48,-0.293c0.373,0.002 0.645,0.455 0.454,0.804c-0.138,0.252 -0.353,0.57 -0.383,0.613c-0.072,0.102 -0.171,0.232 -0.171,0.232c-0.541,0.69 -1.165,1.332 -1.99,1.652c-0.364,0.142 -0.8,0.197 -1.154,-0.031l-0.06,-0.041c-0.048,-0.037 -0.004,0.005 -0.086,-0.073c-0.18,-0.173 -0.24,-0.36 -0.24,-0.36c-0.081,-0.224 -0.111,-0.464 -0.097,-0.702l0.009,-0.116c0.025,-0.224 0.065,-0.444 0.123,-0.66c0,0 0.127,-0.458 0.27,-0.827c0,0 0.102,-0.264 0.194,-0.478c0.501,-1.161 1.123,-2.268 1.782,-3.36c0,0 0.225,-0.259 0.477,-0.257Zm-1.769,6.005c0,0 0,0 0,0Z" style="fill:#2b2a54;fill-rule:nonzero;"/><path d="M172.187,30.139c0.388,0.014 0.687,0.456 0.505,0.836c-0.18,0.35 -0.332,0.724 -0.556,1.041c-0.233,0.33 -0.851,0.297 -1.013,-0.128c-0.056,-0.148 -0.047,-0.317 0.022,-0.462c0.291,-0.567 0.49,-1.292 1.042,-1.287Z" style="fill:#2b2a54;fill-rule:nonzero;"/><path d="M162.157,37.373c0.238,0.04 0.249,0.091 0.312,0.157c0.217,0.223 0.126,0.553 -0.084,0.875c-0.168,0.259 -0.328,0.537 -0.361,0.833c-0.015,0.133 0.045,0.279 0.054,0.29c0.174,0.218 0.51,0.19 0.781,0.122c0.404,-0.101 0.771,-0.385 0.883,-0.799c0.122,-0.447 -0.068,-0.926 -0.258,-1.305c-0.069,-0.137 -0.065,-0.139 -0.065,-0.139c-0.082,-0.188 -0.145,-0.383 -0.183,-0.582l-0.043,-0.431c0,-0.149 0.024,-0.36 0.024,-0.36c0.024,-0.146 0.079,-0.352 0.079,-0.352c0.044,-0.139 0.129,-0.331 0.129,-0.331c0.053,-0.112 0.018,-0.055 0.116,-0.217c0,0 0.139,-0.236 0.332,-0.448c0,0 0.225,-0.239 0.436,-0.396c0,0 0.556,-0.381 1.022,-0.497c0.429,-0.107 0.909,-0.101 1.291,0.171c0.063,0.044 0.092,0.063 0.173,0.153c0,0 0.172,0.248 0.172,0.248c0.07,0.148 0.07,0.168 0.07,0.168l0.039,0.144c0.018,0.091 0.029,0.222 0.029,0.222c0.006,0.127 -0.001,0.212 -0.001,0.212c-0.012,0.177 -0.069,0.425 -0.069,0.425c-0.038,0.141 -0.065,0.248 -0.151,0.458l-0.111,0.255c-0.189,0.392 -0.627,0.717 -0.97,0.375c-0.427,-0.426 0.401,-1.207 0.225,-1.751c-0.108,-0.334 -1.09,0.154 -1.467,0.649c-0.158,0.207 -0.267,0.451 -0.296,0.707c-0.022,0.191 -0.006,0.358 0.062,0.574c0.031,0.101 0.074,0.2 0.123,0.294c0.038,0.074 0.018,0.033 0.067,0.136c0.17,0.357 0.132,0.309 0.151,0.362c0.076,0.213 0.113,0.393 0.113,0.393c0.025,0.122 0.049,0.297 0.049,0.297c0.009,0.103 0.014,0.246 0.014,0.246c0,0.125 -0.016,0.299 -0.016,0.299c-0.025,0.178 -0.012,0.122 -0.049,0.264l-0.035,0.125c-0.066,0.193 -0.099,0.265 -0.166,0.383c0,0 -0.142,0.22 -0.142,0.22c-0.684,0.916 -2.157,1.288 -3.013,0.553c-0.057,-0.049 -0.127,-0.124 -0.127,-0.124c-0.071,-0.083 -0.09,-0.113 -0.09,-0.113c-0.07,-0.099 -0.139,-0.246 -0.149,-0.27c-0.092,-0.228 -0.078,-0.257 -0.088,-0.338c-0.051,-0.38 -0.012,-0.324 -0.006,-0.38c0.014,-0.136 0.051,-0.293 0.051,-0.293c0.054,-0.202 0.026,-0.106 0.068,-0.226c0.123,-0.358 0.321,-0.686 0.544,-1c0,0 0.25,-0.285 0.531,-0.258Zm3.862,-2.523c0,0 0,0 0,0Zm-0.001,-0.002c0,0 0,0 0,0Zm-0.012,-0.016c0,0 0,0 0,0Zm0,0c0,0 0,0 0,0Zm-0.001,-0.001c0,0 0,-0.001 0,0Zm-0.002,-0.002c0,0 -0.001,-0.001 0,0Zm-0.001,-0.001c0,0 -0.001,0 0,0Zm-0.001,0c0,0 0,0 0,0Z" style="fill:#2b2a54;fill-rule:nonzero;"/><path d="M174.19,33.739c0.316,0.005 0.625,0.133 0.853,0.352c0,0 0.175,0.205 0.175,0.205c0.048,0.07 0.107,0.176 0.107,0.176c0.12,0.234 0.191,0.488 0.225,0.747l0.023,0.232c0.021,0.336 0.002,0.675 -0.07,1.097l-0.08,0.383c-0.034,0.133 -0.084,0.311 -0.084,0.311c-0.065,0.218 -0.1,0.315 -0.1,0.315c-0.038,0.104 -0.087,0.235 -0.087,0.235c-0.073,0.187 -0.152,0.371 -0.239,0.55c0,0 -0.213,0.428 -0.41,0.731c-0.397,0.612 -0.891,1.199 -1.579,1.488c-0.499,0.209 -1.119,0.159 -1.519,-0.252c-0.08,-0.082 -0.171,-0.215 -0.171,-0.215c-0.192,-0.303 -0.29,-0.664 -0.32,-1.029l-0.012,-0.172c-0.007,-0.383 0.024,-0.748 0.097,-1.124c0,0 0.083,-0.406 0.203,-0.774c0,0 0.093,-0.274 0.173,-0.471c0,0 0.161,-0.388 0.329,-0.702c0.421,-0.782 0.978,-1.536 1.767,-1.912c0.224,-0.107 0.468,-0.173 0.719,-0.171Zm-0.02,1.064c-0.555,0.009 -0.957,0.649 -1.172,0.948c0,0 -0.2,0.29 -0.322,0.512c-0.251,0.456 -0.448,0.944 -0.576,1.456c-0.036,0.145 -0.071,0.32 -0.098,0.502l-0.018,0.146c-0.02,0.199 -0.012,0.132 -0.014,0.169c0,0 0.019,0.769 0.159,0.982c0.18,0.271 0.634,-0.066 0.826,-0.235c0.2,-0.177 0.372,-0.385 0.527,-0.601l0.092,-0.133c0.176,-0.267 0.33,-0.547 0.459,-0.838c0,0 0.11,-0.25 0.189,-0.472c0,0 0.188,-0.566 0.257,-1.027l0.018,-0.147c0.019,-0.196 0.016,-0.179 0.019,-0.306l0.001,-0.104c-0.001,-0.047 -0.003,-0.095 -0.006,-0.142c-0.001,-0.012 -0.002,-0.025 -0.003,-0.037c-0.025,-0.301 -0.111,-0.674 -0.338,-0.673Z" style="fill:#2b2a54;fill-rule:nonzero;"/><path d="M186.743,34.888c-0.186,-0.259 -0.645,0.027 -0.882,0.198c-0.421,0.302 -0.776,0.69 -1.113,1.083c-0.075,0.088 -0.079,0.095 -0.113,0.136c-0.044,0.053 -0.087,0.107 -0.13,0.16c-0.183,0.229 -0.359,0.464 -0.53,0.702c0,0 -0.183,0.256 -0.313,0.447c-0.257,0.378 -0.505,0.761 -0.736,1.153c0,0 -0.373,0.411 -0.731,0.206c-0.246,-0.141 -0.339,-0.483 -0.189,-0.74c0.087,-0.149 0.062,-0.106 0.13,-0.217c0.53,-0.865 1.105,-1.708 1.76,-2.486c0,0 0.207,-0.244 0.337,-0.386c0.565,-0.617 1.196,-1.233 1.988,-1.38c0.427,-0.079 0.896,0.016 1.212,0.306c0,0 0.103,0.104 0.124,0.13c0.053,0.066 0.114,0.166 0.114,0.166c0.075,0.139 0.115,0.229 0.15,0.38c0,0 0.067,0.84 -0.095,1.441c0,0 -0.16,0.534 -0.315,0.905c0,0 -0.199,0.458 -0.311,0.733l-0.094,0.238c-0.074,0.195 -0.144,0.391 -0.206,0.59l-0.082,0.285c-0.047,0.178 -0.086,0.359 -0.103,0.544c-0.008,0.082 -0.108,0.241 0.101,0.13c0.653,-0.347 1.158,-0.997 1.54,-1.498c0.193,-0.259 0.374,-0.525 0.542,-0.8l0.164,-0.279c0.214,-0.346 0.384,-0.302 0.585,-0.254c0.332,0.078 0.506,0.492 0.317,0.82c-0.156,0.272 -0.16,0.27 -0.205,0.343c-0.42,0.672 -0.468,0.71 -0.725,1.034c0,0 -0.16,0.198 -0.274,0.33c-0.415,0.479 -0.879,0.939 -1.422,1.232c0,0 -0.708,0.395 -1.211,0.097l-0.081,-0.053c-0.133,-0.103 -0.118,-0.104 -0.162,-0.157l-0.054,-0.075c-0.028,-0.043 -0.001,0.015 -0.05,-0.087c0,0 -0.077,-0.19 -0.092,-0.248c-0.023,-0.093 -0.019,-0.055 -0.032,-0.182l-0.012,-0.153c0,-0.149 0.006,-0.297 0.028,-0.444c0,0 0.018,-0.123 0.018,-0.123c0.023,-0.125 0.051,-0.253 0.051,-0.253c0.071,-0.307 0.165,-0.607 0.263,-0.887c0,0 0.076,-0.208 0.108,-0.293c0.083,-0.215 0.17,-0.428 0.262,-0.638c0,0 0.067,-0.154 0.125,-0.291c0.018,-0.041 -0.013,0.039 0.067,-0.164c0.083,-0.207 0.158,-0.418 0.219,-0.632c0,0 0.257,-0.701 0.065,-1.058c0,0 -0.004,-0.006 -0.007,-0.011Z" style="fill:#2b2a54;fill-rule:nonzero;"/><path d="M180.93,33.756c0.152,0.004 0.366,0.08 0.366,0.08c0.218,0.098 0.155,0.086 0.198,0.121c0,0 0.13,0.126 0.13,0.126c0.099,0.124 0.081,0.112 0.081,0.112c0.162,0.272 0.109,0.225 0.122,0.272l0.039,0.158c0.033,0.186 0.025,0.188 0.025,0.192c0,0.006 0.005,0.199 0.005,0.199c-0.005,0.205 -0.029,0.394 -0.057,0.55c-0.033,0.194 -0.004,0.069 -0.081,0.378c-0.026,0.106 -0.066,0.249 -0.066,0.249c-0.017,0.059 -0.035,0.119 -0.053,0.178c-0.017,0.055 0.011,-0.018 -0.103,0.317l-0.059,0.171c-0.183,0.498 -0.387,0.988 -0.553,1.494c0,0 -0.104,0.324 -0.163,0.547c0,0 -0.109,0.438 -0.127,0.685c0.673,-0.442 1.172,-1.118 1.611,-1.703c0,0 0.372,-0.502 0.649,-0.925c0.109,-0.167 0.259,-0.4 0.259,-0.4c0.188,-0.238 0.318,-0.222 0.447,-0.217c0.38,0.013 0.636,0.487 0.405,0.858c-0.104,0.164 -0.249,0.385 -0.249,0.385c-0.623,0.937 -1.28,1.868 -2.188,2.629l-0.138,0.112c-0.465,0.357 -0.823,0.519 -1.236,0.402l-0.095,-0.033c-0.278,-0.126 -0.264,-0.124 -0.387,-0.351l-0.046,-0.09c-0.089,-0.217 -0.063,-0.19 -0.07,-0.226c0,0 -0.016,-0.092 -0.018,-0.112c-0.006,-0.047 -0.004,0.033 -0.01,-0.113c0,0 0.001,-0.244 0.001,-0.244c0.005,-0.092 0.019,-0.209 0.019,-0.209c0.013,-0.099 0.018,-0.129 0.018,-0.129c0,0 0.052,-0.283 0.052,-0.283c0.042,-0.186 0.089,-0.371 0.143,-0.555l0.053,-0.177c0.194,-0.611 0.449,-1.197 0.653,-1.797c0,0 0.194,-0.57 0.27,-0.951c0.029,-0.145 0.027,-0.151 0.036,-0.215c0,0 0.033,-0.23 0.012,-0.39c0,0 -0.466,0.312 -0.741,0.583c-0.418,0.413 -0.792,0.866 -1.15,1.326c0,0 -0.367,0.475 -0.639,0.848c-0.65,0.891 -1.261,1.806 -1.847,2.733l-0.059,0.092c-0.308,0.392 -1.184,0.097 -0.92,-0.521c0.047,-0.112 0.07,-0.125 0.1,-0.172c0.749,-1.194 1.544,-2.365 2.423,-3.502c0,0 0.234,-0.3 0.39,-0.491c0.339,-0.417 0.69,-0.825 1.08,-1.192c0,0 0.301,-0.288 0.572,-0.472c0,0 0.456,-0.332 0.896,-0.327Zm-0.213,0.019c-0.012,0.003 0.001,0 0,0Z" style="fill:#2b2a54;fill-rule:nonzero;"/><path d="M178.209,33.719c0.278,0.021 0.322,0.108 0.398,0.206c0.137,0.178 0.139,0.44 0.014,0.631c-0.046,0.071 -0.242,0.498 -0.395,0.857c-0.683,1.611 -1.305,3.277 -1.815,4.925c0,0 -0.227,0.496 -0.628,0.416c-0.289,-0.058 -0.486,-0.377 -0.405,-0.678c0.567,-1.849 1.243,-3.684 2.036,-5.464c0.081,-0.182 0.204,-0.437 0.204,-0.437c0.037,-0.072 0.091,-0.167 0.091,-0.167c0.107,-0.169 0.28,-0.291 0.5,-0.289Z" style="fill:#2b2a54;fill-rule:nonzero;"/><path d="M192.683,36.69c0.114,0.022 0.143,0.039 0.198,0.074c0.625,0.39 -0.228,1.698 -0.782,2.442c-0.441,0.593 -0.971,1.149 -1.668,1.424c-0.403,0.159 -0.878,0.183 -1.262,-0.05c-0.012,-0.008 -0.024,-0.016 -0.036,-0.024c-0.126,-0.086 -0.273,-0.26 -0.273,-0.26c-0.073,-0.094 -0.122,-0.193 -0.122,-0.193c-0.193,-0.369 -0.127,0.022 -0.188,-0.696c-0.006,-0.069 -0.01,-0.167 -0.01,-0.167c-0.001,-0.048 -0.001,-0.052 -0.001,-0.052c0,-0.974 0.36,-1.946 0.662,-2.801c0,0 0.067,-0.189 0.115,-0.316c0.275,-0.729 0.578,-1.453 1.01,-2.088c0,0 0.359,-0.377 0.708,-0.184c0.283,0.155 0.325,0.554 0.146,0.82c-0.012,0.019 -0.012,0.019 -0.024,0.037c-0.962,1.51 -1.555,3.257 -1.552,4.547c0,0.022 0.001,0.044 0.003,0.066c0.013,0.227 -0.043,0.619 0.544,0.321c0.938,-0.477 1.495,-1.507 1.891,-2.423c0.047,-0.107 0.049,-0.114 0.066,-0.155c0,0 0.04,-0.09 0.093,-0.15c0.118,-0.133 0.301,-0.195 0.482,-0.172Z" style="fill:#2b2a54;fill-rule:nonzero;"/><path d="M195.831,36.586c0.115,0.019 0.145,0.036 0.201,0.069c0.238,0.139 0.294,0.483 0.195,0.735c-0.131,0.331 -0.282,0.654 -0.455,0.964c0,0 -0.029,0.053 -0.063,0.11c-0.042,0.074 -0.042,0.074 -0.086,0.146c-0.515,0.839 -1.17,1.637 -2.106,2.01c-0.405,0.161 -0.876,0.207 -1.282,-0.021c-0.143,-0.087 -0.267,-0.198 -0.363,-0.336c0,0 -0.106,-0.16 -0.158,-0.303c0,0 -0.073,-0.218 -0.094,-0.38c0,0 -0.023,-0.37 -0.023,-0.37c0.005,-0.19 0.023,-0.347 0.023,-0.347c0.027,-0.208 0.062,-0.415 0.114,-0.618c0,0 0.142,-0.503 0.27,-0.892c0,0 0.152,-0.451 0.231,-0.674c0.222,-0.628 0.463,-1.253 0.745,-1.86c0,0 0.233,-0.519 0.457,-0.843c0,0 0.23,-0.263 0.497,-0.237c0.369,0.036 0.604,0.514 0.374,0.849c-0.454,0.659 -0.702,1.439 -0.956,2.131c-0.261,0.708 -0.548,1.426 -0.66,2.157c-0.012,0.078 -0.015,0.107 -0.02,0.161c-0.021,0.211 -0.04,0.451 0.07,0.612c0.164,0.242 0.859,-0.279 1.119,-0.522c0.64,-0.6 1.091,-1.379 1.404,-2.202c0,0 0.038,-0.091 0.09,-0.153c0.114,-0.136 0.295,-0.203 0.476,-0.186Zm-3.089,3.063c0,0 -0.004,-0.005 0,0Z" style="fill:#2b2a54;fill-rule:nonzero;"/><path d="M168.929,36.684c0.24,0.016 0.261,0.07 0.333,0.133c0.214,0.188 0.188,0.505 0.051,0.815c-0.022,0.05 0.014,-0.017 -0.108,0.231c-0.171,0.349 -0.204,0.388 -0.269,0.5c0,0 -0.148,0.246 -0.28,0.437c-0.119,0.174 -0.247,0.342 -0.385,0.501c0,0 -0.466,0.484 -0.466,0.484c-0.082,0.076 -0.165,0.149 -0.251,0.22c-0.655,0.542 -1.501,0.959 -2.379,0.602c-0.269,-0.11 -0.507,-0.287 -0.708,-0.497c0,0 -0.154,-0.178 -0.154,-0.178c-0.09,-0.117 -0.171,-0.246 -0.171,-0.246c-0.174,-0.291 -0.142,-0.257 -0.163,-0.303c-0.183,-0.403 0.29,-0.995 0.76,-0.695c0.069,0.044 0.127,0.103 0.169,0.173c0.07,0.115 0.075,0.156 0.102,0.202c0.165,0.288 0.413,0.567 0.751,0.605c0.435,0.049 0.826,-0.242 1.137,-0.502c0,0 0.126,-0.106 0.25,-0.226c0,0 0.149,-0.143 0.285,-0.297c0.054,-0.061 0.055,-0.064 0.077,-0.09c0.249,-0.3 0.462,-0.626 0.649,-0.98l0.141,-0.284c0.013,-0.028 0.016,-0.028 0.063,-0.139c0.031,-0.075 0.071,-0.172 0.071,-0.172c0.045,-0.082 0.058,-0.093 0.087,-0.124c0.103,-0.112 0.255,-0.171 0.408,-0.17Z" style="fill:#2b2a54;fill-rule:nonzero;"/><path d="M198.772,33.736c0.569,0.009 1.107,0.335 1.415,0.816c0,0 0.145,0.256 0.145,0.256c0.099,0.209 0.176,0.429 0.225,0.655c0,0 0.054,0.248 0.075,0.482c0.004,0.048 0.02,0.994 -0.143,1.645l-0.099,0.344c-0.465,1.434 -1.502,2.832 -2.972,2.823c-0.481,-0.003 -0.959,-0.161 -1.347,-0.444c0,0 -0.414,-0.312 -0.654,-0.728l-0.079,-0.146c-0.123,-0.254 -0.128,-0.284 -0.174,-0.451c0,0 -0.06,-0.231 -0.081,-0.376c-0.007,-0.05 -0.013,-0.101 -0.018,-0.151c-0.017,-0.184 -0.01,-0.443 -0.01,-0.443c0.011,-0.217 0.039,-0.398 0.039,-0.398c0.016,-0.102 0.035,-0.205 0.058,-0.307c0.027,-0.116 0.009,-0.081 0.053,-0.182c0,0 0.284,-0.569 0.534,-0.978c0,0 0.202,-0.329 0.396,-0.6c0.619,-0.868 1.385,-1.785 2.577,-1.817c0.02,0 0.04,0 0.06,0Zm-0.024,1.064c-1.011,0.011 -1.697,1.245 -2.1,1.906c-0.16,0.264 -0.313,0.533 -0.449,0.811c0,0 -0.053,0.264 -0.053,0.264c-0.036,0.245 -0.042,0.492 0,0.738l0.018,0.09c0.018,0.072 0.049,0.172 0.049,0.172c0.121,0.336 0.165,0.343 0.236,0.433c0.476,0.6 1.483,0.599 2.058,-0.039c0.5,-0.555 0.824,-1.269 0.983,-1.984c0,0 0.119,-0.672 0.088,-1.08c0,0 -0.033,-0.333 -0.089,-0.533c-0.101,-0.364 -0.311,-0.754 -0.702,-0.777c-0.013,-0.001 -0.026,-0.001 -0.039,-0.001Z" style="fill:#2b2a54;fill-rule:nonzero;"/><path d="M188.889,26.429c0.206,0.009 0.407,0.081 0.567,0.21c0,0 0.229,0.257 0.229,0.257c0.023,0.037 0.045,0.075 0.064,0.114c0.116,0.228 0.176,0.615 0.167,0.872l-0.004,0.099c-0.008,0.097 -0.007,0.136 -0.034,0.295c0,0 -0.125,0.555 -0.235,0.841c-0.066,0.173 -0.142,0.341 -0.224,0.506c0,0 -0.202,0.388 -0.381,0.667c-0.177,0.276 -0.371,0.541 -0.573,0.801c0,0 -0.11,0.142 -0.193,0.244c-0.137,0.169 -0.157,0.19 -0.225,0.269l-0.181,0.207c-0.156,0.171 -0.381,0.4 -0.381,0.4c-0.522,0.511 -1.098,1.011 -1.786,1.223c0,0 -0.167,0.417 -0.297,0.787c-0.703,2.002 -1.269,4.061 -1.766,6.136c0,0 -0.099,0.265 -0.285,0.355c-0.349,0.17 -0.832,-0.164 -0.75,-0.602c0.319,-1.335 0.668,-2.667 1.065,-3.985c0,0 0.155,-0.517 0.303,-0.977c0.625,-1.947 1.357,-3.88 2.294,-5.652c0.019,-0.036 0.019,-0.036 0.038,-0.072c0.146,-0.276 0.299,-0.548 0.456,-0.817l0.035,-0.06c0.201,-0.34 0.411,-0.675 0.631,-1.003c0,0 0.118,-0.178 0.211,-0.311c0.014,-0.021 0.014,-0.02 0.028,-0.041c0.107,-0.149 0.227,-0.288 0.364,-0.41c0,0 0.426,-0.343 0.817,-0.354c0.023,0 0.023,0 0.046,0.001Zm-0.081,1.092c-0.179,0.114 -0.293,0.307 -0.413,0.483c-0.264,0.39 -0.515,0.788 -0.753,1.197c-0.009,0.015 -0.059,0.103 -0.068,0.118c-0.462,0.809 -0.872,1.65 -1.238,2.498c0,0 0.526,-0.475 0.837,-0.829c0,0 0.108,-0.125 0.203,-0.239c0.032,-0.039 0.037,-0.045 0.069,-0.084c0.343,-0.423 0.673,-0.873 0.927,-1.335c0,0 0.369,-0.665 0.455,-1.225c0,0 0.055,-0.377 -0.014,-0.583c0,0 0.003,-0.006 -0.005,-0.001Zm-0.023,-0.056c0,0 -0.001,-0.001 0,0Z" style="fill:#2b2a54;fill-rule:nonzero;"/><path d="M200.95,26.429c0.373,0.016 0.711,0.26 0.871,0.6c0,0 0.083,0.218 0.083,0.218c0.03,0.111 0.035,0.11 0.055,0.254c0.001,0.008 0.017,0.173 0.017,0.173c0.004,0.128 -0.003,0.306 -0.003,0.306c-0.008,0.097 -0.007,0.136 -0.034,0.294c0,0 -0.171,0.768 -0.458,1.346c0,0 -0.19,0.369 -0.381,0.667c-0.09,0.14 -0.222,0.329 -0.222,0.329c-0.799,1.116 -1.71,2.253 -2.944,2.749c-0.077,0.031 -0.186,0.066 -0.186,0.066c-0.062,0.163 -0.139,0.376 -0.139,0.376c-0.144,0.4 -0.284,0.801 -0.417,1.204l-0.021,0.064c-0.308,0.938 -0.59,1.884 -0.85,2.834l-0.022,0.079c-0.212,0.782 -0.411,1.567 -0.6,2.353c0,0 -0.206,0.456 -0.59,0.404c-0.259,-0.036 -0.469,-0.286 -0.459,-0.548c0.002,-0.046 0.006,-0.058 0.014,-0.103c0.301,-1.258 0.631,-2.519 0.999,-3.762l0.13,-0.433c0.283,-0.921 0.588,-1.843 0.922,-2.743c0,0 0.082,-0.223 0.147,-0.392c0.146,-0.38 0.298,-0.759 0.457,-1.134c0,0 0.121,-0.286 0.244,-0.562c0,0 0.164,-0.367 0.299,-0.651c0.155,-0.323 0.314,-0.644 0.482,-0.96c0,0 0.186,-0.345 0.186,-0.345c0.325,-0.583 0.671,-1.155 1.046,-1.706l0.149,-0.217c0.136,-0.184 0.287,-0.357 0.469,-0.494c0,0 0.376,-0.257 0.711,-0.267c0.023,0 0.023,0 0.045,0.001Zm-0.081,1.092c-0.289,0.184 -0.444,0.525 -0.651,0.841c-0.28,0.432 -0.544,0.875 -0.791,1.327c0,0 -0.561,1.069 -0.873,1.768c-0.052,0.117 -0.117,0.266 -0.117,0.266c-0.018,0.04 -0.042,0.097 -0.042,0.097c0.628,-0.532 1.158,-1.164 1.635,-1.849c0,0 0.138,-0.199 0.21,-0.315c0.093,-0.149 0.182,-0.302 0.262,-0.459c0,0 0.336,-0.78 0.387,-1.093c0.018,-0.111 0.026,-0.27 0.026,-0.27c0.002,-0.127 -0.037,-0.319 -0.046,-0.313Z" style="fill:#2b2a54;fill-rule:nonzero;"/></g><path d="M579.89,106.987c0,-4.964 -4.031,-8.995 -8.995,-8.995l-421.284,0c-4.964,0 -8.995,4.031 -8.995,8.995l0,71.96c0,4.965 4.031,8.995 8.995,8.995l421.284,0c4.964,0 8.995,-4.03 8.995,-8.995l0,-71.96Z" style="fill:#fff;"/><path d="M571.011,97.993l0.116,0.002l0.115,0.004l0.116,0.005l0.114,0.006l0.115,0.008l0.114,0.01l0.113,0.01l0.113,0.013l0.113,0.013l0.112,0.015l0.112,0.017l0.111,0.017l0.111,0.02l0.111,0.02l0.11,0.022l0.109,0.023l0.109,0.025l0.109,0.025l0.108,0.027l0.107,0.029l0.107,0.029l0.107,0.031l0.106,0.033l0.105,0.033l0.105,0.035l0.104,0.036l0.103,0.037l0.103,0.039l0.103,0.039l0.102,0.041l0.101,0.042l0.1,0.044l0.1,0.044l0.1,0.046l0.098,0.047l0.098,0.048l0.098,0.049l0.096,0.05l0.096,0.051l0.095,0.053l0.095,0.053l0.094,0.055l0.093,0.056l0.092,0.057l0.092,0.058l0.091,0.059l0.09,0.06l0.089,0.061l0.089,0.062l0.087,0.064l0.087,0.064l0.087,0.065l0.085,0.067l0.085,0.067l0.083,0.068l0.083,0.069l0.082,0.071l0.081,0.071l0.081,0.072l0.079,0.073l0.079,0.074l0.077,0.075l0.077,0.076l0.076,0.077l0.075,0.077l0.074,0.079l0.073,0.079l0.072,0.081l0.071,0.081l0.071,0.082l0.069,0.083l0.068,0.083l0.067,0.085l0.067,0.085l0.065,0.087l0.064,0.087l0.064,0.087l0.062,0.089l0.061,0.089l0.06,0.09l0.059,0.091l0.058,0.092l0.057,0.092l0.056,0.093l0.055,0.094l0.053,0.095l0.053,0.095l0.051,0.096l0.05,0.097l0.049,0.097l0.048,0.098l0.047,0.098l0.046,0.1l0.044,0.1l0.044,0.1l0.042,0.101l0.041,0.102l0.039,0.103l0.039,0.103l0.037,0.103l0.036,0.104l0.035,0.105l0.033,0.105l0.033,0.106l0.031,0.107l0.029,0.107l0.029,0.107l0.027,0.108l0.026,0.109l0.024,0.109l0.023,0.109l0.022,0.11l0.02,0.111l0.02,0.111l0.017,0.111l0.017,0.112l0.015,0.112l0.013,0.113l0.013,0.113l0.01,0.113l0.01,0.114l0.008,0.115l0.006,0.114l0.005,0.116l0.004,0.115l0.002,0.116l0.001,0.116l0,71.96l-0.001,0.117l-0.002,0.115l-0.004,0.116l-0.005,0.115l-0.006,0.115l-0.008,0.114l-0.01,0.114l-0.01,0.114l-0.013,0.113l-0.013,0.112l-0.015,0.113l-0.017,0.111l-0.017,0.112l-0.02,0.111l-0.02,0.11l-0.022,0.11l-0.023,0.11l-0.024,0.109l-0.026,0.108l-0.027,0.108l-0.029,0.108l-0.029,0.107l-0.031,0.106l-0.033,0.106l-0.033,0.105l-0.035,0.105l-0.036,0.104l-0.037,0.104l-0.039,0.103l-0.039,0.102l-0.041,0.102l-0.042,0.101l-0.044,0.101l-0.044,0.1l-0.046,0.099l-0.047,0.099l-0.048,0.098l-0.049,0.097l-0.05,0.097l-0.051,0.096l-0.053,0.095l-0.053,0.094l-0.055,0.094l-0.056,0.093l-0.057,0.093l-0.058,0.091l-0.059,0.091l-0.06,0.09l-0.061,0.09l-0.062,0.088l-0.064,0.088l-0.064,0.087l-0.065,0.086l-0.067,0.085l-0.067,0.085l-0.068,0.084l-0.069,0.083l-0.071,0.082l-0.071,0.081l-0.072,0.08l-0.073,0.08l-0.074,0.078l-0.075,0.078l-0.076,0.077l-0.077,0.075l-0.077,0.075l-0.079,0.074l-0.079,0.074l-0.081,0.072l-0.081,0.071l-0.082,0.07l-0.083,0.069l-0.083,0.069l-0.085,0.067l-0.085,0.066l-0.087,0.065l-0.087,0.065l-0.087,0.063l-0.089,0.062l-0.089,0.061l-0.09,0.06l-0.091,0.06l-0.092,0.058l-0.092,0.056l-0.093,0.056l-0.094,0.055l-0.095,0.054l-0.095,0.052l-0.096,0.052l-0.096,0.05l-0.098,0.049l-0.098,0.048l-0.098,0.047l-0.1,0.045l-0.1,0.045l-0.1,0.043l-0.101,0.042l-0.102,0.041l-0.103,0.04l-0.103,0.038l-0.103,0.038l-0.104,0.036l-0.105,0.034l-0.105,0.034l-0.106,0.032l-0.107,0.031l-0.107,0.03l-0.107,0.028l-0.108,0.027l-0.109,0.026l-0.109,0.024l-0.109,0.024l-0.11,0.021l-0.111,0.021l-0.111,0.019l-0.111,0.018l-0.112,0.016l-0.112,0.015l-0.113,0.014l-0.113,0.012l-0.113,0.011l-0.114,0.009l-0.115,0.008l-0.114,0.007l-0.116,0.005l-0.115,0.004l-0.116,0.002l-0.116,0l-421.284,0l-0.116,0l-0.116,-0.002l-0.115,-0.004l-0.115,-0.005l-0.115,-0.007l-0.115,-0.008l-0.113,-0.009l-0.114,-0.011l-0.113,-0.012l-0.113,-0.014l-0.112,-0.015l-0.112,-0.016l-0.111,-0.018l-0.111,-0.019l-0.111,-0.021l-0.11,-0.021l-0.109,-0.024l-0.109,-0.024l-0.109,-0.026l-0.108,-0.027l-0.107,-0.028l-0.107,-0.03l-0.107,-0.031l-0.106,-0.032l-0.105,-0.034l-0.105,-0.034l-0.104,-0.036l-0.103,-0.038l-0.103,-0.038l-0.103,-0.04l-0.102,-0.041l-0.101,-0.042l-0.1,-0.043l-0.1,-0.045l-0.1,-0.045l-0.098,-0.047l-0.098,-0.048l-0.097,-0.049l-0.097,-0.05l-0.096,-0.052l-0.095,-0.052l-0.095,-0.054l-0.094,-0.055l-0.093,-0.056l-0.092,-0.056l-0.092,-0.058l-0.091,-0.06l-0.09,-0.06l-0.089,-0.061l-0.089,-0.062l-0.087,-0.063l-0.087,-0.065l-0.087,-0.065l-0.085,-0.066l-0.084,-0.067l-0.084,-0.069l-0.083,-0.069l-0.082,-0.07l-0.081,-0.071l-0.081,-0.072l-0.079,-0.074l-0.079,-0.074l-0.077,-0.075l-0.077,-0.075l-0.076,-0.077l-0.075,-0.078l-0.074,-0.078l-0.073,-0.08l-0.072,-0.08l-0.071,-0.081l-0.071,-0.082l-0.069,-0.083l-0.068,-0.084l-0.067,-0.085l-0.067,-0.085l-0.065,-0.086l-0.064,-0.087l-0.063,-0.088l-0.063,-0.088l-0.061,-0.09l-0.06,-0.09l-0.059,-0.091l-0.058,-0.091l-0.057,-0.093l-0.056,-0.093l-0.054,-0.094l-0.054,-0.094l-0.053,-0.095l-0.051,-0.096l-0.05,-0.097l-0.049,-0.097l-0.048,-0.098l-0.047,-0.099l-0.046,-0.099l-0.044,-0.1l-0.044,-0.101l-0.042,-0.101l-0.041,-0.102l-0.039,-0.102l-0.039,-0.103l-0.037,-0.104l-0.036,-0.104l-0.035,-0.105l-0.033,-0.105l-0.032,-0.106l-0.031,-0.106l-0.03,-0.107l-0.029,-0.108l-0.027,-0.108l-0.025,-0.108l-0.025,-0.109l-0.023,-0.11l-0.022,-0.11l-0.02,-0.11l-0.019,-0.111l-0.018,-0.112l-0.017,-0.111l-0.015,-0.113l-0.013,-0.112l-0.012,-0.113l-0.011,-0.114l-0.01,-0.114l-0.008,-0.114l-0.006,-0.115l-0.005,-0.115l-0.004,-0.116l-0.002,-0.115l-0.001,-0.117l0,-71.96l0.001,-0.116l0.002,-0.116l0.004,-0.115l0.005,-0.116l0.006,-0.114l0.008,-0.115l0.01,-0.114l0.011,-0.113l0.012,-0.113l0.013,-0.113l0.015,-0.112l0.017,-0.112l0.018,-0.111l0.019,-0.111l0.02,-0.111l0.022,-0.11l0.023,-0.109l0.025,-0.109l0.025,-0.109l0.027,-0.108l0.029,-0.107l0.03,-0.107l0.031,-0.107l0.032,-0.106l0.033,-0.105l0.035,-0.105l0.036,-0.104l0.037,-0.103l0.039,-0.103l0.039,-0.103l0.041,-0.102l0.042,-0.101l0.044,-0.1l0.044,-0.1l0.046,-0.1l0.047,-0.098l0.048,-0.098l0.049,-0.097l0.05,-0.097l0.051,-0.096l0.053,-0.095l0.054,-0.095l0.054,-0.094l0.056,-0.093l0.057,-0.092l0.058,-0.092l0.059,-0.091l0.06,-0.09l0.061,-0.089l0.063,-0.089l0.063,-0.087l0.064,-0.087l0.065,-0.087l0.067,-0.085l0.067,-0.085l0.068,-0.083l0.069,-0.083l0.071,-0.082l0.071,-0.081l0.072,-0.081l0.073,-0.079l0.074,-0.079l0.075,-0.077l0.076,-0.077l0.077,-0.076l0.077,-0.075l0.079,-0.074l0.079,-0.073l0.081,-0.072l0.081,-0.071l0.082,-0.071l0.083,-0.069l0.084,-0.068l0.084,-0.067l0.085,-0.067l0.087,-0.065l0.087,-0.064l0.087,-0.064l0.089,-0.062l0.089,-0.061l0.09,-0.06l0.091,-0.059l0.092,-0.058l0.092,-0.057l0.093,-0.056l0.094,-0.055l0.095,-0.053l0.095,-0.053l0.096,-0.051l0.097,-0.05l0.097,-0.049l0.098,-0.048l0.098,-0.047l0.1,-0.046l0.1,-0.044l0.1,-0.044l0.101,-0.042l0.102,-0.041l0.103,-0.039l0.103,-0.039l0.103,-0.037l0.104,-0.036l0.105,-0.035l0.105,-0.033l0.106,-0.033l0.107,-0.031l0.107,-0.029l0.107,-0.029l0.108,-0.027l0.109,-0.025l0.109,-0.025l0.109,-0.023l0.11,-0.022l0.111,-0.02l0.111,-0.02l0.111,-0.017l0.112,-0.017l0.112,-0.015l0.113,-0.013l0.113,-0.013l0.114,-0.01l0.113,-0.01l0.115,-0.008l0.115,-0.006l0.115,-0.005l0.115,-0.004l0.116,-0.002l0.116,-0.001l421.284,0l0.116,0.001Zm-421.393,1.999l-0.097,0.001l-0.09,0.001l-0.09,0.003l-0.093,0.004l-0.088,0.005l-0.086,0.006l-0.091,0.008l-0.087,0.008l-0.088,0.01l-0.089,0.01l-0.087,0.012l-0.089,0.013l-0.084,0.013l-0.086,0.015l-0.091,0.017l-0.081,0.016l-0.086,0.018l-0.088,0.02l-0.079,0.019l-0.078,0.02l-0.092,0.024l-0.087,0.024l-0.078,0.022l-0.078,0.024l-0.083,0.027l-0.083,0.027l-0.076,0.027l-0.084,0.03l-0.081,0.03l-0.085,0.033l-0.075,0.03l-0.072,0.03l-0.081,0.035l-0.081,0.036l-0.084,0.039l-0.071,0.033l-0.069,0.034l-0.079,0.04l-0.08,0.042l-0.07,0.036l-0.066,0.038l-0.078,0.044l-0.079,0.046l-0.079,0.047l-0.065,0.04l-0.065,0.041l-0.077,0.05l-0.076,0.051l-0.064,0.043l-0.062,0.044l-0.076,0.055l-0.059,0.043l-0.073,0.057l-0.076,0.058l-0.06,0.047l-0.059,0.048l-0.056,0.048l-0.071,0.061l-0.071,0.063l-0.058,0.051l-0.068,0.064l-0.057,0.051l-0.052,0.053l-0.069,0.067l-0.053,0.054l-0.068,0.07l-0.052,0.054l-0.05,0.056l-0.065,0.072l-0.064,0.073l-0.051,0.058l-0.049,0.059l-0.048,0.059l-0.046,0.059l-0.059,0.077l-0.061,0.079l-0.046,0.062l-0.044,0.062l-0.059,0.082l-0.043,0.063l-0.042,0.063l-0.042,0.065l-0.052,0.085l-0.042,0.065l-0.038,0.066l-0.053,0.089l-0.038,0.066l-0.037,0.068l-0.036,0.069l-0.047,0.091l-0.036,0.07l-0.034,0.07l-0.044,0.093l-0.034,0.072l-0.031,0.072l-0.042,0.096l-0.032,0.073l-0.019,0.049l-0.037,0.099l-0.039,0.099l-0.018,0.05l-0.025,0.076l-0.033,0.101l-0.025,0.077l-0.023,0.077l-0.03,0.104l-0.023,0.079l-0.014,0.052l-0.024,0.105l-0.028,0.107l-0.012,0.054l-0.017,0.081l-0.021,0.108l-0.016,0.083l-0.01,0.055l-0.015,0.111l-0.014,0.083l-0.01,0.084l-0.015,0.112l-0.007,0.058l-0.007,0.086l-0.009,0.113l-0.007,0.087l-0.003,0.06l-0.004,0.115l-0.004,0.088l0,0.089l-0.003,0.116l0,71.907l0.003,0.116l0,0.088l0.004,0.089l0.004,0.114l0.003,0.061l0.007,0.086l0.009,0.114l0.007,0.086l0.007,0.057l0.015,0.112l0.01,0.084l0.014,0.084l0.015,0.11l0.009,0.056l0.017,0.082l0.021,0.108l0.017,0.081l0.012,0.054l0.028,0.107l0.024,0.105l0.014,0.053l0.023,0.078l0.03,0.104l0.023,0.078l0.025,0.076l0.033,0.102l0.025,0.075l0.018,0.051l0.04,0.099l0.036,0.099l0.019,0.048l0.032,0.074l0.042,0.096l0.031,0.072l0.034,0.071l0.044,0.093l0.034,0.071l0.036,0.069l0.047,0.091l0.036,0.069l0.037,0.068l0.038,0.067l0.053,0.088l0.038,0.066l0.042,0.065l0.052,0.085l0.042,0.065l0.042,0.064l0.044,0.063l0.058,0.082l0.044,0.062l0.046,0.061l0.06,0.079l0.06,0.078l0.046,0.059l0.048,0.059l0.048,0.058l0.052,0.058l0.064,0.073l0.065,0.072l0.05,0.056l0.053,0.055l0.067,0.07l0.052,0.053l0.07,0.067l0.052,0.053l0.057,0.052l0.068,0.064l0.058,0.051l0.072,0.063l0.07,0.06l0.056,0.049l0.059,0.047l0.06,0.048l0.076,0.058l0.072,0.055l0.062,0.045l0.074,0.054l0.061,0.043l0.065,0.044l0.078,0.052l0.075,0.049l0.064,0.041l0.068,0.041l0.077,0.046l0.078,0.046l0.079,0.045l0.066,0.037l0.07,0.037l0.08,0.041l0.079,0.041l0.07,0.034l0.07,0.033l0.082,0.038l0.084,0.037l0.08,0.035l0.072,0.03l0.075,0.03l0.083,0.031l0.083,0.031l0.084,0.031l0.076,0.026l0.083,0.028l0.083,0.026l0.078,0.024l0.078,0.023l0.087,0.023l0.092,0.025l0.078,0.02l0.079,0.019l0.088,0.019l0.088,0.019l0.079,0.016l0.089,0.016l0.088,0.015l0.084,0.013l0.089,0.013l0.089,0.012l0.087,0.011l0.088,0.009l0.087,0.009l0.09,0.007l0.087,0.006l0.088,0.005l0.093,0.004l0.09,0.003l0.09,0.002l0.097,0l421.271,0l0.097,0l0.09,-0.002l0.091,-0.003l0.09,-0.004l0.088,-0.005l0.092,-0.006l0.087,-0.007l0.087,-0.009l0.088,-0.009l0.087,-0.011l0.089,-0.012l0.085,-0.012l0.086,-0.014l0.09,-0.015l0.086,-0.016l0.088,-0.017l0.076,-0.017l0.085,-0.019l0.092,-0.022l0.081,-0.02l0.078,-0.021l0.084,-0.023l0.085,-0.025l0.087,-0.026l0.085,-0.027l0.075,-0.025l0.076,-0.026l0.084,-0.031l0.083,-0.031l0.073,-0.028l0.082,-0.033l0.085,-0.035l0.07,-0.03l0.084,-0.037l0.071,-0.033l0.078,-0.038l0.084,-0.04l0.069,-0.035l0.067,-0.035l0.079,-0.043l0.081,-0.044l0.067,-0.038l0.078,-0.046l0.065,-0.038l0.077,-0.049l0.08,-0.049l0.062,-0.041l0.065,-0.043l0.075,-0.052l0.078,-0.053l0.046,-0.034l0.073,-0.056l0.075,-0.056l0.059,-0.046l0.074,-0.059l0.073,-0.059l0.059,-0.049l0.056,-0.048l0.072,-0.063l0.058,-0.051l0.054,-0.051l0.069,-0.065l0.069,-0.067l0.055,-0.053l0.052,-0.053l0.067,-0.07l0.053,-0.055l0.05,-0.056l0.065,-0.072l0.05,-0.057l0.063,-0.074l0.05,-0.058l0.046,-0.058l0.063,-0.078l0.046,-0.06l0.06,-0.079l0.046,-0.061l0.044,-0.062l0.044,-0.063l0.055,-0.082l0.044,-0.064l0.04,-0.064l0.056,-0.086l0.039,-0.065l0.053,-0.087l0.04,-0.067l0.038,-0.067l0.038,-0.068l0.036,-0.069l0.047,-0.091l0.035,-0.069l0.034,-0.071l0.044,-0.093l0.034,-0.071l0.032,-0.072l0.031,-0.072l0.029,-0.073l0.039,-0.098l0.03,-0.074l0.027,-0.074l0.036,-0.101l0.027,-0.076l0.025,-0.076l0.025,-0.076l0.023,-0.078l0.023,-0.078l0.02,-0.078l0.028,-0.105l0.021,-0.079l0.018,-0.08l0.025,-0.107l0.018,-0.081l0.011,-0.055l0.014,-0.082l0.018,-0.109l0.015,-0.084l0.011,-0.084l0.012,-0.084l0.009,-0.084l0.013,-0.113l0.009,-0.085l0.005,-0.06l0.005,-0.086l0.006,-0.115l0.005,-0.087l0.002,-0.088l0.003,-0.089l0,-72.139l-0.003,-0.089l-0.002,-0.088l-0.005,-0.088l-0.006,-0.114l-0.005,-0.087l-0.005,-0.059l-0.009,-0.086l-0.013,-0.112l-0.009,-0.085l-0.012,-0.084l-0.011,-0.083l-0.014,-0.084l-0.019,-0.109l-0.014,-0.082l-0.011,-0.055l-0.018,-0.081l-0.025,-0.107l-0.018,-0.08l-0.021,-0.08l-0.027,-0.104l-0.021,-0.079l-0.023,-0.078l-0.023,-0.077l-0.025,-0.077l-0.025,-0.076l-0.027,-0.076l-0.036,-0.1l-0.027,-0.074l-0.03,-0.075l-0.039,-0.098l-0.029,-0.072l-0.031,-0.072l-0.032,-0.072l-0.034,-0.072l-0.044,-0.093l-0.033,-0.07l-0.036,-0.07l-0.048,-0.091l-0.035,-0.069l-0.038,-0.068l-0.038,-0.066l-0.04,-0.067l-0.053,-0.088l-0.039,-0.065l-0.056,-0.085l-0.04,-0.065l-0.044,-0.063l-0.054,-0.082l-0.045,-0.063l-0.044,-0.062l-0.046,-0.062l-0.06,-0.079l-0.046,-0.059l-0.063,-0.077l-0.046,-0.059l-0.051,-0.059l-0.062,-0.074l-0.05,-0.057l-0.065,-0.072l-0.05,-0.056l-0.052,-0.054l-0.068,-0.07l-0.053,-0.054l-0.054,-0.053l-0.069,-0.067l-0.069,-0.065l-0.054,-0.05l-0.058,-0.051l-0.071,-0.063l-0.056,-0.049l-0.06,-0.048l-0.073,-0.06l-0.074,-0.058l-0.059,-0.047l-0.076,-0.057l-0.07,-0.053l-0.048,-0.035l-0.079,-0.054l-0.074,-0.052l-0.063,-0.042l-0.064,-0.041l-0.081,-0.05l-0.075,-0.048l-0.066,-0.039l-0.079,-0.046l-0.066,-0.037l-0.081,-0.045l-0.079,-0.043l-0.067,-0.035l-0.069,-0.035l-0.082,-0.039l-0.08,-0.039l-0.073,-0.033l-0.08,-0.036l-0.072,-0.031l-0.085,-0.034l-0.082,-0.034l-0.074,-0.029l-0.082,-0.03l-0.084,-0.03l-0.076,-0.027l-0.075,-0.024l-0.085,-0.027l-0.087,-0.027l-0.085,-0.025l-0.084,-0.023l-0.078,-0.021l-0.081,-0.02l-0.092,-0.022l-0.085,-0.019l-0.075,-0.016l-0.089,-0.017l-0.088,-0.017l-0.088,-0.015l-0.086,-0.014l-0.085,-0.012l-0.087,-0.012l-0.089,-0.01l-0.088,-0.01l-0.087,-0.008l-0.089,-0.008l-0.09,-0.006l-0.088,-0.005l-0.09,-0.004l-0.091,-0.003l-0.09,-0.001l-0.097,-0.001l-421.271,0Z" style="fill:#dedede;"/><g><path d="M271.368,138.284c0,-0.397 -0.322,-0.719 -0.719,-0.719l-100.685,0c-0.397,0 -0.719,0.322 -0.719,0.719l0,1.437c0,0.397 0.322,0.719 0.719,0.719l100.685,0c0.397,0 0.719,-0.322 0.719,-0.719l0,-1.437Z" style="fill:#3956e8;"/><path d="M246.905,146.333c0,-0.397 -0.322,-0.719 -0.718,-0.719l-76.223,0c-0.397,0 -0.719,0.322 -0.719,0.719l0,1.437c0,0.397 0.322,0.719 0.719,0.719l76.223,0c0.396,0 0.718,-0.322 0.718,-0.719l0,-1.437Z" style="fill:#3956e8;"/><path d="M250.592,116.112c0,-0.396 -0.322,-0.718 -0.719,-0.718l-79.909,0c-0.397,0 -0.719,0.322 -0.719,0.718l0,1.437c0,0.397 0.322,0.719 0.719,0.719l79.909,0c0.397,0 0.719,-0.322 0.719,-0.719l0,-1.437Z" style="fill:#dedede;"/><path d="M189.203,168.385c0,-0.397 -0.322,-0.719 -0.718,-0.719l-18.521,0c-0.397,0 -0.719,0.322 -0.719,0.719l0,1.437c0,0.397 0.322,0.719 0.719,0.719l18.521,0c0.396,0 0.718,-0.322 0.718,-0.719l0,-1.437Z" style="fill:#dedede;"/><path d="M221.361,168.385c0,-0.397 -0.322,-0.719 -0.719,-0.719l-18.521,0c-0.397,0 -0.719,0.322 -0.719,0.719l0,1.437c0,0.397 0.322,0.719 0.719,0.719l18.521,0c0.397,0 0.719,-0.322 0.719,-0.719l0,-1.437Z" style="fill:#dedede;"/></g><g><g><g><path d="M517.242,33.062c0,-0.299 -0.243,-0.542 -0.542,-0.542l-24.066,0c-0.299,0 -0.542,0.243 -0.542,0.542l0,1.083c0,0.299 0.243,0.542 0.542,0.542l24.066,0c0.299,0 0.542,-0.243 0.542,-0.542l0,-1.083Z" style="fill:#dedede;"/><path d="M548.566,33.062c0,-0.299 -0.243,-0.542 -0.542,-0.542l-24.066,0c-0.299,0 -0.542,0.243 -0.542,0.542l0,1.083c0,0.299 0.243,0.542 0.542,0.542l24.066,0c0.299,0 0.542,-0.243 0.542,-0.542l0,-1.083Z" style="fill:#dedede;"/><path d="M579.89,33.062c0,-0.299 -0.243,-0.542 -0.542,-0.542l-24.066,0c-0.299,0 -0.542,0.243 -0.542,0.542l0,1.083c0,0.299 0.243,0.542 0.542,0.542l24.066,0c0.299,0 0.542,-0.243 0.542,-0.542l0,-1.083Z" style="fill:#dedede;"/></g></g></g><path d="M579.89,216.987c0,-4.964 -4.031,-8.995 -8.995,-8.995l-421.284,0c-4.964,0 -8.995,4.031 -8.995,8.995l0,71.96c0,4.965 4.031,8.995 8.995,8.995l421.284,0c4.964,0 8.995,-4.03 8.995,-8.995l0,-71.96Z" style="fill:#fff;"/><path d="M571.011,207.993l0.116,0.002l0.115,0.004l0.116,0.005l0.114,0.006l0.115,0.008l0.114,0.01l0.113,0.01l0.113,0.013l0.113,0.013l0.112,0.015l0.112,0.017l0.111,0.017l0.111,0.02l0.111,0.02l0.11,0.022l0.109,0.023l0.109,0.025l0.109,0.025l0.108,0.027l0.107,0.029l0.107,0.029l0.107,0.031l0.106,0.033l0.105,0.033l0.105,0.035l0.104,0.036l0.103,0.037l0.103,0.039l0.103,0.039l0.102,0.041l0.101,0.042l0.1,0.044l0.1,0.044l0.1,0.046l0.098,0.047l0.098,0.048l0.098,0.049l0.096,0.05l0.096,0.051l0.095,0.053l0.095,0.053l0.094,0.055l0.093,0.056l0.092,0.057l0.092,0.058l0.091,0.059l0.09,0.06l0.089,0.061l0.089,0.062l0.087,0.064l0.087,0.064l0.087,0.065l0.085,0.067l0.085,0.067l0.083,0.068l0.083,0.069l0.082,0.071l0.081,0.071l0.081,0.072l0.079,0.073l0.079,0.074l0.077,0.075l0.077,0.076l0.076,0.077l0.075,0.077l0.074,0.079l0.073,0.079l0.072,0.081l0.071,0.081l0.071,0.082l0.069,0.083l0.068,0.083l0.067,0.085l0.067,0.085l0.065,0.087l0.064,0.087l0.064,0.087l0.062,0.089l0.061,0.089l0.06,0.09l0.059,0.091l0.058,0.092l0.057,0.092l0.056,0.093l0.055,0.094l0.053,0.095l0.053,0.095l0.051,0.096l0.05,0.097l0.049,0.097l0.048,0.098l0.047,0.098l0.046,0.1l0.044,0.1l0.044,0.1l0.042,0.101l0.041,0.102l0.039,0.103l0.039,0.103l0.037,0.103l0.036,0.104l0.035,0.105l0.033,0.105l0.033,0.106l0.031,0.107l0.029,0.107l0.029,0.107l0.027,0.108l0.026,0.109l0.024,0.109l0.023,0.109l0.022,0.11l0.02,0.111l0.02,0.111l0.017,0.111l0.017,0.112l0.015,0.112l0.013,0.113l0.013,0.113l0.01,0.113l0.01,0.114l0.008,0.115l0.006,0.114l0.005,0.116l0.004,0.115l0.002,0.116l0.001,0.116l0,71.96l-0.001,0.117l-0.002,0.115l-0.004,0.116l-0.005,0.115l-0.006,0.115l-0.008,0.114l-0.01,0.114l-0.01,0.114l-0.013,0.113l-0.013,0.112l-0.015,0.113l-0.017,0.111l-0.017,0.112l-0.02,0.111l-0.02,0.11l-0.022,0.11l-0.023,0.11l-0.024,0.109l-0.026,0.108l-0.027,0.108l-0.029,0.108l-0.029,0.107l-0.031,0.106l-0.033,0.106l-0.033,0.105l-0.035,0.105l-0.036,0.104l-0.037,0.104l-0.039,0.103l-0.039,0.102l-0.041,0.102l-0.042,0.101l-0.044,0.101l-0.044,0.1l-0.046,0.099l-0.047,0.099l-0.048,0.098l-0.049,0.097l-0.05,0.097l-0.051,0.096l-0.053,0.095l-0.053,0.094l-0.055,0.094l-0.056,0.093l-0.057,0.093l-0.058,0.091l-0.059,0.091l-0.06,0.09l-0.061,0.09l-0.062,0.088l-0.064,0.088l-0.064,0.087l-0.065,0.086l-0.067,0.085l-0.067,0.085l-0.068,0.084l-0.069,0.083l-0.071,0.082l-0.071,0.081l-0.072,0.08l-0.073,0.08l-0.074,0.078l-0.075,0.078l-0.076,0.077l-0.077,0.075l-0.077,0.075l-0.079,0.074l-0.079,0.074l-0.081,0.072l-0.081,0.071l-0.082,0.07l-0.083,0.069l-0.083,0.069l-0.085,0.067l-0.085,0.066l-0.087,0.065l-0.087,0.065l-0.087,0.063l-0.089,0.062l-0.089,0.061l-0.09,0.06l-0.091,0.06l-0.092,0.058l-0.092,0.056l-0.093,0.056l-0.094,0.055l-0.095,0.054l-0.095,0.052l-0.096,0.052l-0.096,0.05l-0.098,0.049l-0.098,0.048l-0.098,0.047l-0.1,0.045l-0.1,0.045l-0.1,0.043l-0.101,0.042l-0.102,0.041l-0.103,0.04l-0.103,0.038l-0.103,0.038l-0.104,0.036l-0.105,0.034l-0.105,0.034l-0.106,0.032l-0.107,0.031l-0.107,0.03l-0.107,0.028l-0.108,0.027l-0.109,0.026l-0.109,0.024l-0.109,0.024l-0.11,0.021l-0.111,0.021l-0.111,0.019l-0.111,0.018l-0.112,0.016l-0.112,0.015l-0.113,0.014l-0.113,0.012l-0.113,0.011l-0.114,0.009l-0.115,0.008l-0.114,0.007l-0.116,0.005l-0.115,0.004l-0.116,0.002l-0.116,0l-421.284,0l-0.116,0l-0.116,-0.002l-0.115,-0.004l-0.115,-0.005l-0.115,-0.007l-0.115,-0.008l-0.113,-0.009l-0.114,-0.011l-0.113,-0.012l-0.113,-0.014l-0.112,-0.015l-0.112,-0.016l-0.111,-0.018l-0.111,-0.019l-0.111,-0.021l-0.11,-0.021l-0.109,-0.024l-0.109,-0.024l-0.109,-0.026l-0.108,-0.027l-0.107,-0.028l-0.107,-0.03l-0.107,-0.031l-0.106,-0.032l-0.105,-0.034l-0.105,-0.034l-0.104,-0.036l-0.103,-0.038l-0.103,-0.038l-0.103,-0.04l-0.102,-0.041l-0.101,-0.042l-0.1,-0.043l-0.1,-0.045l-0.1,-0.045l-0.098,-0.047l-0.098,-0.048l-0.097,-0.049l-0.097,-0.05l-0.096,-0.052l-0.095,-0.052l-0.095,-0.054l-0.094,-0.055l-0.093,-0.056l-0.092,-0.056l-0.092,-0.058l-0.091,-0.06l-0.09,-0.06l-0.089,-0.061l-0.089,-0.062l-0.087,-0.063l-0.087,-0.065l-0.087,-0.065l-0.085,-0.066l-0.084,-0.067l-0.084,-0.069l-0.083,-0.069l-0.082,-0.07l-0.081,-0.071l-0.081,-0.072l-0.079,-0.074l-0.079,-0.074l-0.077,-0.075l-0.077,-0.075l-0.076,-0.077l-0.075,-0.078l-0.074,-0.078l-0.073,-0.08l-0.072,-0.08l-0.071,-0.081l-0.071,-0.082l-0.069,-0.083l-0.068,-0.084l-0.067,-0.085l-0.067,-0.085l-0.065,-0.086l-0.064,-0.087l-0.063,-0.088l-0.063,-0.088l-0.061,-0.09l-0.06,-0.09l-0.059,-0.091l-0.058,-0.091l-0.057,-0.093l-0.056,-0.093l-0.054,-0.094l-0.054,-0.094l-0.053,-0.095l-0.051,-0.096l-0.05,-0.097l-0.049,-0.097l-0.048,-0.098l-0.047,-0.099l-0.046,-0.099l-0.044,-0.1l-0.044,-0.101l-0.042,-0.101l-0.041,-0.102l-0.039,-0.102l-0.039,-0.103l-0.037,-0.104l-0.036,-0.104l-0.035,-0.105l-0.033,-0.105l-0.032,-0.106l-0.031,-0.106l-0.03,-0.107l-0.029,-0.108l-0.027,-0.108l-0.025,-0.108l-0.025,-0.109l-0.023,-0.11l-0.022,-0.11l-0.02,-0.11l-0.019,-0.111l-0.018,-0.112l-0.017,-0.111l-0.015,-0.113l-0.013,-0.112l-0.012,-0.113l-0.011,-0.114l-0.01,-0.114l-0.008,-0.114l-0.006,-0.115l-0.005,-0.115l-0.004,-0.116l-0.002,-0.115l-0.001,-0.117l0,-71.96l0.001,-0.116l0.002,-0.116l0.004,-0.115l0.005,-0.116l0.006,-0.114l0.008,-0.115l0.01,-0.114l0.011,-0.113l0.012,-0.113l0.013,-0.113l0.015,-0.112l0.017,-0.112l0.018,-0.111l0.019,-0.111l0.02,-0.111l0.022,-0.11l0.023,-0.109l0.025,-0.109l0.025,-0.109l0.027,-0.108l0.029,-0.107l0.03,-0.107l0.031,-0.107l0.032,-0.106l0.033,-0.105l0.035,-0.105l0.036,-0.104l0.037,-0.103l0.039,-0.103l0.039,-0.103l0.041,-0.102l0.042,-0.101l0.044,-0.1l0.044,-0.1l0.046,-0.1l0.047,-0.098l0.048,-0.098l0.049,-0.097l0.05,-0.097l0.051,-0.096l0.053,-0.095l0.054,-0.095l0.054,-0.094l0.056,-0.093l0.057,-0.092l0.058,-0.092l0.059,-0.091l0.06,-0.09l0.061,-0.089l0.063,-0.089l0.063,-0.087l0.064,-0.087l0.065,-0.087l0.067,-0.085l0.067,-0.085l0.068,-0.083l0.069,-0.083l0.071,-0.082l0.071,-0.081l0.072,-0.081l0.073,-0.079l0.074,-0.079l0.075,-0.077l0.076,-0.077l0.077,-0.076l0.077,-0.075l0.079,-0.074l0.079,-0.073l0.081,-0.072l0.081,-0.071l0.082,-0.071l0.083,-0.069l0.084,-0.068l0.084,-0.067l0.085,-0.067l0.087,-0.065l0.087,-0.064l0.087,-0.064l0.089,-0.062l0.089,-0.061l0.09,-0.06l0.091,-0.059l0.092,-0.058l0.092,-0.057l0.093,-0.056l0.094,-0.055l0.095,-0.053l0.095,-0.053l0.096,-0.051l0.097,-0.05l0.097,-0.049l0.098,-0.048l0.098,-0.047l0.1,-0.046l0.1,-0.044l0.1,-0.044l0.101,-0.042l0.102,-0.041l0.103,-0.039l0.103,-0.039l0.103,-0.037l0.104,-0.036l0.105,-0.035l0.105,-0.033l0.106,-0.033l0.107,-0.031l0.107,-0.029l0.107,-0.029l0.108,-0.027l0.109,-0.025l0.109,-0.025l0.109,-0.023l0.11,-0.022l0.111,-0.02l0.111,-0.02l0.111,-0.017l0.112,-0.017l0.112,-0.015l0.113,-0.013l0.113,-0.013l0.114,-0.01l0.113,-0.01l0.115,-0.008l0.115,-0.006l0.115,-0.005l0.115,-0.004l0.116,-0.002l0.116,-0.001l421.284,0l0.116,0.001Zm-421.393,1.999l-0.097,0.001l-0.09,0.001l-0.09,0.003l-0.093,0.004l-0.088,0.005l-0.086,0.006l-0.091,0.008l-0.087,0.008l-0.088,0.01l-0.089,0.01l-0.087,0.012l-0.089,0.013l-0.084,0.013l-0.086,0.015l-0.091,0.017l-0.081,0.016l-0.086,0.018l-0.088,0.02l-0.079,0.019l-0.078,0.02l-0.092,0.024l-0.087,0.024l-0.078,0.022l-0.078,0.024l-0.083,0.027l-0.083,0.027l-0.076,0.027l-0.084,0.03l-0.081,0.03l-0.085,0.033l-0.075,0.03l-0.072,0.03l-0.081,0.035l-0.081,0.036l-0.084,0.039l-0.071,0.033l-0.069,0.034l-0.079,0.04l-0.08,0.042l-0.07,0.036l-0.066,0.038l-0.078,0.044l-0.079,0.046l-0.079,0.047l-0.065,0.04l-0.065,0.041l-0.077,0.05l-0.076,0.051l-0.064,0.043l-0.062,0.044l-0.076,0.055l-0.059,0.043l-0.073,0.057l-0.076,0.058l-0.06,0.047l-0.059,0.048l-0.056,0.048l-0.071,0.061l-0.071,0.063l-0.058,0.051l-0.068,0.064l-0.057,0.051l-0.052,0.053l-0.069,0.067l-0.053,0.054l-0.068,0.07l-0.052,0.054l-0.05,0.056l-0.065,0.072l-0.064,0.073l-0.051,0.058l-0.049,0.059l-0.048,0.059l-0.046,0.059l-0.059,0.077l-0.061,0.079l-0.046,0.062l-0.044,0.062l-0.059,0.082l-0.043,0.063l-0.042,0.063l-0.042,0.065l-0.052,0.085l-0.042,0.065l-0.038,0.066l-0.053,0.089l-0.038,0.066l-0.037,0.068l-0.036,0.069l-0.047,0.091l-0.036,0.07l-0.034,0.07l-0.044,0.093l-0.034,0.072l-0.031,0.072l-0.042,0.096l-0.032,0.073l-0.019,0.049l-0.037,0.099l-0.039,0.099l-0.018,0.05l-0.025,0.076l-0.033,0.101l-0.025,0.077l-0.023,0.077l-0.03,0.104l-0.023,0.079l-0.014,0.052l-0.024,0.105l-0.028,0.107l-0.012,0.054l-0.017,0.081l-0.021,0.108l-0.016,0.083l-0.01,0.055l-0.015,0.111l-0.014,0.083l-0.01,0.084l-0.015,0.112l-0.007,0.058l-0.007,0.086l-0.009,0.113l-0.007,0.087l-0.003,0.06l-0.004,0.115l-0.004,0.088l0,0.089l-0.003,0.116l0,71.907l0.003,0.116l0,0.088l0.004,0.089l0.004,0.114l0.003,0.061l0.007,0.086l0.009,0.114l0.007,0.086l0.007,0.057l0.015,0.112l0.01,0.084l0.014,0.084l0.015,0.11l0.009,0.056l0.017,0.082l0.021,0.108l0.017,0.081l0.012,0.054l0.028,0.107l0.024,0.105l0.014,0.053l0.023,0.078l0.03,0.104l0.023,0.078l0.025,0.076l0.033,0.102l0.025,0.075l0.018,0.051l0.04,0.099l0.036,0.099l0.019,0.048l0.032,0.074l0.042,0.096l0.031,0.072l0.034,0.071l0.044,0.093l0.034,0.071l0.036,0.069l0.047,0.091l0.036,0.069l0.037,0.068l0.038,0.067l0.053,0.088l0.038,0.066l0.042,0.065l0.052,0.085l0.042,0.065l0.042,0.064l0.044,0.063l0.058,0.082l0.044,0.062l0.046,0.061l0.06,0.079l0.06,0.078l0.046,0.059l0.048,0.059l0.048,0.058l0.052,0.058l0.064,0.073l0.065,0.072l0.05,0.056l0.053,0.055l0.067,0.07l0.052,0.053l0.07,0.067l0.052,0.053l0.057,0.052l0.068,0.064l0.058,0.051l0.072,0.063l0.07,0.06l0.056,0.049l0.059,0.047l0.06,0.048l0.076,0.058l0.072,0.055l0.062,0.045l0.074,0.054l0.061,0.043l0.065,0.044l0.078,0.052l0.075,0.049l0.064,0.041l0.068,0.041l0.077,0.046l0.078,0.046l0.079,0.045l0.066,0.037l0.07,0.037l0.08,0.041l0.079,0.041l0.07,0.034l0.07,0.033l0.082,0.038l0.084,0.037l0.08,0.035l0.072,0.03l0.075,0.03l0.083,0.031l0.083,0.031l0.084,0.031l0.076,0.026l0.083,0.028l0.083,0.026l0.078,0.024l0.078,0.023l0.087,0.023l0.092,0.025l0.078,0.02l0.079,0.019l0.088,0.019l0.088,0.019l0.079,0.016l0.089,0.016l0.088,0.015l0.084,0.013l0.089,0.013l0.089,0.012l0.087,0.011l0.088,0.009l0.087,0.009l0.09,0.007l0.087,0.006l0.088,0.005l0.093,0.004l0.09,0.003l0.09,0.002l0.097,0l421.271,0l0.097,0l0.09,-0.002l0.091,-0.003l0.09,-0.004l0.088,-0.005l0.092,-0.006l0.087,-0.007l0.087,-0.009l0.088,-0.009l0.087,-0.011l0.089,-0.012l0.085,-0.012l0.086,-0.014l0.09,-0.015l0.086,-0.016l0.088,-0.017l0.076,-0.017l0.085,-0.019l0.092,-0.022l0.081,-0.02l0.078,-0.021l0.084,-0.023l0.085,-0.025l0.087,-0.026l0.085,-0.027l0.075,-0.025l0.076,-0.026l0.084,-0.031l0.083,-0.031l0.073,-0.028l0.082,-0.033l0.085,-0.035l0.07,-0.03l0.084,-0.037l0.071,-0.033l0.078,-0.038l0.084,-0.04l0.069,-0.035l0.067,-0.035l0.079,-0.043l0.081,-0.044l0.067,-0.038l0.078,-0.046l0.065,-0.038l0.077,-0.049l0.08,-0.049l0.062,-0.041l0.065,-0.043l0.075,-0.052l0.078,-0.053l0.046,-0.034l0.073,-0.056l0.075,-0.056l0.059,-0.046l0.074,-0.059l0.073,-0.059l0.059,-0.049l0.056,-0.048l0.072,-0.063l0.058,-0.051l0.054,-0.051l0.069,-0.065l0.069,-0.067l0.055,-0.053l0.052,-0.053l0.067,-0.07l0.053,-0.055l0.05,-0.056l0.065,-0.072l0.05,-0.057l0.063,-0.074l0.05,-0.058l0.046,-0.058l0.063,-0.078l0.046,-0.06l0.06,-0.079l0.046,-0.061l0.044,-0.062l0.044,-0.063l0.055,-0.082l0.044,-0.064l0.04,-0.064l0.056,-0.086l0.039,-0.065l0.053,-0.087l0.04,-0.067l0.038,-0.067l0.038,-0.068l0.036,-0.069l0.047,-0.091l0.035,-0.069l0.034,-0.071l0.044,-0.093l0.034,-0.071l0.032,-0.072l0.031,-0.072l0.029,-0.073l0.039,-0.098l0.03,-0.074l0.027,-0.074l0.036,-0.101l0.027,-0.076l0.025,-0.076l0.025,-0.076l0.023,-0.078l0.023,-0.078l0.02,-0.078l0.028,-0.105l0.021,-0.079l0.018,-0.08l0.025,-0.107l0.018,-0.081l0.011,-0.055l0.014,-0.082l0.018,-0.109l0.015,-0.084l0.011,-0.084l0.012,-0.084l0.009,-0.084l0.013,-0.113l0.009,-0.085l0.005,-0.06l0.005,-0.086l0.006,-0.115l0.005,-0.087l0.002,-0.088l0.003,-0.089l0,-72.139l-0.003,-0.089l-0.002,-0.088l-0.005,-0.088l-0.006,-0.114l-0.005,-0.087l-0.005,-0.059l-0.009,-0.086l-0.013,-0.112l-0.009,-0.085l-0.012,-0.084l-0.011,-0.083l-0.014,-0.084l-0.019,-0.109l-0.014,-0.082l-0.011,-0.055l-0.018,-0.081l-0.025,-0.107l-0.018,-0.08l-0.021,-0.08l-0.027,-0.104l-0.021,-0.079l-0.023,-0.078l-0.023,-0.077l-0.025,-0.077l-0.025,-0.076l-0.027,-0.076l-0.036,-0.1l-0.027,-0.074l-0.03,-0.075l-0.039,-0.098l-0.029,-0.072l-0.031,-0.072l-0.032,-0.072l-0.034,-0.072l-0.044,-0.093l-0.033,-0.07l-0.036,-0.07l-0.048,-0.091l-0.035,-0.069l-0.038,-0.068l-0.038,-0.066l-0.04,-0.067l-0.053,-0.088l-0.039,-0.065l-0.056,-0.085l-0.04,-0.065l-0.044,-0.063l-0.054,-0.082l-0.045,-0.063l-0.044,-0.062l-0.046,-0.062l-0.06,-0.079l-0.046,-0.059l-0.063,-0.077l-0.046,-0.059l-0.051,-0.059l-0.062,-0.074l-0.05,-0.057l-0.065,-0.072l-0.05,-0.056l-0.052,-0.054l-0.068,-0.07l-0.053,-0.054l-0.054,-0.053l-0.069,-0.067l-0.069,-0.065l-0.054,-0.05l-0.058,-0.051l-0.071,-0.063l-0.056,-0.049l-0.06,-0.048l-0.073,-0.06l-0.074,-0.058l-0.059,-0.047l-0.076,-0.057l-0.07,-0.053l-0.048,-0.035l-0.079,-0.054l-0.074,-0.052l-0.063,-0.042l-0.064,-0.041l-0.081,-0.05l-0.075,-0.048l-0.066,-0.039l-0.079,-0.046l-0.066,-0.037l-0.081,-0.045l-0.079,-0.043l-0.067,-0.035l-0.069,-0.035l-0.082,-0.039l-0.08,-0.039l-0.073,-0.033l-0.08,-0.036l-0.072,-0.031l-0.085,-0.034l-0.082,-0.034l-0.074,-0.029l-0.082,-0.03l-0.084,-0.03l-0.076,-0.027l-0.075,-0.024l-0.085,-0.027l-0.087,-0.027l-0.085,-0.025l-0.084,-0.023l-0.078,-0.021l-0.081,-0.02l-0.092,-0.022l-0.085,-0.019l-0.075,-0.016l-0.089,-0.017l-0.088,-0.017l-0.088,-0.015l-0.086,-0.014l-0.085,-0.012l-0.087,-0.012l-0.089,-0.01l-0.088,-0.01l-0.087,-0.008l-0.089,-0.008l-0.09,-0.006l-0.088,-0.005l-0.09,-0.004l-0.091,-0.003l-0.09,-0.001l-0.097,-0.001l-421.271,0Z" style="fill:#dedede;"/><path d="M156.673,75.349c-0.682,0 -1.236,0.554 -1.236,1.236l0,236.092c0,0.682 0.554,1.236 1.236,1.236c0.683,0 1.237,-0.554 1.237,-1.236l0,-236.092c0,-0.682 -0.554,-1.236 -1.237,-1.236Z" style="fill:#dedede;"/><circle cx="156.673" cy="252.967" r="7.7" style="fill:#3956e8;"/><path d="M156.791,243.768l0.117,0.003l0.121,0.003l0.119,0.006l0.115,0.006l0.116,0.008l0.118,0.01l0.113,0.011l0.118,0.012l0.115,0.015l0.113,0.015l0.115,0.017l0.113,0.018l0.113,0.019l0.112,0.021l0.118,0.023l0.115,0.024l0.109,0.025l0.109,0.026l0.109,0.027l0.109,0.029l0.107,0.03l0.116,0.033l0.112,0.035l0.104,0.033l0.104,0.034l0.106,0.037l0.104,0.037l0.111,0.041l0.101,0.04l0.104,0.04l0.109,0.046l0.11,0.047l0.096,0.044l0.099,0.045l0.095,0.046l0.1,0.048l0.105,0.053l0.106,0.055l0.092,0.05l0.095,0.052l0.103,0.058l0.09,0.053l0.092,0.055l0.102,0.062l0.1,0.064l0.086,0.057l0.087,0.058l0.088,0.06l0.098,0.068l0.095,0.069l0.083,0.062l0.083,0.063l0.082,0.063l0.095,0.074l0.091,0.075l0.079,0.066l0.091,0.077l0.075,0.068l0.078,0.067l0.101,0.094l0.071,0.07l0.074,0.069l0.084,0.085l0.071,0.072l0.069,0.072l0.085,0.087l0.079,0.088l0.066,0.074l0.068,0.076l0.078,0.09l0.076,0.091l0.076,0.093l0.059,0.077l0.063,0.079l0.072,0.096l0.071,0.095l0.056,0.081l0.059,0.08l0.079,0.116l0.053,0.082l0.055,0.082l0.063,0.101l0.064,0.102l0.049,0.084l0.063,0.103l0.055,0.104l0.049,0.086l0.055,0.105l0.045,0.086l0.056,0.108l0.051,0.107l0.041,0.088l0.052,0.109l0.047,0.109l0.038,0.089l0.048,0.111l0.043,0.111l0.035,0.091l0.043,0.111l0.032,0.092l0.043,0.114l0.042,0.135l0.028,0.093l0.028,0.093l0.036,0.115l0.031,0.116l0.025,0.094l0.031,0.117l0.027,0.117l0.028,0.118l0.023,0.118l0.018,0.095l0.024,0.119l0.019,0.119l0.016,0.097l0.019,0.119l0.015,0.121l0.016,0.121l0.011,0.12l0.01,0.098l0.011,0.121l0.008,0.122l0.007,0.122l0.004,0.122l0.003,0.099l0.004,0.122l0,0.246l-0.004,0.123l-0.003,0.098l-0.004,0.123l-0.007,0.121l-0.008,0.122l-0.011,0.122l-0.01,0.097l-0.011,0.121l-0.016,0.121l-0.015,0.12l-0.019,0.12l-0.016,0.096l-0.019,0.12l-0.024,0.118l-0.018,0.096l-0.023,0.118l-0.028,0.118l-0.027,0.117l-0.031,0.116l-0.025,0.095l-0.031,0.116l-0.036,0.115l-0.028,0.092l-0.028,0.093l-0.042,0.136l-0.043,0.113l-0.032,0.092l-0.043,0.112l-0.035,0.09l-0.043,0.112l-0.048,0.11l-0.038,0.09l-0.047,0.109l-0.052,0.109l-0.041,0.088l-0.051,0.107l-0.056,0.107l-0.045,0.086l-0.055,0.106l-0.049,0.085l-0.055,0.104l-0.063,0.104l-0.049,0.083l-0.064,0.102l-0.063,0.101l-0.055,0.082l-0.053,0.083l-0.079,0.115l-0.059,0.081l-0.056,0.08l-0.071,0.096l-0.072,0.095l-0.063,0.079l-0.059,0.077l-0.076,0.093l-0.076,0.092l-0.078,0.09l-0.068,0.076l-0.066,0.074l-0.079,0.088l-0.085,0.087l-0.069,0.072l-0.071,0.072l-0.084,0.084l-0.074,0.07l-0.071,0.07l-0.101,0.093l-0.078,0.068l-0.075,0.067l-0.091,0.078l-0.079,0.065l-0.091,0.075l-0.095,0.074l-0.082,0.064l-0.083,0.062l-0.083,0.062l-0.095,0.07l-0.098,0.068l-0.088,0.059l-0.087,0.058l-0.086,0.057l-0.1,0.064l-0.102,0.063l-0.092,0.054l-0.09,0.053l-0.103,0.059l-0.095,0.051l-0.092,0.051l-0.106,0.054l-0.105,0.054l-0.1,0.047l-0.095,0.046l-0.099,0.045l-0.096,0.044l-0.11,0.047l-0.109,0.046l-0.104,0.041l-0.101,0.039l-0.111,0.041l-0.104,0.038l-0.106,0.036l-0.104,0.035l-0.104,0.033l-0.112,0.035l-0.115,0.032l-0.108,0.03l-0.11,0.029l-0.108,0.027l-0.109,0.026l-0.109,0.025l-0.115,0.025l-0.118,0.023l-0.112,0.021l-0.113,0.019l-0.113,0.018l-0.115,0.017l-0.113,0.015l-0.115,0.014l-0.118,0.012l-0.113,0.011l-0.118,0.01l-0.116,0.008l-0.115,0.007l-0.119,0.005l-0.121,0.004l-0.117,0.002l-0.118,0.001l-0.117,-0.001l-0.12,-0.002l-0.118,-0.004l-0.118,-0.005l-0.119,-0.007l-0.115,-0.008l-0.114,-0.009l-0.118,-0.012l-0.117,-0.012l-0.113,-0.014l-0.11,-0.015l-0.118,-0.017l-0.12,-0.019l-0.11,-0.019l-0.109,-0.02l-0.117,-0.023l-0.115,-0.025l-0.104,-0.023l-0.111,-0.026l-0.12,-0.03l-0.108,-0.029l-0.101,-0.029l-0.115,-0.032l-0.113,-0.035l-0.096,-0.031l-0.115,-0.037l-0.11,-0.039l-0.096,-0.035l-0.111,-0.041l-0.101,-0.039l-0.104,-0.041l-0.109,-0.046l-0.11,-0.047l-0.096,-0.044l-0.089,-0.04l-0.109,-0.051l-0.106,-0.052l-0.096,-0.049l-0.105,-0.054l-0.092,-0.051l-0.096,-0.051l-0.102,-0.059l-0.09,-0.053l-0.092,-0.054l-0.103,-0.063l-0.099,-0.064l-0.087,-0.057l-0.086,-0.058l-0.088,-0.059l-0.098,-0.068l-0.095,-0.07l-0.083,-0.062l-0.083,-0.062l-0.082,-0.064l-0.095,-0.074l-0.092,-0.075l-0.078,-0.065l-0.091,-0.078l-0.075,-0.067l-0.078,-0.068l-0.088,-0.082l-0.087,-0.081l-0.083,-0.082l-0.06,-0.06l-0.087,-0.084l-0.078,-0.085l-0.072,-0.074l-0.079,-0.088l-0.067,-0.074l-0.067,-0.076l-0.079,-0.09l-0.075,-0.092l-0.064,-0.078l-0.074,-0.092l-0.072,-0.095l-0.06,-0.079l-0.059,-0.079l-0.071,-0.097l-0.068,-0.098l-0.056,-0.081l-0.067,-0.1l-0.063,-0.099l-0.053,-0.084l-0.063,-0.102l-0.049,-0.083l-0.052,-0.085l-0.07,-0.123l-0.055,-0.104l-0.045,-0.087l-0.045,-0.086l-0.056,-0.107l-0.051,-0.107l-0.042,-0.088l-0.051,-0.109l-0.047,-0.109l-0.038,-0.09l-0.039,-0.089l-0.047,-0.112l-0.051,-0.133l-0.032,-0.09l-0.035,-0.091l-0.047,-0.136l-0.028,-0.092l-0.032,-0.093l-0.042,-0.137l-0.031,-0.115l-0.025,-0.093l-0.025,-0.095l-0.031,-0.116l-0.027,-0.117l-0.028,-0.118l-0.023,-0.118l-0.019,-0.096l-0.023,-0.118l-0.019,-0.12l-0.016,-0.096l-0.019,-0.12l-0.016,-0.12l-0.015,-0.121l-0.011,-0.121l-0.01,-0.097l-0.011,-0.122l-0.008,-0.122l-0.008,-0.121l-0.003,-0.123l-0.003,-0.098l-0.004,-0.123l0,-0.246l0.004,-0.122l0.003,-0.099l0.003,-0.122l0.008,-0.122l0.008,-0.122l0.011,-0.121l0.01,-0.098l0.011,-0.12l0.015,-0.121l0.016,-0.121l0.019,-0.119l0.016,-0.097l0.019,-0.119l0.023,-0.119l0.019,-0.095l0.023,-0.118l0.028,-0.118l0.027,-0.117l0.031,-0.117l0.025,-0.094l0.025,-0.094l0.031,-0.115l0.042,-0.137l0.032,-0.093l0.028,-0.092l0.047,-0.135l0.035,-0.091l0.032,-0.091l0.051,-0.133l0.047,-0.111l0.039,-0.09l0.038,-0.089l0.047,-0.109l0.051,-0.109l0.042,-0.088l0.051,-0.107l0.056,-0.108l0.045,-0.086l0.045,-0.086l0.055,-0.105l0.07,-0.122l0.052,-0.085l0.049,-0.084l0.063,-0.102l0.053,-0.083l0.063,-0.1l0.067,-0.099l0.056,-0.082l0.068,-0.098l0.071,-0.096l0.059,-0.079l0.06,-0.08l0.072,-0.095l0.074,-0.092l0.064,-0.078l0.075,-0.091l0.079,-0.09l0.067,-0.076l0.067,-0.074l0.079,-0.088l0.072,-0.074l0.078,-0.085l0.087,-0.085l0.06,-0.059l0.083,-0.082l0.087,-0.082l0.088,-0.082l0.078,-0.067l0.075,-0.068l0.091,-0.077l0.078,-0.066l0.092,-0.075l0.095,-0.074l0.082,-0.063l0.083,-0.063l0.083,-0.062l0.095,-0.069l0.098,-0.068l0.088,-0.06l0.086,-0.058l0.087,-0.057l0.099,-0.064l0.103,-0.062l0.092,-0.055l0.09,-0.053l0.102,-0.058l0.096,-0.052l0.092,-0.05l0.105,-0.055l0.096,-0.048l0.106,-0.053l0.109,-0.05l0.089,-0.041l0.096,-0.044l0.11,-0.047l0.109,-0.046l0.104,-0.04l0.101,-0.04l0.111,-0.041l0.096,-0.034l0.11,-0.039l0.115,-0.037l0.096,-0.031l0.113,-0.035l0.116,-0.033l0.1,-0.028l0.107,-0.029l0.121,-0.03l0.111,-0.026l0.104,-0.024l0.115,-0.024l0.117,-0.023l0.109,-0.02l0.11,-0.02l0.12,-0.019l0.118,-0.017l0.11,-0.014l0.113,-0.014l0.117,-0.013l0.118,-0.011l0.114,-0.009l0.115,-0.009l0.119,-0.007l0.118,-0.005l0.118,-0.003l0.12,-0.003l0.117,0l0.118,0Zm-0.198,3l-0.082,0.002l-0.079,0.002l-0.08,0.004l-0.078,0.004l-0.076,0.006l-0.083,0.006l-0.079,0.008l-0.074,0.008l-0.077,0.009l-0.082,0.011l-0.079,0.012l-0.071,0.011l-0.075,0.013l-0.082,0.015l-0.074,0.015l-0.07,0.015l-0.08,0.018l-0.08,0.018l-0.064,0.016l-0.072,0.02l-0.084,0.023l-0.069,0.02l-0.066,0.02l-0.083,0.027l-0.069,0.022l-0.063,0.023l-0.082,0.029l-0.068,0.025l-0.072,0.028l-0.074,0.029l-0.064,0.027l-0.062,0.027l-0.071,0.032l-0.083,0.038l-0.064,0.029l-0.059,0.03l-0.071,0.036l-0.061,0.031l-0.068,0.038l-0.071,0.038l-0.058,0.033l-0.07,0.041l-0.068,0.041l-0.058,0.035l-0.055,0.035l-0.067,0.044l-0.067,0.045l-0.066,0.045l-0.056,0.039l-0.053,0.039l-0.065,0.048l-0.065,0.049l-0.065,0.05l-0.053,0.041l-0.051,0.042l-0.063,0.053l-0.05,0.043l-0.061,0.054l-0.064,0.056l-0.047,0.043l-0.048,0.046l-0.047,0.046l-0.07,0.07l-0.048,0.047l-0.045,0.048l-0.058,0.061l-0.043,0.048l-0.057,0.063l-0.056,0.063l-0.045,0.051l-0.041,0.05l-0.054,0.066l-0.042,0.052l-0.039,0.052l-0.051,0.067l-0.052,0.07l-0.04,0.054l-0.037,0.054l-0.049,0.071l-0.037,0.055l-0.035,0.056l-0.047,0.074l-0.035,0.056l-0.043,0.075l-0.047,0.076l-0.022,0.04l-0.031,0.058l-0.041,0.078l-0.041,0.079l-0.031,0.059l-0.029,0.061l-0.038,0.081l-0.029,0.061l-0.027,0.062l-0.036,0.083l-0.035,0.083l-0.027,0.063l-0.016,0.042l-0.03,0.087l-0.033,0.085l-0.015,0.043l-0.027,0.088l-0.03,0.087l-0.013,0.045l-0.019,0.066l-0.024,0.09l-0.024,0.09l-0.018,0.068l-0.016,0.069l-0.016,0.068l-0.013,0.07l-0.019,0.093l-0.013,0.07l-0.012,0.07l-0.015,0.095l-0.012,0.072l-0.009,0.071l-0.009,0.073l-0.007,0.073l-0.009,0.097l-0.007,0.073l-0.005,0.074l-0.004,0.075l-0.003,0.075l-0.003,0.098l-0.002,0.076l0,0.152l0.002,0.076l0.003,0.099l0.003,0.075l0.004,0.074l0.005,0.074l0.007,0.074l0.009,0.097l0.007,0.073l0.009,0.072l0.009,0.072l0.012,0.071l0.015,0.095l0.012,0.07l0.013,0.071l0.019,0.093l0.013,0.069l0.016,0.069l0.016,0.068l0.018,0.069l0.024,0.089l0.024,0.09l0.019,0.067l0.013,0.044l0.03,0.088l0.027,0.087l0.015,0.043l0.033,0.086l0.03,0.086l0.016,0.042l0.027,0.064l0.035,0.083l0.036,0.083l0.027,0.061l0.029,0.062l0.038,0.08l0.029,0.061l0.031,0.06l0.041,0.078l0.041,0.079l0.031,0.058l0.022,0.04l0.047,0.075l0.043,0.076l0.035,0.056l0.047,0.073l0.035,0.056l0.037,0.055l0.049,0.071l0.037,0.054l0.04,0.054l0.052,0.07l0.051,0.068l0.039,0.051l0.042,0.053l0.054,0.065l0.041,0.05l0.045,0.051l0.056,0.063l0.057,0.064l0.043,0.048l0.058,0.06l0.045,0.048l0.048,0.047l0.07,0.07l0.047,0.047l0.048,0.045l0.047,0.043l0.064,0.056l0.061,0.055l0.05,0.042l0.063,0.053l0.051,0.042l0.053,0.041l0.065,0.05l0.065,0.049l0.065,0.049l0.053,0.038l0.056,0.039l0.066,0.045l0.067,0.045l0.067,0.044l0.055,0.036l0.058,0.035l0.068,0.04l0.07,0.041l0.058,0.033l0.071,0.039l0.068,0.037l0.061,0.032l0.071,0.035l0.059,0.03l0.064,0.03l0.083,0.037l0.071,0.033l0.062,0.027l0.064,0.026l0.074,0.029l0.072,0.028l0.068,0.025l0.082,0.03l0.063,0.022l0.069,0.022l0.083,0.027l0.066,0.02l0.07,0.02l0.083,0.024l0.071,0.019l0.065,0.016l0.08,0.019l0.08,0.018l0.07,0.015l0.074,0.014l0.082,0.015l0.075,0.014l0.071,0.011l0.079,0.011l0.082,0.011l0.077,0.01l0.074,0.008l0.079,0.007l0.083,0.007l0.076,0.005l0.078,0.005l0.08,0.003l0.079,0.003l0.082,0.001l0.08,0.001l0.08,-0.001l0.08,-0.001l0.083,-0.003l0.077,-0.003l0.077,-0.005l0.081,-0.005l0.079,-0.007l0.078,-0.007l0.079,-0.009l0.075,-0.009l0.078,-0.01l0.077,-0.012l0.078,-0.012l0.078,-0.013l0.078,-0.015l0.073,-0.014l0.071,-0.015l0.075,-0.017l0.076,-0.019l0.077,-0.019l0.074,-0.019l0.077,-0.022l0.07,-0.02l0.066,-0.02l0.076,-0.024l0.074,-0.025l0.073,-0.025l0.074,-0.027l0.068,-0.025l0.071,-0.028l0.075,-0.029l0.063,-0.026l0.063,-0.027l0.07,-0.033l0.074,-0.033l0.071,-0.034l0.072,-0.034l0.061,-0.031l0.061,-0.032l0.068,-0.037l0.071,-0.039l0.058,-0.033l0.069,-0.041l0.069,-0.04l0.058,-0.035l0.054,-0.036l0.068,-0.044l0.067,-0.045l0.066,-0.045l0.056,-0.039l0.053,-0.038l0.065,-0.049l0.065,-0.049l0.065,-0.05l0.053,-0.041l0.05,-0.042l0.064,-0.053l0.05,-0.042l0.061,-0.055l0.064,-0.056l0.034,-0.031l0.058,-0.057l0.062,-0.059l0.045,-0.045l0.059,-0.06l0.059,-0.061l0.046,-0.047l0.043,-0.048l0.057,-0.064l0.056,-0.063l0.045,-0.051l0.041,-0.05l0.041,-0.05l0.052,-0.068l0.054,-0.067l0.039,-0.052l0.04,-0.054l0.048,-0.07l0.052,-0.07l0.026,-0.038l0.046,-0.072l0.049,-0.073l0.035,-0.056l0.035,-0.056l0.044,-0.076l0.035,-0.057l0.031,-0.058l0.044,-0.078l0.031,-0.059l0.041,-0.078l0.031,-0.06l0.029,-0.061l0.038,-0.08l0.029,-0.062l0.027,-0.061l0.035,-0.083l0.027,-0.063l0.024,-0.062l0.033,-0.086l0.025,-0.064l0.03,-0.086l0.025,-0.065l0.013,-0.043l0.027,-0.088l0.027,-0.089l0.02,-0.067l0.018,-0.067l0.025,-0.089l0.018,-0.069l0.016,-0.068l0.016,-0.069l0.013,-0.069l0.018,-0.093l0.014,-0.071l0.012,-0.07l0.015,-0.095l0.011,-0.071l0.01,-0.072l0.009,-0.072l0.007,-0.073l0.009,-0.097l0.007,-0.074l0.005,-0.074l0.004,-0.074l0.003,-0.075l0.003,-0.099l0.002,-0.076l0,-0.152l-0.002,-0.076l-0.003,-0.098l-0.003,-0.075l-0.004,-0.075l-0.005,-0.074l-0.007,-0.073l-0.009,-0.097l-0.007,-0.073l-0.009,-0.073l-0.01,-0.071l-0.011,-0.072l-0.015,-0.095l-0.012,-0.07l-0.014,-0.07l-0.018,-0.093l-0.013,-0.07l-0.016,-0.068l-0.016,-0.069l-0.018,-0.068l-0.025,-0.09l-0.018,-0.067l-0.02,-0.067l-0.027,-0.089l-0.027,-0.088l-0.013,-0.043l-0.025,-0.065l-0.03,-0.085l-0.025,-0.065l-0.033,-0.085l-0.024,-0.063l-0.027,-0.062l-0.035,-0.083l-0.027,-0.062l-0.029,-0.061l-0.038,-0.081l-0.029,-0.061l-0.031,-0.059l-0.041,-0.079l-0.031,-0.059l-0.044,-0.078l-0.031,-0.058l-0.035,-0.057l-0.044,-0.075l-0.035,-0.056l-0.035,-0.056l-0.049,-0.074l-0.046,-0.072l-0.026,-0.037l-0.052,-0.071l-0.048,-0.07l-0.04,-0.054l-0.039,-0.052l-0.054,-0.067l-0.052,-0.067l-0.041,-0.051l-0.041,-0.05l-0.045,-0.051l-0.056,-0.063l-0.057,-0.063l-0.043,-0.048l-0.046,-0.048l-0.059,-0.061l-0.059,-0.059l-0.045,-0.046l-0.062,-0.058l-0.058,-0.057l-0.034,-0.032l-0.064,-0.056l-0.061,-0.054l-0.05,-0.043l-0.064,-0.053l-0.05,-0.042l-0.053,-0.041l-0.065,-0.05l-0.065,-0.049l-0.065,-0.048l-0.053,-0.039l-0.056,-0.039l-0.066,-0.045l-0.067,-0.045l-0.068,-0.044l-0.054,-0.035l-0.058,-0.035l-0.069,-0.041l-0.069,-0.041l-0.058,-0.033l-0.071,-0.038l-0.068,-0.038l-0.061,-0.031l-0.061,-0.031l-0.072,-0.035l-0.071,-0.034l-0.074,-0.033l-0.07,-0.032l-0.063,-0.027l-0.063,-0.027l-0.075,-0.029l-0.071,-0.028l-0.068,-0.025l-0.074,-0.027l-0.073,-0.025l-0.074,-0.024l-0.076,-0.025l-0.066,-0.02l-0.069,-0.02l-0.078,-0.021l-0.076,-0.02l-0.075,-0.019l-0.076,-0.018l-0.075,-0.017l-0.071,-0.015l-0.073,-0.015l-0.078,-0.014l-0.078,-0.014l-0.078,-0.012l-0.077,-0.011l-0.078,-0.011l-0.075,-0.009l-0.079,-0.008l-0.078,-0.008l-0.079,-0.006l-0.081,-0.006l-0.077,-0.004l-0.077,-0.004l-0.083,-0.002l-0.08,-0.002l-0.08,0l-0.08,0Z" style="fill:#fff;"/><circle cx="156.673" cy="142.967" r="7.7" style="fill:#3956e8;"/><path d="M156.792,133.768l0.116,0.003l0.121,0.003l0.119,0.006l0.113,0.006l0.116,0.008l0.12,0.01l0.113,0.011l0.118,0.012l0.117,0.015l0.113,0.015l0.113,0.017l0.113,0.018l0.113,0.019l0.112,0.021l0.118,0.023l0.113,0.024l0.11,0.025l0.111,0.026l0.108,0.028l0.108,0.028l0.109,0.03l0.115,0.033l0.111,0.034l0.106,0.034l0.105,0.035l0.102,0.036l0.105,0.037l0.113,0.042l0.101,0.039l0.103,0.041l0.107,0.045l0.11,0.047l0.098,0.044l0.099,0.045l0.097,0.047l0.098,0.047l0.105,0.053l0.106,0.055l0.092,0.05l0.095,0.052l0.103,0.058l0.091,0.054l0.091,0.054l0.102,0.062l0.098,0.064l0.088,0.057l0.088,0.059l0.086,0.058l0.099,0.069l0.095,0.069l0.083,0.062l0.083,0.063l0.082,0.063l0.095,0.074l0.091,0.075l0.08,0.067l0.09,0.077l0.075,0.067l0.079,0.068l0.099,0.092l0.071,0.07l0.075,0.071l0.084,0.084l0.071,0.072l0.07,0.072l0.083,0.086l0.079,0.088l0.067,0.075l0.068,0.076l0.079,0.09l0.075,0.091l0.075,0.092l0.061,0.079l0.062,0.078l0.071,0.095l0.072,0.096l0.056,0.08l0.06,0.082l0.078,0.115l0.052,0.081l0.056,0.084l0.064,0.101l0.063,0.101l0.049,0.084l0.063,0.103l0.055,0.104l0.049,0.086l0.055,0.105l0.045,0.087l0.055,0.106l0.052,0.108l0.041,0.088l0.052,0.108l0.047,0.11l0.038,0.089l0.048,0.111l0.043,0.111l0.035,0.09l0.043,0.113l0.032,0.091l0.043,0.113l0.042,0.137l0.028,0.092l0.028,0.093l0.036,0.115l0.031,0.116l0.025,0.094l0.031,0.117l0.027,0.117l0.027,0.117l0.024,0.119l0.019,0.095l0.023,0.119l0.019,0.119l0.016,0.097l0.019,0.12l0.015,0.12l0.016,0.12l0.011,0.121l0.01,0.098l0.011,0.121l0.008,0.122l0.007,0.122l0.004,0.122l0.003,0.099l0.004,0.123l0,0.245l-0.004,0.122l-0.003,0.099l-0.004,0.123l-0.007,0.122l-0.008,0.121l-0.011,0.121l-0.01,0.098l-0.011,0.121l-0.016,0.121l-0.015,0.12l-0.019,0.12l-0.016,0.096l-0.019,0.12l-0.023,0.118l-0.019,0.095l-0.024,0.119l-0.027,0.118l-0.027,0.117l-0.031,0.117l-0.025,0.093l-0.031,0.116l-0.036,0.116l-0.028,0.093l-0.028,0.092l-0.042,0.136l-0.043,0.113l-0.032,0.092l-0.043,0.112l-0.035,0.09l-0.043,0.112l-0.048,0.11l-0.038,0.089l-0.047,0.11l-0.052,0.109l-0.041,0.088l-0.052,0.107l-0.055,0.106l-0.045,0.088l-0.055,0.105l-0.049,0.085l-0.055,0.105l-0.063,0.102l-0.049,0.084l-0.064,0.102l-0.063,0.101l-0.055,0.082l-0.053,0.083l-0.079,0.115l-0.059,0.081l-0.056,0.08l-0.072,0.096l-0.071,0.095l-0.062,0.078l-0.061,0.079l-0.075,0.092l-0.076,0.092l-0.079,0.091l-0.066,0.074l-0.067,0.075l-0.08,0.088l-0.083,0.086l-0.07,0.073l-0.071,0.072l-0.084,0.084l-0.075,0.071l-0.071,0.069l-0.099,0.092l-0.079,0.069l-0.075,0.067l-0.09,0.077l-0.08,0.067l-0.092,0.075l-0.094,0.073l-0.081,0.063l-0.084,0.064l-0.083,0.061l-0.095,0.07l-0.099,0.068l-0.087,0.059l-0.087,0.058l-0.086,0.057l-0.1,0.064l-0.102,0.063l-0.091,0.053l-0.091,0.054l-0.103,0.059l-0.095,0.051l-0.092,0.051l-0.106,0.055l-0.106,0.053l-0.097,0.047l-0.096,0.046l-0.102,0.046l-0.096,0.044l-0.108,0.046l-0.109,0.046l-0.103,0.04l-0.101,0.04l-0.113,0.042l-0.105,0.037l-0.102,0.035l-0.105,0.035l-0.106,0.034l-0.111,0.035l-0.115,0.033l-0.109,0.03l-0.108,0.028l-0.109,0.028l-0.11,0.026l-0.108,0.024l-0.115,0.025l-0.118,0.023l-0.112,0.02l-0.113,0.02l-0.113,0.018l-0.113,0.016l-0.115,0.016l-0.115,0.014l-0.117,0.012l-0.114,0.011l-0.12,0.01l-0.116,0.008l-0.113,0.007l-0.119,0.005l-0.121,0.004l-0.117,0.002l-0.118,0.001l-0.117,-0.001l-0.12,-0.002l-0.118,-0.004l-0.118,-0.005l-0.118,-0.007l-0.114,-0.008l-0.116,-0.009l-0.12,-0.012l-0.115,-0.012l-0.113,-0.014l-0.112,-0.015l-0.116,-0.017l-0.12,-0.019l-0.11,-0.019l-0.109,-0.02l-0.117,-0.023l-0.115,-0.025l-0.103,-0.023l-0.112,-0.026l-0.121,-0.031l-0.105,-0.028l-0.103,-0.028l-0.115,-0.033l-0.111,-0.035l-0.099,-0.031l-0.115,-0.038l-0.107,-0.038l-0.097,-0.034l-0.114,-0.042l-0.1,-0.04l-0.103,-0.04l-0.109,-0.046l-0.109,-0.046l-0.095,-0.044l-0.093,-0.042l-0.108,-0.05l-0.104,-0.052l-0.097,-0.048l-0.105,-0.055l-0.092,-0.051l-0.096,-0.051l-0.102,-0.059l-0.092,-0.054l-0.09,-0.053l-0.103,-0.063l-0.099,-0.064l-0.087,-0.057l-0.086,-0.058l-0.087,-0.059l-0.099,-0.068l-0.095,-0.07l-0.083,-0.061l-0.084,-0.064l-0.081,-0.063l-0.094,-0.073l-0.092,-0.075l-0.08,-0.067l-0.09,-0.077l-0.075,-0.067l-0.079,-0.069l-0.086,-0.08l-0.088,-0.081l-0.084,-0.084l-0.059,-0.059l-0.087,-0.084l-0.079,-0.086l-0.07,-0.073l-0.08,-0.088l-0.067,-0.075l-0.066,-0.074l-0.08,-0.091l-0.075,-0.092l-0.063,-0.077l-0.076,-0.093l-0.071,-0.095l-0.06,-0.079l-0.06,-0.08l-0.07,-0.096l-0.068,-0.098l-0.056,-0.081l-0.067,-0.099l-0.064,-0.101l-0.052,-0.083l-0.063,-0.102l-0.049,-0.084l-0.051,-0.084l-0.071,-0.123l-0.055,-0.105l-0.045,-0.085l-0.046,-0.088l-0.055,-0.106l-0.051,-0.107l-0.042,-0.088l-0.051,-0.109l-0.047,-0.11l-0.038,-0.089l-0.039,-0.09l-0.047,-0.11l-0.051,-0.133l-0.032,-0.092l-0.035,-0.091l-0.047,-0.135l-0.028,-0.092l-0.032,-0.092l-0.042,-0.137l-0.031,-0.116l-0.025,-0.094l-0.025,-0.093l-0.031,-0.117l-0.027,-0.117l-0.028,-0.118l-0.023,-0.119l-0.019,-0.095l-0.023,-0.118l-0.019,-0.12l-0.016,-0.096l-0.019,-0.12l-0.015,-0.12l-0.016,-0.121l-0.011,-0.121l-0.01,-0.098l-0.011,-0.121l-0.008,-0.121l-0.008,-0.122l-0.003,-0.123l-0.003,-0.099l-0.004,-0.122l0,-0.245l0.004,-0.123l0.003,-0.099l0.003,-0.122l0.008,-0.122l0.008,-0.122l0.011,-0.121l0.01,-0.098l0.011,-0.121l0.016,-0.12l0.015,-0.12l0.019,-0.12l0.016,-0.097l0.019,-0.119l0.023,-0.119l0.019,-0.095l0.023,-0.119l0.028,-0.117l0.027,-0.117l0.031,-0.117l0.025,-0.094l0.025,-0.093l0.031,-0.116l0.042,-0.137l0.032,-0.093l0.028,-0.092l0.047,-0.135l0.035,-0.091l0.032,-0.091l0.051,-0.133l0.047,-0.111l0.039,-0.09l0.038,-0.089l0.047,-0.11l0.051,-0.108l0.042,-0.088l0.051,-0.108l0.055,-0.106l0.046,-0.087l0.045,-0.086l0.055,-0.105l0.071,-0.123l0.051,-0.084l0.049,-0.084l0.063,-0.101l0.052,-0.084l0.064,-0.101l0.067,-0.098l0.056,-0.081l0.068,-0.099l0.071,-0.096l0.059,-0.08l0.06,-0.079l0.071,-0.094l0.076,-0.094l0.063,-0.077l0.075,-0.091l0.079,-0.09l0.067,-0.076l0.068,-0.075l0.079,-0.088l0.07,-0.072l0.079,-0.086l0.087,-0.085l0.059,-0.059l0.084,-0.083l0.088,-0.082l0.086,-0.08l0.079,-0.068l0.075,-0.067l0.09,-0.077l0.08,-0.067l0.091,-0.075l0.095,-0.074l0.082,-0.063l0.083,-0.063l0.083,-0.062l0.095,-0.069l0.099,-0.069l0.086,-0.058l0.087,-0.059l0.088,-0.057l0.098,-0.064l0.103,-0.062l0.09,-0.054l0.092,-0.054l0.102,-0.058l0.096,-0.052l0.092,-0.05l0.105,-0.055l0.096,-0.048l0.105,-0.052l0.11,-0.051l0.089,-0.041l0.097,-0.044l0.11,-0.047l0.108,-0.045l0.103,-0.041l0.1,-0.039l0.114,-0.042l0.097,-0.035l0.107,-0.038l0.115,-0.037l0.099,-0.032l0.111,-0.034l0.115,-0.033l0.103,-0.028l0.105,-0.029l0.119,-0.03l0.114,-0.027l0.105,-0.023l0.113,-0.024l0.117,-0.023l0.109,-0.02l0.11,-0.02l0.12,-0.019l0.116,-0.016l0.11,-0.015l0.115,-0.014l0.117,-0.013l0.118,-0.011l0.116,-0.01l0.114,-0.008l0.118,-0.006l0.118,-0.006l0.118,-0.003l0.119,-0.003l0.118,-0.001l0.119,0.001Zm-0.197,3l-0.084,0.002l-0.079,0.002l-0.08,0.004l-0.079,0.004l-0.077,0.006l-0.081,0.006l-0.079,0.008l-0.074,0.008l-0.076,0.009l-0.081,0.011l-0.081,0.012l-0.071,0.011l-0.075,0.013l-0.082,0.015l-0.074,0.015l-0.071,0.015l-0.081,0.018l-0.076,0.018l-0.066,0.016l-0.073,0.02l-0.082,0.023l-0.07,0.02l-0.068,0.021l-0.079,0.025l-0.07,0.023l-0.065,0.023l-0.083,0.029l-0.064,0.024l-0.072,0.029l-0.076,0.03l-0.065,0.027l-0.062,0.026l-0.07,0.032l-0.083,0.038l-0.062,0.029l-0.061,0.03l-0.071,0.036l-0.061,0.031l-0.068,0.038l-0.071,0.038l-0.058,0.033l-0.068,0.04l-0.07,0.042l-0.058,0.035l-0.056,0.036l-0.066,0.043l-0.066,0.045l-0.068,0.046l-0.055,0.038l-0.053,0.039l-0.065,0.048l-0.065,0.049l-0.065,0.05l-0.053,0.042l-0.051,0.042l-0.062,0.051l-0.051,0.044l-0.061,0.054l-0.063,0.055l-0.049,0.045l-0.048,0.046l-0.045,0.044l-0.071,0.071l-0.048,0.047l-0.044,0.048l-0.06,0.061l-0.043,0.049l-0.056,0.062l-0.056,0.063l-0.044,0.05l-0.042,0.051l-0.054,0.066l-0.041,0.052l-0.04,0.052l-0.051,0.068l-0.052,0.069l-0.04,0.054l-0.036,0.053l-0.05,0.073l-0.037,0.055l-0.035,0.054l-0.046,0.074l-0.036,0.057l-0.043,0.075l-0.047,0.077l-0.022,0.038l-0.031,0.059l-0.041,0.078l-0.041,0.078l-0.031,0.061l-0.029,0.06l-0.038,0.081l-0.029,0.061l-0.027,0.061l-0.036,0.084l-0.035,0.083l-0.027,0.064l-0.016,0.042l-0.03,0.085l-0.033,0.086l-0.015,0.043l-0.027,0.088l-0.03,0.088l-0.013,0.044l-0.018,0.066l-0.025,0.09l-0.024,0.09l-0.018,0.068l-0.016,0.069l-0.016,0.069l-0.013,0.069l-0.019,0.092l-0.013,0.071l-0.012,0.071l-0.015,0.094l-0.012,0.072l-0.009,0.072l-0.009,0.072l-0.007,0.073l-0.009,0.096l-0.007,0.074l-0.005,0.074l-0.004,0.075l-0.003,0.075l-0.003,0.098l-0.002,0.076l0,0.152l0.002,0.076l0.003,0.099l0.003,0.075l0.004,0.074l0.005,0.074l0.007,0.074l0.009,0.097l0.007,0.073l0.009,0.072l0.009,0.072l0.012,0.072l0.015,0.094l0.012,0.07l0.013,0.071l0.019,0.093l0.013,0.069l0.016,0.069l0.016,0.068l0.018,0.068l0.024,0.091l0.025,0.089l0.018,0.067l0.013,0.044l0.03,0.088l0.027,0.087l0.015,0.043l0.033,0.087l0.03,0.085l0.016,0.042l0.027,0.063l0.035,0.084l0.036,0.083l0.027,0.062l0.029,0.061l0.038,0.081l0.029,0.06l0.031,0.06l0.041,0.078l0.041,0.079l0.031,0.058l0.022,0.039l0.047,0.076l0.043,0.076l0.035,0.056l0.047,0.074l0.035,0.055l0.037,0.055l0.049,0.071l0.037,0.054l0.041,0.055l0.051,0.068l0.051,0.069l0.04,0.052l0.041,0.051l0.054,0.066l0.041,0.05l0.044,0.05l0.058,0.065l0.056,0.063l0.042,0.047l0.06,0.062l0.044,0.047l0.048,0.047l0.071,0.071l0.045,0.045l0.048,0.045l0.049,0.045l0.063,0.055l0.061,0.055l0.051,0.043l0.062,0.052l0.05,0.041l0.054,0.042l0.066,0.051l0.064,0.048l0.065,0.049l0.053,0.039l0.055,0.037l0.067,0.046l0.067,0.045l0.067,0.044l0.055,0.036l0.058,0.034l0.07,0.042l0.068,0.04l0.058,0.033l0.071,0.039l0.068,0.037l0.061,0.032l0.069,0.035l0.063,0.031l0.064,0.029l0.08,0.037l0.07,0.032l0.064,0.027l0.064,0.027l0.076,0.03l0.072,0.028l0.064,0.024l0.083,0.029l0.065,0.024l0.07,0.022l0.079,0.026l0.068,0.02l0.07,0.021l0.082,0.022l0.073,0.02l0.064,0.016l0.078,0.018l0.082,0.019l0.07,0.015l0.074,0.014l0.082,0.015l0.075,0.014l0.071,0.011l0.081,0.011l0.08,0.011l0.077,0.01l0.076,0.008l0.077,0.007l0.081,0.007l0.077,0.005l0.079,0.005l0.08,0.003l0.079,0.003l0.082,0.001l0.08,0.001l0.08,-0.001l0.08,-0.001l0.083,-0.003l0.077,-0.003l0.078,-0.005l0.081,-0.005l0.078,-0.007l0.076,-0.007l0.081,-0.009l0.075,-0.009l0.077,-0.01l0.078,-0.012l0.078,-0.012l0.078,-0.013l0.078,-0.015l0.073,-0.014l0.071,-0.015l0.076,-0.018l0.075,-0.017l0.075,-0.019l0.077,-0.021l0.076,-0.02l0.07,-0.021l0.068,-0.02l0.072,-0.024l0.074,-0.024l0.076,-0.027l0.074,-0.026l0.065,-0.024l0.072,-0.028l0.076,-0.03l0.063,-0.027l0.064,-0.027l0.071,-0.032l0.07,-0.032l0.071,-0.034l0.075,-0.036l0.06,-0.03l0.061,-0.032l0.068,-0.037l0.071,-0.039l0.058,-0.033l0.068,-0.04l0.07,-0.042l0.058,-0.034l0.054,-0.036l0.068,-0.044l0.067,-0.045l0.067,-0.046l0.055,-0.037l0.053,-0.039l0.065,-0.049l0.064,-0.048l0.066,-0.051l0.054,-0.042l0.05,-0.041l0.062,-0.052l0.051,-0.043l0.061,-0.055l0.063,-0.055l0.036,-0.033l0.058,-0.057l0.06,-0.057l0.046,-0.047l0.059,-0.059l0.059,-0.06l0.046,-0.049l0.043,-0.047l0.056,-0.063l0.058,-0.065l0.044,-0.05l0.041,-0.05l0.042,-0.051l0.05,-0.066l0.055,-0.068l0.039,-0.053l0.039,-0.052l0.049,-0.071l0.052,-0.07l0.026,-0.038l0.046,-0.072l0.049,-0.073l0.035,-0.056l0.035,-0.056l0.044,-0.076l0.036,-0.058l0.03,-0.057l0.044,-0.078l0.031,-0.059l0.041,-0.078l0.031,-0.06l0.029,-0.06l0.038,-0.081l0.029,-0.061l0.027,-0.062l0.035,-0.083l0.027,-0.063l0.025,-0.063l0.032,-0.085l0.025,-0.064l0.03,-0.086l0.025,-0.065l0.013,-0.043l0.027,-0.088l0.027,-0.089l0.02,-0.066l0.018,-0.067l0.025,-0.091l0.018,-0.068l0.016,-0.068l0.016,-0.069l0.013,-0.069l0.018,-0.093l0.014,-0.071l0.012,-0.07l0.015,-0.094l0.011,-0.072l0.01,-0.072l0.009,-0.072l0.007,-0.073l0.009,-0.097l0.007,-0.074l0.005,-0.074l0.004,-0.074l0.003,-0.075l0.003,-0.099l0.002,-0.076l0,-0.152l-0.002,-0.076l-0.003,-0.098l-0.003,-0.075l-0.004,-0.075l-0.005,-0.074l-0.007,-0.074l-0.009,-0.096l-0.007,-0.073l-0.009,-0.072l-0.01,-0.072l-0.011,-0.072l-0.015,-0.094l-0.012,-0.071l-0.014,-0.071l-0.018,-0.092l-0.013,-0.069l-0.016,-0.069l-0.016,-0.069l-0.018,-0.068l-0.025,-0.09l-0.018,-0.067l-0.02,-0.067l-0.027,-0.089l-0.027,-0.087l-0.013,-0.044l-0.025,-0.065l-0.03,-0.086l-0.025,-0.064l-0.032,-0.085l-0.025,-0.063l-0.027,-0.062l-0.035,-0.084l-0.027,-0.061l-0.029,-0.061l-0.038,-0.081l-0.029,-0.06l-0.031,-0.061l-0.041,-0.078l-0.031,-0.059l-0.044,-0.078l-0.03,-0.057l-0.036,-0.058l-0.044,-0.075l-0.035,-0.057l-0.035,-0.056l-0.049,-0.072l-0.046,-0.073l-0.026,-0.038l-0.052,-0.07l-0.048,-0.07l-0.04,-0.053l-0.039,-0.053l-0.055,-0.068l-0.05,-0.066l-0.042,-0.051l-0.042,-0.051l-0.044,-0.05l-0.056,-0.063l-0.056,-0.062l-0.044,-0.049l-0.046,-0.048l-0.059,-0.061l-0.059,-0.059l-0.046,-0.046l-0.06,-0.057l-0.058,-0.057l-0.036,-0.034l-0.063,-0.055l-0.061,-0.054l-0.051,-0.044l-0.062,-0.051l-0.051,-0.042l-0.053,-0.042l-0.065,-0.05l-0.065,-0.049l-0.065,-0.048l-0.053,-0.039l-0.055,-0.038l-0.068,-0.046l-0.066,-0.045l-0.066,-0.043l-0.056,-0.036l-0.058,-0.035l-0.07,-0.042l-0.068,-0.04l-0.058,-0.033l-0.071,-0.038l-0.068,-0.038l-0.061,-0.031l-0.061,-0.031l-0.074,-0.035l-0.069,-0.034l-0.074,-0.033l-0.069,-0.032l-0.062,-0.026l-0.065,-0.027l-0.076,-0.03l-0.072,-0.029l-0.065,-0.024l-0.074,-0.026l-0.076,-0.026l-0.074,-0.025l-0.072,-0.023l-0.068,-0.021l-0.07,-0.02l-0.076,-0.021l-0.077,-0.02l-0.076,-0.019l-0.074,-0.018l-0.075,-0.017l-0.072,-0.015l-0.073,-0.015l-0.078,-0.014l-0.078,-0.013l-0.078,-0.013l-0.078,-0.011l-0.078,-0.011l-0.074,-0.009l-0.079,-0.008l-0.078,-0.008l-0.078,-0.006l-0.081,-0.006l-0.078,-0.004l-0.077,-0.004l-0.083,-0.002l-0.082,-0.002l-0.078,0l-0.078,0Z" style="fill:#fff;"/><g><path d="M271.368,248.284c0,-0.397 -0.322,-0.719 -0.719,-0.719l-100.685,0c-0.397,0 -0.719,0.322 -0.719,0.719l0,1.437c0,0.397 0.322,0.719 0.719,0.719l100.685,0c0.397,0 0.719,-0.322 0.719,-0.719l0,-1.437Z" style="fill:#3956e8;"/><path d="M246.905,256.333c0,-0.397 -0.322,-0.719 -0.718,-0.719l-76.223,0c-0.397,0 -0.719,0.322 -0.719,0.719l0,1.437c0,0.397 0.322,0.719 0.719,0.719l76.223,0c0.396,0 0.718,-0.322 0.718,-0.719l0,-1.437Z" style="fill:#3956e8;"/><path d="M250.592,226.112c0,-0.396 -0.322,-0.718 -0.719,-0.718l-79.909,0c-0.397,0 -0.719,0.322 -0.719,0.718l0,1.437c0,0.397 0.322,0.719 0.719,0.719l79.909,0c0.397,0 0.719,-0.322 0.719,-0.719l0,-1.437Z" style="fill:#dedede;"/><path d="M189.203,278.385c0,-0.397 -0.322,-0.719 -0.718,-0.719l-18.521,0c-0.397,0 -0.719,0.322 -0.719,0.719l0,1.437c0,0.397 0.322,0.719 0.719,0.719l18.521,0c0.396,0 0.718,-0.322 0.718,-0.719l0,-1.437Z" style="fill:#dedede;"/><path d="M221.361,278.385c0,-0.397 -0.322,-0.719 -0.719,-0.719l-18.521,0c-0.397,0 -0.719,0.322 -0.719,0.719l0,1.437c0,0.397 0.322,0.719 0.719,0.719l18.521,0c0.397,0 0.719,-0.322 0.719,-0.719l0,-1.437Z" style="fill:#dedede;"/></g></g></g><defs><linearGradient id="_Linear1" x1="0" y1="0" x2="1" y2="0" gradientUnits="userSpaceOnUse" gradientTransform="matrix(1.01668e-15,15.3706,-16.6037,9.41179e-16,360.648,529.683)"><stop offset="0" style="stop-color:#e1eefe;stop-opacity:1"/><stop offset="1" style="stop-color:#9bc6fd;stop-opacity:1"/></linearGradient><linearGradient id="_Linear2" x1="0" y1="0" x2="1" y2="0" gradientUnits="userSpaceOnUse" gradientTransform="matrix(720,0,0,181.528,9.09495e-12,443.271)"><stop offset="0" style="stop-color:#e5effd;stop-opacity:1"/><stop offset="1" style="stop-color:#e1eefe;stop-opacity:1"/></linearGradient></defs></svg>
