<?xml version="1.0" encoding="UTF-8" standalone="no"?><!DOCTYPE svg PUBLIC "-//W3C//DTD SVG 1.1//EN" "http://www.w3.org/Graphics/SVG/1.1/DTD/svg11.dtd"><svg viewBox="0 0 677 162" version="1.1" xmlns="http://www.w3.org/2000/svg" xmlns:xlink="http://www.w3.org/1999/xlink" xml:space="preserve" xmlns:serif="http://www.serif.com/" style="fill-rule:evenodd;clip-rule:evenodd;stroke-linejoin:round;stroke-miterlimit:1.41421;"><g><path d="M81.134,0.102c4.248,0.123 8.343,1.922 11.348,5.017c7.7,7.934 7.887,20.165 6.26,30.166c-2.846,17.486 -12.702,33.841 -23.944,46.707c-11.241,12.865 -27.082,22.954 -44.903,21.914l-0.174,-0.011c1.468,13.508 3.596,27.478 11.771,38.518c3.243,4.38 8.483,7.746 14.183,7.103c6.127,-0.691 11.664,-4.102 16.764,-7.872c0,0 6.648,-2.713 8.995,2.269c1.323,2.809 -0.071,6.101 -2.791,8.061c-2.147,1.547 -4.369,2.994 -6.674,4.282c-10.105,5.649 -23.274,8.008 -33.663,-0.003c-10.018,-7.726 -14.433,-20.502 -17.312,-32.296l-0.048,-0.203c-3.287,11.065 -6.331,22.191 -9.201,33.348c0,0 -2.447,5.098 -6.728,4.435c-3.282,-0.508 -5.586,-4.051 -4.894,-7.424c4.953,-19.258 10.452,-38.528 16.794,-57.435l0.438,-1.656c0.509,-1.537 2.488,-6.894 4.168,-11.509c8.997,-24.708 18.688,-49.707 35.875,-69.442c1.017,-1.167 2.068,-2.306 3.159,-3.404c5.364,-5.401 11.791,-10.138 19.263,-10.543c0.372,-0.021 0.416,-0.035 1.314,-0.022Zm-0.417,11.996c-4.788,0.078 -9.01,4.185 -12.72,8.139c-12.694,13.527 -20.543,31.04 -27.832,48.47c-3.18,7.604 -6.102,15.311 -8.862,23.076l-0.063,0.177c1.802,0.074 3.611,-0.016 5.399,-0.249c1.385,-0.181 2.758,-0.447 4.111,-0.794c1.186,-0.303 2.357,-0.667 3.508,-1.086c18.56,-6.766 30.703,-25.692 38.283,-42.342c4.561,-10.019 7.778,-21.99 2.883,-31.742c-0.127,-0.253 -0.263,-0.503 -0.409,-0.746c-0.925,-1.547 -2.296,-2.905 -4.298,-2.903Z" /><path d="M141.832,82.401c2.456,0.168 4.77,1.413 6.323,3.357c3.934,4.928 3.403,11.779 3.151,17.658c-0.52,12.182 -2.665,24.309 -4.144,36.435c9.431,-13.842 17.979,-28.248 26.496,-42.68l0.12,-1.191c-2.287,-5.974 1.521,-13.172 8.882,-13.457c1.067,-0.021 1.725,-0.048 3.159,-0.015c0,0 4.262,0.786 5.441,3.835c0.642,1.661 0.737,3.023 -0.399,5.161c-1.059,1.836 -2.236,3.859 -2.236,3.859c6.121,3.848 14.629,1.417 20.365,-3.424c0,0 3.409,-2.265 6.284,-1.088c3.876,1.587 4.843,7.409 1.322,10.372c-0.256,0.215 -0.514,0.426 -0.774,0.636c-9.298,7.47 -22.573,10.293 -33.273,3.855c-9.665,16.339 -19.026,32.96 -30.59,48.041c-3.843,5.014 -9.928,11.636 -15.419,5.322c-0.23,-0.265 -0.44,-0.547 -0.631,-0.841c-2.674,-4.126 -1.712,-9.356 -1.306,-13.844c1.381,-15.268 5.089,-30.548 4.777,-45.763c-0.032,-1.579 -0.109,-3.165 -0.456,-4.7c0,0 -0.618,-0.415 -0.618,-0.415c-2.433,-1.596 -2.352,-2.409 -2.66,-3.507c-0.922,-3.287 1.546,-7.094 4.959,-7.564c0.784,-0.108 0.973,-0.051 1.227,-0.042Zm-0.886,11.966c0,0 -0.05,-0.006 0,0Z" /><path d="M112.176,82.295c8.578,0.084 16.815,6.546 16.656,16.491c-0.178,11.187 -8.92,20.907 -15.981,27.458c-8.027,7.448 -18.772,12.811 -30.353,10.62l-0.098,-0.019c0.241,4.708 1.516,9.927 6.006,11.988c6.896,3.167 14.99,-1.753 19.373,-4.683c10.535,-7.043 20.656,-15.449 27.406,-25.472c1.284,-1.908 2.663,-4.828 2.663,-4.828c2.247,-4.057 9.338,-4.125 11.02,0.787c1.41,4.12 -2.103,8.653 -5.242,12.879c-9.854,13.267 -23.253,25.129 -37.468,31.099c-9.46,3.974 -21.334,4.544 -28.772,-3.137c-10.299,-10.636 -7.842,-30.059 -0.388,-44.586c7.518,-14.547 20.013,-28.309 34.727,-28.595c0.15,-0.002 0.3,-0.003 0.451,-0.002Zm-0.203,12c-6.859,0.08 -12.926,5.576 -17.63,11.549c-4.51,5.727 -8.172,12.245 -10.282,19.04c0,0 3.333,0.713 6.183,0.303c18.955,-2.725 35.301,-30.945 21.729,-30.892Z" /><path d="M345.956,95.119c1.282,0.112 1.659,0.283 2.344,0.627c3.1,1.554 4.08,5.816 2.131,8.962c-2.834,4.712 -1.572,11.584 3.187,14.678c7.236,4.704 17.722,1.14 27.06,-3.491c3.978,-1.973 7.793,-4.263 11.496,-6.703c0,0 4.015,-1.935 6.88,0.195c2.894,2.15 3.11,7.031 0.282,9.409c-0.855,0.718 -1.159,0.811 -1.674,1.147c-9.515,6.142 -19.659,11.558 -30.976,13.099c-10.499,1.43 -22.549,-2.229 -27.465,-12.597c-3.315,-6.99 -2.993,-15.697 1.108,-22.217c1.163,-1.85 2.559,-3.038 5.278,-3.119c0.116,0.004 0.233,0.007 0.349,0.01Z" /><path d="M218.673,82.483c2.71,0.202 2.88,0.77 3.663,1.442c1.929,1.656 2.609,4.603 1.599,6.936c-0.662,1.53 -1.101,1.933 -1.641,2.833c-9.373,15.722 -19.329,31.69 -23.475,49.112c-0.512,2.15 -0.959,4.35 -0.761,6.516c0,0 2.28,-0.58 4.332,-1.835c8.174,-5.002 14.59,-12.898 19.217,-21.368c0,0 3.829,-4.244 7.601,-2.65c3.161,1.335 4.506,5.549 2.716,8.796c-0.3,0.544 -0.607,1.084 -0.922,1.62c-6.624,11.298 -15.642,22.021 -27.696,26.491c-5.486,2.034 -12.744,1.456 -15.83,-4.828c-3.694,-7.522 -0.494,-16.245 2.03,-23.375c5.847,-16.516 14.757,-31.805 23.783,-46.791c0,0 2.541,-2.92 5.384,-2.899Z" /><path d="M240.793,41.845c4.378,0.156 7.751,5.133 5.695,9.417c-2.025,3.954 -3.737,8.164 -6.266,11.745c-2.628,3.721 -9.599,3.346 -11.421,-1.443c-0.635,-1.669 -0.535,-3.575 0.253,-5.216c3.274,-6.393 5.52,-14.564 11.739,-14.503Z" /><path d="M322.603,82.274c1.48,0.109 1.91,0.324 2.679,0.752c2.557,1.422 3.782,4.862 2.592,7.621c-0.66,1.53 -1.1,1.936 -1.639,2.837c-8.617,14.495 -17.275,29.249 -22.078,45.047c-1.085,3.57 -2.324,7.364 -1.639,10.941c0,0 4.915,-1.58 8.928,-4.716c6.443,-5.035 11.767,-11.507 15.68,-18.71c0,0 2.497,-3.323 5.651,-3.124c4.066,0.257 6.951,5.133 4.672,9.259c-6.475,11.719 -15.618,22.718 -28.241,27.824c-5.808,2.349 -13.791,2.358 -17.273,-4.643c-3.729,-7.498 -0.736,-16.219 1.777,-23.507c5.695,-16.517 14.55,-31.764 23.51,-46.676c0,0 2.538,-2.923 5.381,-2.905Z" /><path d="M340.793,41.845c4.378,0.156 7.751,5.133 5.695,9.417c-2.025,3.954 -3.737,8.164 -6.266,11.745c-2.628,3.721 -9.599,3.346 -11.421,-1.443c-0.635,-1.669 -0.535,-3.575 0.253,-5.216c3.274,-6.393 5.52,-14.564 11.739,-14.503Z" /><path d="M269.202,82.312c6.2,0.057 12.239,3.636 13.851,10.21c1.752,7.145 -1.301,14.463 -4.553,20.732c0,0 -5.419,5.956 -9.678,1.717c-4.808,-4.786 4.819,-13.138 2.511,-19.816c-0.694,-2.008 -5.57,-0.779 -9.402,1.308c-7.743,4.216 -12.905,13.632 -9.023,22.485c4.588,10.457 7.933,22.887 -0.135,32.881c-8.654,10.719 -27.607,14.302 -35.824,2.724c-4.57,-6.441 -2.381,-16.096 1.161,-22.558c0.936,-1.708 1.98,-3.357 3.094,-4.954c2.577,-3.696 8.768,-5.28 11.144,-0.242c2.497,5.294 -6.195,10.803 -6.202,18.553c-0.003,4.025 6.181,4.812 10.442,3.457c4.355,-1.385 8.251,-4.76 9.178,-9.54c1.156,-5.959 -2.407,-11.792 -4.318,-16.631c-2.676,-6.776 -2.779,-14.502 0.243,-21.353c4.713,-10.687 15.808,-18.705 27.019,-18.97c0.164,-0.002 0.328,-0.003 0.492,-0.003Z" /><path d="M363.386,82.431c4.472,0.079 8.732,2.361 11.407,6.037c6.113,8.401 5.054,19.929 2.27,30.835c-3.793,14.86 -10.967,29.612 -24.06,37.986c-6.82,4.362 -16.796,5.295 -22.45,-2.475c-4.026,-5.533 -4.608,-12.822 -4.158,-19.417c1.207,-17.683 9.112,-35.622 22.394,-46.777c4.196,-3.524 8.883,-6.233 14.597,-6.189Zm-0.227,11.999c-3.99,0.07 -7.544,3.805 -10.482,7.198c-10.008,11.558 -17.12,27.723 -13.888,42.452c0.079,0.362 0.17,0.721 0.276,1.077c0.077,0.26 0.163,0.519 0.257,0.774c0.672,1.814 2.224,3.285 4.231,2.687c5.494,-1.636 9.59,-6.928 13.086,-12.254c7.194,-10.962 12.772,-24.206 9.919,-37.158c-0.08,-0.363 -0.171,-0.724 -0.277,-1.081c-0.077,-0.261 -0.163,-0.519 -0.257,-0.774c-0.531,-1.434 -1.45,-2.926 -2.865,-2.921Z" /><path d="M502.57,82.406c6.036,0.099 11.835,3.57 14.001,9.666c4.082,11.485 -2.303,23.911 -6.432,33.573c-3.23,7.632 -7.075,15.59 -6.725,23.569c0,0 5.941,-3.439 10.145,-7.638c6.488,-6.478 11.839,-14.034 16.393,-21.988c0,0 6.757,-5.956 10.319,-0.161c2.096,3.41 -0.582,7.484 -3.256,11.681c-7.175,11.259 -15.52,22.539 -27.328,28.437c-4.794,2.395 -11.425,3.156 -15.36,-1.441c-5.666,-6.62 -2.372,-18.003 1.146,-27.922c3.367,-9.493 8.741,-18.306 10.029,-28.493c0.417,-3.297 1.009,-7.958 -4.065,-7.207c-3.849,0.57 -7.209,3.475 -10.353,6.295c-11.829,10.607 -20.802,24.245 -28.995,38.013c0,0 -3.658,4.668 -7.728,3.009c-2.891,-1.179 -4.495,-4.868 -3.291,-7.821c0.498,-1.221 0.747,-1.394 1.076,-1.945c9.733,-16.183 20.438,-32.671 35.057,-43.592c3.788,-2.83 8.024,-5.196 12.707,-5.862c0.884,-0.126 1.318,-0.183 2.66,-0.173Z" /><path d="M439.385,82.626c3.781,0.104 7.346,2.25 9.179,5.733c3.606,6.85 1.335,15.053 -0.692,22.085c-3.659,12.696 -10.804,24.59 -11.835,37.904c0,0 2.87,-2.031 5.236,-4.268c9.049,-8.557 16.303,-19.013 22.932,-29.525c0,0 2.56,-3.126 5.757,-2.761c3.673,0.42 6.384,4.787 4.814,8.37c-0.577,1.315 -0.92,1.583 -1.351,2.26c-7.96,12.44 -16.556,24.865 -27.908,33.862c-6.225,4.934 -15.751,8.879 -20.14,0.108c-3.311,-6.618 -0.81,-14.385 1.133,-21.145c3.77,-13.115 11.66,-25.31 11.768,-38.708c0.007,-0.793 0.319,-1.788 -0.451,-1.402c-4.959,2.535 -8.792,7.031 -12.655,11.364c-13.894,15.585 -25.633,33.257 -36.649,50.879c0,0 -1.683,2.435 -4.06,2.897c-4.465,0.867 -8.797,-4.579 -6.24,-9.058c12.699,-20.426 25.964,-40.863 42.613,-57.636c4.503,-4.537 9.349,-9.198 15.461,-10.603c1.815,-0.417 1.818,-0.372 3.088,-0.356Zm-2.435,0.223c0,0 0.052,-0.01 0,0Zm0.024,-0.005c0,0 0.001,0 0,0Z" /><path d="M409.031,82.23c1.298,0.174 1.639,0.354 2.284,0.706c3.028,1.657 3.648,5.83 1.858,9.016c-4.25,7.737 -7.217,16.305 -10.482,24.678c-5.239,13.429 -10.237,26.968 -14.431,40.759c0,0 -2.637,4.983 -6.902,4.14c-3.263,-0.644 -5.489,-4.235 -4.578,-7.632c6.696,-22.018 14.649,-44.391 24.558,-65.125c0.79,-1.654 2.148,-3.963 2.148,-3.963c1.283,-1.744 3.359,-2.724 5.545,-2.579Z" /><path d="M550.652,82.366c2.71,0.195 2.881,0.762 3.666,1.433c2.34,1.998 2.606,5.668 0.781,8.351c-0.136,0.204 -0.136,0.203 -0.271,0.408c-8.25,12.739 -13.297,27.729 -16.594,42.644c-0.99,4.481 -2.192,9.535 -0.176,13.445c1.213,2.353 5.732,-0.023 9.363,-2.92c8.34,-6.655 13.89,-16.448 17.995,-26.388c0,0 3.347,-4.633 7.269,-3.457c3.305,0.991 5.013,5.179 3.625,8.515c-0.269,0.649 -0.545,1.294 -0.828,1.937c-5.772,13.148 -13.693,26.175 -26.7,32.773c-6.616,3.356 -15.973,3.823 -20.761,-3.853c-5.2,-8.335 -2.614,-19.148 -0.278,-27.461c0.674,-2.4 1.381,-4.79 2.123,-7.17c3.838,-12.291 8.203,-24.685 15.285,-35.184c1.249,-1.851 3.197,-3.084 5.501,-3.073Z" /><path d="M585.654,82.411c1.306,0.095 1.658,0.254 2.322,0.567c3.425,1.614 3.989,6.195 1.776,9.76c-7.388,12.041 -11.599,25.948 -15.809,39.474c-1.726,5.549 -3.978,12.053 -1.514,16.635c1.251,2.328 6.697,-0.517 11.015,-4.122c8.146,-6.803 13.752,-16.397 17.584,-26.387c0,0 2.913,-4.515 6.789,-3.733c3.667,0.741 5.529,5.214 4.041,8.995c-0.253,0.645 -0.514,1.286 -0.781,1.925c-5.789,13.809 -14.449,27.392 -28.3,33.856c-6.886,3.213 -16.583,3.638 -21.069,-5.139c-5.119,-10.017 -0.429,-22.137 2.721,-31.6c4.297,-12.909 8.371,-26.301 15.887,-37.406c0,0 2.433,-2.842 5.338,-2.825Z" /><path d="M304.156,115.649c3.001,0.239 3.358,1.07 4.205,2.036c3.132,3.571 -0.114,9.445 -2.841,14.451c-5.081,9.326 -11.866,17.853 -20.931,23.924c-7.377,4.941 -17.512,7.276 -25.7,2.387c-4.846,-2.894 -8.561,-7.54 -10.794,-12.741c0,0 -1.174,-4.603 1.599,-6.971c2.87,-2.452 7.852,-1.364 9.471,2.338c0.045,0.103 0.092,0.204 0.139,0.305c0.068,0.142 0.138,0.282 0.209,0.422c0.294,0.57 0.615,1.125 0.962,1.664c0.271,0.421 0.559,0.832 0.863,1.23c1.962,2.572 4.897,4.784 8.314,4.635c7.137,-0.312 13.26,-6.497 18.237,-12.415c4.363,-5.189 7.942,-11.103 10.357,-17.416c0,0 2.342,-3.93 5.91,-3.849Z" /><path d="M640.554,82.396c4.65,0.075 9.164,1.907 12.567,5.115c10.491,9.892 10.46,27.138 5.801,41.859c-5.16,16.301 -17.215,32.29 -33.632,32.197c-11.679,-0.066 -22.518,-8.895 -25.59,-20.574c-1.68,-6.385 -1.415,-13.286 0.382,-19.591c1.715,-6.02 10.483,-19.825 18.793,-28.24c5.684,-5.754 12.79,-10.601 21.172,-10.766c0.169,-0.001 0.338,-0.002 0.507,0Zm-0.272,11.999c-8.436,0.075 -15.199,8.832 -20.82,17.083c-2.951,4.332 -5.603,8.869 -7.919,13.572c0,0 -2.067,9.722 0.876,15.975c3.498,7.43 13.628,10.622 20.809,6.317c3.432,-2.057 5.951,-5.327 8.176,-8.754c7.221,-11.119 11.675,-25.392 6.356,-37.966c-0.171,-0.405 -0.356,-0.804 -0.558,-1.194c-0.16,-0.31 -0.33,-0.616 -0.512,-0.914c-1.327,-2.176 -3.529,-4.055 -6.21,-4.118c-0.066,-0.001 -0.132,-0.001 -0.198,-0.001Z" /><path d="M529.118,0.006c3.708,0.156 7.127,2.232 9.138,5.523c4.078,6.668 2.621,15.171 0.287,22.233c-5.73,17.343 -18.555,32.703 -31.905,43.429c-4.131,3.319 -8.633,6.348 -13.634,7.846c-9.321,24.955 -16.595,50.884 -22.867,77.004l-0.242,1.014c-1.337,4.586 -8.26,6.122 -10.948,1.746c-0.788,-1.284 -1.169,-2.158 -0.723,-4.535c11.979,-50.132 26.969,-100.677 54.363,-141.693c3.75,-5.615 7.894,-11.749 14.998,-12.508c0.453,-0.049 0.508,-0.078 1.533,-0.059Zm-0.906,12.31c-1.835,1.175 -3.056,3.108 -4.336,4.981c-9.266,13.615 -16.98,28.316 -23.541,43.478l-0.041,0.096c12.733,-10.789 23.732,-24.923 27.49,-38.997c0.846,-3.168 1.497,-6.639 0.491,-9.522c0,0 0.02,-0.088 -0.063,-0.036Z" /><path d="M665.118,0.006c3.698,0.155 7.123,2.229 9.137,5.516c4.057,6.623 2.635,15.133 0.29,22.22c-5.739,17.349 -18.552,32.67 -31.904,43.381c-4.133,3.315 -8.634,6.339 -13.63,7.834c-9.443,25.263 -16.615,50.93 -22.856,76.91l-0.243,1.012c-0.677,2.323 -1.412,2.93 -2.696,3.718c-3.899,2.393 -9.954,-1.296 -8.974,-6.51c11.924,-49.838 26.044,-99.194 54.348,-141.529c3.756,-5.619 7.897,-11.741 15.001,-12.494c0.452,-0.048 0.507,-0.077 1.527,-0.058Zm-0.908,12.309c-1.832,1.174 -3.055,3.103 -4.334,4.974c-9.284,13.635 -16.962,28.257 -23.536,43.426l-0.036,0.082c12.693,-10.736 23.701,-24.784 27.482,-38.942c0.844,-3.159 1.494,-6.624 0.49,-9.505c0,0 0.024,-0.09 -0.066,-0.035Z" /></g></svg>
