<?xml version="1.0" encoding="UTF-8" standalone="no"?>
<!DOCTYPE svg PUBLIC "-//W3C//DTD SVG 1.1//EN" "http://www.w3.org/Graphics/SVG/1.1/DTD/svg11.dtd"><svg viewBox="0 0 625 647" version="1.1" xmlns="http://www.w3.org/2000/svg" xmlns:xlink="http://www.w3.org/1999/xlink" xml:space="preserve"
  xmlns:serif="http://www.serif.com/" style="fill-rule:evenodd;clip-rule:evenodd;stroke-linejoin:round;stroke-miterlimit:1.41421;">
  <g id="top-step" class="step">
    <g id="top-step-glow">
      <path d="M0.188,646.143l0,-565.874l138.705,80.082l0,485.792l-138.705,0Z" style="fill:url(#_Linear6);" />
      <path d="M277.599,646.143l-138.706,0l0,-485.792l138.706,-80.082l0,565.874Z" style="fill:url(#_Linear7);" />
    </g>
    <g id="a-grade">
      <path class="top-surface" d="M138.893,0.187l138.706,80.082l-138.706,80.082l-138.705,-80.082l138.705,-80.082Z" style="fill:#3956e8;" />
      <path d="M277.599,80.269l-138.706,80.082l-138.705,-80.082l138.705,-80.082l138.706,80.082Zm-276.662,0l137.956,79.649l137.956,-79.649l-137.956,-79.648l-137.956,79.648Z" style="fill:#4963e6;" />
      <path d="M0.188,80.269l0,40.041l138.705,80.082l0,-40.041l-138.705,-80.082Z" style="fill:#2641c9;" />
      <path d="M138.893,160.351l0,40.041l-138.705,-80.082l0,-40.041l138.705,80.082Zm-138.331,-40.257l137.956,79.649l0,-39.175l-137.956,-79.649l0,39.175Z" style="fill:#4963e6;" />
      <path d="M138.893,160.351l138.706,-80.082l0,40.247l-138.706,79.876l0,-40.041Z" style="fill:#546ef3;" />
      <path d="M277.599,120.516l-138.706,79.876l0,-40.041l138.706,-80.082l0,40.247Zm-138.331,40.052l0,39.176l137.956,-79.445l0,-39.38l-137.956,79.649Z" style="fill:#4963e6;" />
      <path
        d="M142.482,101.365c-0.208,0.276 -0.502,0.525 -0.882,0.746c-0.759,0.442 -1.684,0.634 -2.777,0.576c-1.093,-0.059 -2.04,-0.319 -2.839,-0.78c-0.622,-0.359 -1.027,-0.78 -1.216,-1.263c-0.188,-0.483 -0.153,-0.98 0.105,-1.491l4.235,-7.26l-20.59,-11.882l-12.488,2.564c-0.791,0.203 -1.594,0.246 -2.408,0.128c-0.815,-0.118 -1.533,-0.356 -2.155,-0.715c-0.933,-0.538 -1.435,-1.07 -1.506,-1.595c-0.071,-0.526 0.254,-0.998 0.974,-1.419c0.152,-0.088 0.5,-0.239 1.044,-0.453l52.165,-10.696c0.918,-0.174 1.816,-0.195 2.693,-0.063c0.878,0.133 1.635,0.426 2.269,0.881c0.667,0.384 1.115,0.819 1.344,1.303c0.23,0.485 0.171,0.957 -0.176,1.417l-17.792,30.002Zm-16.253,-22.912l15.526,8.96l8.14,-13.788l-23.666,4.828Z"
        style="fill:#132967;fill-rule:nonzero;" />
    </g>
  </g>
  <g id="middle-step" class="step">
    <g id="middle-step-glow">
      <path d="M450.804,646.143l-138.636,0l0.108,-345.648l138.528,-79.98l0,425.628Z" style="fill:url(#_Linear8);" />
      <path d="M173.392,646.143l0,-425.628l138.884,79.98l-0.171,345.648l-138.713,0Z" style="fill:url(#_Linear9);" />
    </g>
    <g id="b-grade">
      <path class="top-surface" d="M312.098,140.434l138.706,80.081l-138.528,79.98l-138.884,-79.98l138.706,-80.081Z" style="fill:#5232b3;" />
      <path d="M450.804,220.515l-138.528,79.98l-138.884,-79.98l138.706,-80.081l138.706,80.081Zm-276.661,0l138.133,79.547l137.778,-79.547l-137.956,-79.648l-137.955,79.648Z" style="fill:#5f4faf;" />
      <path d="M173.392,220.515l0.178,39.939l138.706,80.082l0,-40.041l-138.884,-79.98Z" style="fill:#453082;" />
      <path d="M312.276,300.495l0,40.041l-138.706,-80.082l-0.178,-39.939l138.884,79.98Zm-138.332,-40.258l137.957,79.649l0,-39.174l-138.131,-79.546l0.174,39.071Z" style="fill:#5f4faf;" />
      <path d="M312.276,300.495l138.528,-79.98l0.178,39.939l-138.706,80.082l0,-40.041Z" style="fill:#694cbd;" />
      <path d="M450.982,260.454l-138.706,80.082l0,-40.041l138.528,-79.98l0.178,39.939Zm-138.331,40.257l0,39.175l137.955,-79.648l-0.174,-39.075l-137.781,79.548Z" style="fill:#5f4faf;" />
      <path
        d="M323.082,224.69c1.722,1.83 2.546,3.681 2.473,5.553c-0.073,1.872 -1.438,3.582 -4.094,5.13c-4.212,2.455 -8.651,3.381 -13.319,2.778c-4.667,-0.603 -9.067,-2.096 -13.198,-4.481l-17.125,-9.882c-0.889,-0.513 -1.378,-1.103 -1.469,-1.772c-0.091,-0.668 0.243,-1.224 1.002,-1.666l34.376,-20.036c0.759,-0.443 1.715,-0.639 2.868,-0.59c1.153,0.049 2.174,0.33 3.062,0.843l17.125,9.882c4.043,2.333 6.265,4.606 6.668,6.819c0.403,2.213 -1.008,4.259 -4.234,6.139c-1.821,1.061 -3.954,1.712 -6.398,1.952c-2.445,0.24 -5.024,0.017 -7.737,-0.669Zm6.418,-4.746c1.784,-1.04 2.574,-2.157 2.371,-3.353c-0.204,-1.195 -1.327,-2.382 -3.37,-3.562l-12.594,-7.267l-11.098,6.468l12.727,7.345c1.859,1.029 3.872,1.607 6.039,1.736c2.167,0.128 4.142,-0.328 5.925,-1.367Zm-29.387,10.636c2.444,1.41 4.939,2.223 7.486,2.439c2.547,0.215 4.902,-0.307 7.065,-1.568c4.212,-2.455 3.519,-5.297 -2.078,-8.527l-13.127,-7.575l-12.806,7.464l13.46,7.767Z"
        style="fill:#221a47;fill-rule:nonzero;" />
    </g>
  </g>
  <g id="bottom-step" class="step">
    <g id="bottom-step-glow">
      <path d="M624.614,646.143l-138.706,0l0,-203.747l138.706,-80.082l0,283.829Z" style="fill:url(#_Linear60);" />
      <path d="M347.301,646.143l0,-284.001l138.706,80.082l0,203.919l-138.706,0Z" style="fill:url(#_Linear61);" />
    </g>
    <g id="c-grade">
      <path class="top-surface" d="M486.007,282.06l138.706,80.082l-138.706,80.082l-138.706,-80.082l138.706,-80.082Z" style="fill:#2b2a54;" />
      <path d="M624.713,362.142l-138.706,80.082l-138.706,-80.082l138.706,-80.082l138.706,80.082Zm-276.662,0l137.956,79.649l137.956,-79.649l-137.956,-79.649l-137.956,79.649Z" style="fill:#2c2b65;" />
      <path d="M347.301,362.142l0,40.041l138.706,80.082l0,-40.041l-138.706,-80.082Z" style="fill:#28273f;" />
      <path d="M486.007,442.224l0,40.041l-138.706,-80.082l0,-40.041l138.706,80.082Zm-138.331,-40.257l137.956,79.649l0,-39.175l-137.956,-79.649l0,39.175Z" style="fill:#2c2b65;" />
      <path d="M485.905,442.281l138.706,-80.082l0,40.041l-138.706,80.082l0,-40.041Z" style="fill:#413f94;" />
      <path d="M624.611,402.24l-138.706,80.082l0,-40.041l138.706,-80.082l0,40.041Zm-138.331,40.258l0,39.174l137.956,-79.648l0,-39.175l-137.956,79.649Z" style="fill:#2c2b65;" />
      <path
        d="M520.804,361.724c0.573,0.903 0.347,1.653 -0.677,2.25c-0.683,0.398 -1.576,0.609 -2.678,0.634c-1.14,0.046 -2.177,-0.2 -3.11,-0.739c-0.621,-0.359 -1.088,-0.782 -1.4,-1.27c-1.426,-2.363 -3.739,-4.468 -6.937,-6.314c-3.332,-1.922 -6.901,-3.256 -10.707,-4c-3.807,-0.744 -7.55,-0.869 -11.229,-0.373c-3.679,0.495 -6.979,1.595 -9.901,3.297c-3.149,1.836 -5.129,3.84 -5.939,6.013c-0.811,2.173 -0.526,4.351 0.856,6.535c1.381,2.183 3.671,4.198 6.869,6.044c3.288,1.897 6.947,3.216 10.978,3.958c0.761,0.175 1.452,0.442 2.074,0.801c0.977,0.564 1.432,1.2 1.365,1.91c-0.036,0.639 -0.377,1.147 -1.022,1.523c-0.455,0.265 -1.026,0.43 -1.713,0.496c-0.688,0.066 -1.389,0.024 -2.106,-0.126c-2.567,-0.513 -5.174,-1.247 -7.822,-2.203c-2.648,-0.956 -5.016,-2.036 -7.104,-3.241c-4.309,-2.487 -7.457,-5.25 -9.446,-8.291c-1.989,-3.04 -2.505,-6.088 -1.549,-9.145c0.957,-3.057 3.522,-5.802 7.696,-8.234c3.832,-2.234 8.327,-3.656 13.485,-4.266c5.158,-0.611 10.43,-0.385 15.814,0.676c5.385,1.061 10.321,2.886 14.808,5.475c4.309,2.486 7.44,5.35 9.395,8.59Z"
        style="fill:#0f0d17;fill-rule:nonzero;" />
    </g>
  </g>
  <defs>
    <linearGradient id="_Linear6" x1="0" y1="0" x2="1" y2="0" gradientUnits="userSpaceOnUse" gradientTransform="matrix(2.80474e-14,-458.048,458.048,2.80474e-14,73.4174,576.097)">
      <stop offset="0" style="stop-color:#fff;stop-opacity:0" />
      <stop offset="1" style="stop-color:#3f9fff;stop-opacity:0.6" />
    </linearGradient>
    <linearGradient id="_Linear7" x1="0" y1="0" x2="1" y2="0" gradientUnits="userSpaceOnUse" gradientTransform="matrix(2.77968e-14,-453.957,453.957,2.77968e-14,206.169,564.45)">
      <stop offset="0" style="stop-color:#fff;stop-opacity:0" />
      <stop offset="1" style="stop-color:#4fbfff;stop-opacity:0.6" />
    </linearGradient>
    <linearGradient id="_Linear8" x1="0" y1="0" x2="1" y2="0" gradientUnits="userSpaceOnUse" gradientTransform="matrix(2.26729e-14,-370.276,370.276,2.26729e-14,380.539,617.382)">
      <stop offset="0" style="stop-color:#fff;stop-opacity:0" />
      <stop offset="1" style="stop-color:#5533c6;stop-opacity:0.6" />
    </linearGradient>
    <linearGradient id="_Linear9" x1="0" y1="0" x2="1" y2="0" gradientUnits="userSpaceOnUse" gradientTransform="matrix(2.0733e-14,-338.595,338.595,2.0733e-14,254.336,588.16)">
      <stop offset="0" style="stop-color:#fff;stop-opacity:0" />
      <stop offset="1" style="stop-color:#8b69ff;stop-opacity:0.6" />
    </linearGradient>
    <linearGradient id="_Linear60" x1="0" y1="0" x2="1" y2="0" gradientUnits="userSpaceOnUse" gradientTransform="matrix(1.29474e-14,-211.447,211.447,1.29474e-14,555.421,614.027)">
      <stop offset="0" style="stop-color:#fff;stop-opacity:0" />
      <stop offset="0.51" style="stop-color:#8fb0ff;stop-opacity:0.447059" />
      <stop offset="1" style="stop-color:#6995ff;stop-opacity:0.6" />
    </linearGradient>
    <linearGradient id="_Linear61" x1="0" y1="0" x2="1" y2="0" gradientUnits="userSpaceOnUse" gradientTransform="matrix(1.36479e-14,-222.887,222.887,1.36479e-14,421.049,617.073)">
      <stop offset="0" style="stop-color:#fff;stop-opacity:0" />
      <stop offset="1" style="stop-color:#6969ff;stop-opacity:0.6" />
    </linearGradient>
  </defs>
</svg>
