<?xml version="1.0" encoding="UTF-8" standalone="no"?><!DOCTYPE svg PUBLIC "-//W3C//DTD SVG 1.1//EN" "http://www.w3.org/Graphics/SVG/1.1/DTD/svg11.dtd"><svg width="100%" height="100%" viewBox="0 0 997 644" version="1.1" xmlns="http://www.w3.org/2000/svg" xmlns:xlink="http://www.w3.org/1999/xlink" xml:space="preserve" xmlns:serif="http://www.serif.com/" style="fill-rule:evenodd;clip-rule:evenodd;stroke-linejoin:round;stroke-miterlimit:1.41421;"><rect id="Artboard1" x="0" y="0" width="996.613" height="643.026" style="fill:none;"/><path d="M125.516,82.774c0.508,0.051 0.589,0.101 0.804,0.192c0.871,0.367 1.454,1.231 1.526,2.201l1.159,28.489c0.005,0.616 -0.07,0.801 -0.221,1.133c-0.556,1.228 -1.904,1.871 -3.371,1.216l-23.149,-11.275c-1.007,-0.534 -0.977,-0.783 -1.164,-1.176c-0.489,-1.033 -0.345,-2.149 0.718,-3.04l21.988,-17.214c0.477,-0.348 0.771,-0.558 1.71,-0.526Zm-17.467,19.212l15.79,7.691l-0.791,-19.433c-5,3.914 -9.999,7.828 -14.999,11.742Z" style="fill:#bfe2fb;fill-rule:nonzero;"/><path d="M101.475,294.664c0.839,0.095 1.554,0.564 1.98,1.269l13.659,24.357c0.552,1.067 0.358,1.326 0.259,1.769c-0.27,1.205 -1.249,2.055 -2.72,1.938l-28.333,-3.199c-0.537,-0.079 -0.678,-0.156 -0.944,-0.305c-1.225,-0.688 -1.73,-2.208 -0.829,-3.604l14.673,-21.158c0.523,-0.702 1.334,-1.111 2.255,-1.067Zm-10.434,21.635l19.326,2.182l-9.317,-16.614c-3.336,4.811 -6.673,9.621 -10.009,14.432Z" style="fill:#bfe2fb;fill-rule:nonzero;"/><path d="M554.467,497.408c0.099,0.009 0.172,0.006 0.478,0.073l24.96,6.32c0.578,0.167 0.734,0.287 1.007,0.52c1.006,0.856 1.267,2.28 0.29,3.517l-18.019,21.334c-0.805,0.892 -1.116,0.801 -1.566,0.863c-1.222,0.17 -2.361,-0.448 -2.768,-1.867l-6.942,-27.655c-0.112,-0.514 -0.092,-0.668 -0.051,-0.96c0.169,-1.185 1.019,-2.088 2.45,-2.148c0.054,0.001 0.108,0.002 0.161,0.003Zm8.044,24.812l12.291,-14.553l-17.027,-4.312c1.579,6.289 3.157,12.577 4.736,18.865Z" style="fill:#bfe2fb;fill-rule:nonzero;"/><path d="M681.982,246.106c1.125,0.083 1.196,0.318 1.522,0.597c0.812,0.693 1.154,1.645 0.679,2.877l-10.054,23.705c-0.466,1.007 -0.702,0.99 -1.066,1.197c-1.011,0.575 -2.172,0.489 -3.121,-0.532l-18.336,-21.062c-0.388,-0.477 -0.446,-0.667 -0.536,-1.02c-0.36,-1.405 0.487,-2.894 2.19,-3.11c0,0 28.556,-2.653 28.556,-2.653c0.055,0.001 0.111,0.001 0.166,0.001Zm-23.402,7.178l12.508,14.367l6.857,-16.17c-6.455,0.601 -12.91,1.202 -19.365,1.803Z" style="fill:#bfe2fb;fill-rule:nonzero;"/><path d="M165.952,580.619c0.994,0.11 1.834,0.766 2.18,1.712l8.712,26.531c0.352,1.202 0.094,1.424 -0.132,1.884c-0.531,1.078 -1.631,1.664 -2.997,1.28l-27.186,-8.596c-0.561,-0.197 -0.707,-0.324 -0.965,-0.568c-0.987,-0.935 -1.141,-2.451 -0.023,-3.609l18.474,-17.936c0.532,-0.483 1.192,-0.732 1.937,-0.698Zm-13.925,19.306l18.545,5.863l-5.943,-18.098c-4.201,4.078 -8.401,8.156 -12.602,12.235Z" style="fill:#bfe2fb;fill-rule:nonzero;"/><path d="M903.415,319.016c1.126,0.09 1.119,0.27 1.493,0.586c0.671,0.565 1.009,1.232 0.85,2.345l-4.846,27.501c-0.85,4.055 -3.164,2.357 -4.251,1.312l-19.907,-20.413c-0.402,-0.438 -0.471,-0.62 -0.583,-0.956c-0.429,-1.29 0.152,-2.7 1.684,-3.192l24.753,-7.089c0.327,-0.083 0.421,-0.1 0.807,-0.094Zm-20.16,10.837l13.58,13.924l3.305,-18.76c-5.628,1.612 -11.256,3.224 -16.885,4.836Z" style="fill:#bfe2fb;fill-rule:nonzero;"/><path d="M433.583,140.068c0.531,0.043 0.674,0.108 0.945,0.235c0.996,0.468 1.588,1.368 1.398,2.696l-4.846,27.502c-0.256,1.225 -0.589,1.3 -1.005,1.598c-0.977,0.7 -2.224,0.697 -3.246,-0.286l-19.907,-20.413c-0.402,-0.439 -0.471,-0.62 -0.583,-0.956c-0.429,-1.291 0.152,-2.7 1.684,-3.193l24.753,-7.089c0.327,-0.082 0.421,-0.099 0.807,-0.094Zm-20.16,10.838l13.58,13.924l3.305,-18.76c-5.628,1.612 -11.256,3.224 -16.885,4.836Z" style="fill:#bfe2fb;fill-rule:nonzero;"/><path d="M323.45,405.44c0.492,0.06 0.57,0.108 0.778,0.199c0.789,0.346 1.339,1.107 1.478,1.977l3.23,25.545c0.109,1.153 -0.146,1.305 -0.375,1.662c-0.608,0.948 -1.618,1.412 -2.909,1.018l-26.441,-8.984c-1.171,-0.441 -1.194,-0.78 -1.426,-1.237c-0.543,-1.072 -0.349,-2.304 0.778,-3.165l23.21,-16.561c0.477,-0.317 0.768,-0.507 1.677,-0.454Zm-18.012,18.252l18.036,6.129l-2.204,-17.425c-5.277,3.765 -10.555,7.531 -15.832,11.296Z" style="fill:#bfe2fb;fill-rule:nonzero;"/><path d="M839.62,73.558c0.492,0.06 0.57,0.109 0.778,0.2c0.789,0.345 1.339,1.106 1.478,1.976l3.23,25.545c0.109,1.153 -0.147,1.305 -0.376,1.662c-0.607,0.948 -1.617,1.412 -2.909,1.018l-26.44,-8.984c-1.72,-0.647 -1.546,-1.169 -1.669,-2.003c-0.135,-0.915 0.103,-1.698 1.021,-2.399l23.21,-16.56c0.477,-0.318 0.767,-0.508 1.677,-0.455Zm-18.012,18.252l18.036,6.129l-2.204,-17.425c-5.277,3.765 -10.555,7.531 -15.832,11.296Z" style="fill:#bfe2fb;fill-rule:nonzero;"/><path d="M831.241,555.071c0.878,0.093 1.08,0.294 1.477,0.624l20.872,18.552c0.871,0.827 0.772,1.136 0.824,1.587c0.138,1.227 -0.508,2.35 -1.937,2.721l-27.821,6.241c-1.183,0.224 -1.376,-0.037 -1.772,-0.26c-0.984,-0.553 -1.508,-1.524 -1.183,-2.854l6.949,-24.793c0.151,-0.478 0.214,-0.547 0.343,-0.736c0.492,-0.719 1.357,-1.119 2.248,-1.082Zm-3.596,23.93l18.978,-4.257l-14.238,-12.655c-1.58,5.637 -3.16,11.275 -4.74,16.912Z" style="fill:#bfe2fb;fill-rule:nonzero;"/></svg>