<?xml version="1.0" encoding="UTF-8" standalone="no"?><!DOCTYPE svg PUBLIC "-//W3C//DTD SVG 1.1//EN" "http://www.w3.org/Graphics/SVG/1.1/DTD/svg11.dtd"><svg width="100%" height="100%" viewBox="0 0 2801 938" version="1.1" xmlns="http://www.w3.org/2000/svg" xmlns:xlink="http://www.w3.org/1999/xlink" xml:space="preserve" xmlns:serif="http://www.serif.com/" style="fill-rule:evenodd;clip-rule:evenodd;"><rect id="bg5-fixed" x="0" y="0" width="2800.2" height="938" style="fill:none;"/><clipPath id="_clip1"><rect x="0" y="0" width="2800.2" height="938"/></clipPath><g clip-path="url(#_clip1)"><g><rect id="bg" x="0" y="0" width="2800.2" height="938" style="fill:url(#_Linear2);fill-rule:nonzero;"/><path d="M2194.76,493.37l4.89,-1.9l0.27,1l-5.16,0.9Zm-1592.25,619.33l-2.67,0l0.18,1l2.49,-1Z" style="fill:none;stroke:url(#_Linear3);stroke-width:1px;"/><path d="M-211.335,216.692l86.486,140.258l578.88,-356.95l-86.487,-140.258l-578.879,356.95Z" style="fill:url(#_Linear4);"/><path d="M199.509,820.079l135.502,219.748l1694.2,-1044.68l-135.502,-219.749l-1694.2,1044.68Z" style="fill:url(#_Linear5);"/><path d="M414.719,859.004l111.5,180.823l1555.67,-959.259l-111.499,-180.823l-1555.67,959.259Z" style="fill:url(#_Linear6);"/><path d="M972.755,514.907l111.499,180.823l1136.17,-700.585l-111.5,-180.823l-1136.17,700.585Z" style="fill:url(#_Linear7);"/><path d="M530.075,-117.961l64.83,105.138l-480.076,296.025l-64.83,-105.138l480.076,-296.025Z" style="fill:url(#_Linear8);"/><path d="M-84.349,508.469l89.565,145.251l646.577,-398.694l-89.565,-145.251l-646.577,398.694Z" style="fill:url(#_Linear9);"/><path d="M-158.83,754.873l74.481,120.788l1420.09,-875.661l-74.48,-120.788l-1420.1,875.661Z" style="fill:url(#_Linear10);"/><path d="M428.627,392.635l74.48,120.788l858.539,-529.394l-74.48,-120.788l-858.539,529.394Z" style="fill:url(#_Linear11);"/><path d="M1156.9,762.609l83.492,135.403l1464.22,-902.867l-83.493,-135.403l-1464.21,902.867Z" style="fill:url(#_Linear12);"/><path d="M699.453,1044.68l83.492,135.403l1159.58,-715.02l-83.493,-135.403l-1159.58,715.02Z" style="fill:url(#_Linear13);"/><path d="M1255.69,1022.82l117.929,191.251l1568.76,-967.334l-117.93,-191.251l-1568.76,967.334Z" style="fill:url(#_Linear14);"/><path d="M2416.5,307.038l117.929,191.251l772.74,-476.488l-117.93,-191.251l-772.739,476.488Z" style="fill:url(#_Linear15);"/><path d="M1972.82,748.461l66.317,107.549l1125.38,-693.935l-66.317,-107.549l-1125.38,693.935Z" style="fill:url(#_Linear16);"/><path d="M2293.41,550.776l66.317,107.549l-765.531,472.044l-66.317,-107.55l765.531,-472.043Z" style="fill:url(#_Linear17);"/><path d="M1635.45,1104.93l61.978,100.513l1159.56,-715.008l-61.978,-100.513l-1159.56,715.008Z" style="fill:url(#_Linear18);"/><path d="M2475.37,587.02l61.979,100.513l372.456,-229.665l-61.978,-100.513l-372.457,229.665Z" style="fill:url(#_Linear19);"/><path d="M2274.63,949.141l-44.502,-72.171l626.857,-386.534l44.502,72.171l-626.857,386.534Z" style="fill:url(#_Linear20);"/><rect id="bg1" serif:id="bg" x="2800.2" y="-859.729" width="2800.2" height="938" style="fill:url(#_Linear21);fill-rule:nonzero;"/><path d="M526.219,1039.83l49.891,80.911l1781.25,-1098.36l-49.892,-80.911l-1781.25,1098.36Z" style="fill:url(#_Linear22);"/><path d="M-120.507,283.202l64.83,105.138l422.236,-260.36l-64.83,-105.138l-422.236,260.36Z" style="fill:url(#_Linear23);"/></g><rect id="bg2" serif:id="bg" x="0" y="0" width="2805.42" height="938" style="fill:url(#_Linear24);fill-rule:nonzero;"/><path d="M0,676.057c0,0 369.416,261.943 1400.1,261.943c1030.68,0 -1400.1,0 -1400.1,0l0,-261.943Z" style="fill:#f5f8fa;"/><path d="M2800.2,676.057c0,0 -369.416,261.943 -1400.1,261.943c-1030.68,0 1400.1,0 1400.1,0l0,-261.943Z" style="fill:#f5f8fa;"/></g><defs><linearGradient id="_Linear2" x1="0" y1="0" x2="1" y2="0" gradientUnits="userSpaceOnUse" gradientTransform="matrix(5.69271e-14,929.69,-929.69,5.69271e-14,1400.1,3.49)"><stop offset="0" style="stop-color:#3e94fe;stop-opacity:1"/><stop offset="1" style="stop-color:#8144b9;stop-opacity:1"/></linearGradient><linearGradient id="_Linear3" x1="0" y1="0" x2="1" y2="0" gradientUnits="userSpaceOnUse" gradientTransform="matrix(1088.06,-12.444,12.444,1088.06,1094.97,812.494)"><stop offset="0" style="stop-color:#fff;stop-opacity:0"/><stop offset="0.92" style="stop-color:#fff;stop-opacity:1"/><stop offset="1" style="stop-color:#fff;stop-opacity:0"/></linearGradient><linearGradient id="_Linear4" x1="0" y1="0" x2="1" y2="0" gradientUnits="userSpaceOnUse" gradientTransform="matrix(646.851,-398.862,28.7142,46.5669,-98.4075,243.852)"><stop offset="0" style="stop-color:#8144b9;stop-opacity:1"/><stop offset="1" style="stop-color:#3e94fe;stop-opacity:1"/></linearGradient><linearGradient id="_Linear5" x1="0" y1="0" x2="1" y2="0" gradientUnits="userSpaceOnUse" gradientTransform="matrix(1893.13,-1167.35,44.9877,72.9583,471.205,804.196)"><stop offset="0" style="stop-color:#3e94fe;stop-opacity:1"/><stop offset="0.43" style="stop-color:#507fec;stop-opacity:1"/><stop offset="0.96" style="stop-color:#794dc1;stop-opacity:1"/><stop offset="1" style="stop-color:#8144b9;stop-opacity:1"/></linearGradient><linearGradient id="_Linear6" x1="0" y1="0" x2="1" y2="0" gradientUnits="userSpaceOnUse" gradientTransform="matrix(1738.33,-1071.89,37.0187,60.0346,657.738,833.942)"><stop offset="0" style="stop-color:#3e94fe;stop-opacity:1"/><stop offset="0.45" style="stop-color:#6c5dce;stop-opacity:1"/><stop offset="0.96" style="stop-color:#794dc1;stop-opacity:1"/><stop offset="1" style="stop-color:#8144b9;stop-opacity:1"/></linearGradient><linearGradient id="_Linear7" x1="0" y1="0" x2="1" y2="0" gradientUnits="userSpaceOnUse" gradientTransform="matrix(1269.57,-782.847,37.0187,60.0346,1165.27,520.983)"><stop offset="0" style="stop-color:#3e94fe;stop-opacity:1"/><stop offset="0.48" style="stop-color:#4d82ef;stop-opacity:1"/><stop offset="0.96" style="stop-color:#794dc1;stop-opacity:1"/><stop offset="1" style="stop-color:#8144b9;stop-opacity:1"/></linearGradient><linearGradient id="_Linear8" x1="0" y1="0" x2="1" y2="0" gradientUnits="userSpaceOnUse" gradientTransform="matrix(-536.446,330.784,21.5242,34.9066,504.699,-29.7573)"><stop offset="0" style="stop-color:#3e94fe;stop-opacity:1"/><stop offset="0.5" style="stop-color:#4f80ed;stop-opacity:1"/><stop offset="1" style="stop-color:#8144b9;stop-opacity:1"/></linearGradient><linearGradient id="_Linear9" x1="0" y1="0" x2="1" y2="0" gradientUnits="userSpaceOnUse" gradientTransform="matrix(722.497,-445.508,29.7363,48.2245,38.2671,533.1)"><stop offset="0" style="stop-color:#3e94fe;stop-opacity:1"/><stop offset="0.48" style="stop-color:#4987f3;stop-opacity:1"/><stop offset="0.95" style="stop-color:#6960d1;stop-opacity:1"/><stop offset="1" style="stop-color:#8144b9;stop-opacity:1"/></linearGradient><linearGradient id="_Linear10" x1="0" y1="0" x2="1" y2="0" gradientUnits="userSpaceOnUse" gradientTransform="matrix(1586.84,-978.48,24.7281,40.1026,49.3591,709.857)"><stop offset="0" style="stop-color:#8144b9;stop-opacity:1"/><stop offset="0.16" style="stop-color:#6269d9;stop-opacity:1"/><stop offset="0.35" style="stop-color:#4888f4;stop-opacity:1"/><stop offset="1" style="stop-color:#3e94fe;stop-opacity:1"/></linearGradient><linearGradient id="_Linear11" x1="0" y1="0" x2="1" y2="0" gradientUnits="userSpaceOnUse" gradientTransform="matrix(959.347,-591.554,24.7281,40.1026,569.217,389.301)"><stop offset="0" style="stop-color:#3e94fe;stop-opacity:1"/><stop offset="0.62" style="stop-color:#4987f3;stop-opacity:1"/><stop offset="0.82" style="stop-color:#6467d7;stop-opacity:1"/><stop offset="1" style="stop-color:#8144b9;stop-opacity:1"/></linearGradient><linearGradient id="_Linear12" x1="0" y1="0" x2="1" y2="0" gradientUnits="userSpaceOnUse" gradientTransform="matrix(1636.14,-1008.88,27.7202,44.9549,1374.91,721.625)"><stop offset="0" style="stop-color:#3e94fe;stop-opacity:1"/><stop offset="1" style="stop-color:#8144b9;stop-opacity:1"/></linearGradient><linearGradient id="_Linear13" x1="0" y1="0" x2="1" y2="0" gradientUnits="userSpaceOnUse" gradientTransform="matrix(1295.73,-798.977,27.7202,44.9549,880.787,1026.31)"><stop offset="0" style="stop-color:#8144b9;stop-opacity:1"/><stop offset="0.26" style="stop-color:#5875e3;stop-opacity:1"/><stop offset="1" style="stop-color:#3e94fe;stop-opacity:1"/></linearGradient><linearGradient id="_Linear14" x1="0" y1="0" x2="1" y2="0" gradientUnits="userSpaceOnUse" gradientTransform="matrix(1752.96,-1080.92,39.1536,63.4969,1503.5,1002)"><stop offset="0" style="stop-color:#3e94fe;stop-opacity:1"/><stop offset="1" style="stop-color:#8144b9;stop-opacity:1"/></linearGradient><linearGradient id="_Linear15" x1="0" y1="0" x2="1" y2="0" gradientUnits="userSpaceOnUse" gradientTransform="matrix(863.473,-532.436,39.1536,63.4969,2568.49,345.305)"><stop offset="0" style="stop-color:#3e94fe;stop-opacity:1"/><stop offset="0.96" style="stop-color:#6a5fd0;stop-opacity:1"/><stop offset="1" style="stop-color:#8144b9;stop-opacity:1"/></linearGradient><linearGradient id="_Linear16" x1="0" y1="0" x2="1" y2="0" gradientUnits="userSpaceOnUse" gradientTransform="matrix(1257.52,-775.415,22.0179,35.7072,2141.45,718.701)"><stop offset="0" style="stop-color:#3e94fe;stop-opacity:1"/><stop offset="1" style="stop-color:#8144b9;stop-opacity:1"/></linearGradient><linearGradient id="_Linear17" x1="0" y1="0" x2="1" y2="0" gradientUnits="userSpaceOnUse" gradientTransform="matrix(-855.419,527.47,22.0179,35.7072,2234.42,661.374)"><stop offset="0" style="stop-color:#3e94fe;stop-opacity:1"/><stop offset="1" style="stop-color:#8144b9;stop-opacity:1"/></linearGradient><linearGradient id="_Linear18" x1="0" y1="0" x2="1" y2="0" gradientUnits="userSpaceOnUse" gradientTransform="matrix(1295.71,-798.963,20.5774,33.3712,1806.02,1069.12)"><stop offset="0" style="stop-color:#3e94fe;stop-opacity:1"/><stop offset="1" style="stop-color:#8144b9;stop-opacity:1"/></linearGradient><linearGradient id="_Linear19" x1="0" y1="0" x2="1" y2="0" gradientUnits="userSpaceOnUse" gradientTransform="matrix(416.189,-256.632,20.5774,33.3712,2551.19,609.63)"><stop offset="0" style="stop-color:#3e94fe;stop-opacity:1"/><stop offset="1" style="stop-color:#8144b9;stop-opacity:1"/></linearGradient><linearGradient id="_Linear20" x1="0" y1="0" x2="1" y2="0" gradientUnits="userSpaceOnUse" gradientTransform="matrix(700.462,-431.92,-14.7751,-23.9613,2327.84,866.526)"><stop offset="0" style="stop-color:#3e94fe;stop-opacity:1"/><stop offset="1" style="stop-color:#8144b9;stop-opacity:1"/></linearGradient><linearGradient id="_Linear21" x1="0" y1="0" x2="1" y2="0" gradientUnits="userSpaceOnUse" gradientTransform="matrix(5.69271e-14,929.69,-929.69,5.69271e-14,4200.3,-856.239)"><stop offset="0" style="stop-color:#3e94fe;stop-opacity:0.501961"/><stop offset="1" style="stop-color:#8144b9;stop-opacity:0.901961"/></linearGradient><linearGradient id="_Linear22" x1="0" y1="0" x2="1" y2="0" gradientUnits="userSpaceOnUse" gradientTransform="matrix(1990.4,-1227.33,16.5644,26.8632,765.588,948.064)"><stop offset="0" style="stop-color:#8144b9;stop-opacity:0.501961"/><stop offset="0.18" style="stop-color:#6467d7;stop-opacity:0.717647"/><stop offset="0.38" style="stop-color:#4987f3;stop-opacity:0.917647"/><stop offset="1" style="stop-color:#3e94fe;stop-opacity:1"/></linearGradient><linearGradient id="_Linear23" x1="0" y1="0" x2="1" y2="0" gradientUnits="userSpaceOnUse" gradientTransform="matrix(471.814,-290.931,21.5242,34.9066,-37.2643,304.429)"><stop offset="0" style="stop-color:#8144b9;stop-opacity:1"/><stop offset="0.44" style="stop-color:#4c83f0;stop-opacity:1"/><stop offset="1" style="stop-color:#3e94fe;stop-opacity:1"/></linearGradient><linearGradient id="_Linear24" x1="0" y1="0" x2="1" y2="0" gradientUnits="userSpaceOnUse" gradientTransform="matrix(5.70331e-14,929.69,-931.422,5.69271e-14,1402.71,3.49)"><stop offset="0" style="stop-color:#3e94fe;stop-opacity:0.4"/><stop offset="1" style="stop-color:#8144b9;stop-opacity:0.901961"/></linearGradient></defs></svg>