<?xml version="1.0" encoding="UTF-8" standalone="no"?><!DOCTYPE svg PUBLIC "-//W3C//DTD SVG 1.1//EN" "http://www.w3.org/Graphics/SVG/1.1/DTD/svg11.dtd"><svg width="100%" height="100%" viewBox="0 0 2798 932" version="1.1" xmlns="http://www.w3.org/2000/svg" xmlns:xlink="http://www.w3.org/1999/xlink" xml:space="preserve" xmlns:serif="http://www.serif.com/" style="fill-rule:evenodd;clip-rule:evenodd;"><rect id="bg9" x="0" y="0" width="2797.15" height="931.808" style="fill:none;"/><clipPath id="_clip1"><rect x="0" y="0" width="2797.15" height="931.808"/></clipPath><g clip-path="url(#_clip1)"><g><path d="M3344.26,760.373l8.235,-3.2l0.454,1.684l-8.689,1.516Zm-2681.38,1042.96l-4.496,0l0.303,1.684l4.193,-1.684Z" style="fill:none;stroke:url(#_Linear2);stroke-width:1.68px;"/><path d="M-151.215,88.458l145.645,236.197l534.752,-329.74l-145.645,-236.197l-534.752,329.74Z" style="fill:url(#_Linear3);"/><path d="M2404.24,-110.511l-141.243,-229.058l-2062.26,1271.64l141.243,229.058l2062.26,-1271.64Z" style="fill:url(#_Linear4);"/><path d="M1742.55,297.504l-140.071,-227.158l-1364.64,841.469l140.071,227.158l1364.64,-841.469Z" style="fill:url(#_Linear5);"/><path d="M-151.215,538.295l150.829,244.605l1486.96,-916.896l-150.829,-244.604l-1486.96,916.895Z" style="fill:url(#_Linear6);"/><path d="M-151.215,538.295l150.829,244.605l774.182,-477.378l-150.828,-244.605l-774.183,477.378Z" style="fill:url(#_Linear7);"/><path d="M-108.195,849.377l125.427,203.408l1908.35,-1176.73l-125.426,-203.409l-1908.35,1176.73Z" style="fill:url(#_Linear8);"/><path d="M652.414,380.368l125.427,203.409l972.033,-599.377l-125.426,-203.409l-972.034,599.377Z" style="fill:url(#_Linear9);"/><path d="M1070.05,997.929l198.595,322.07l1830.72,-1128.87l-198.595,-322.069l-1830.72,1128.86Z" style="fill:url(#_Linear10);"/><path d="M1976.65,438.9l198.596,322.069l924.123,-569.835l-198.595,-322.069l-924.124,569.835Z" style="fill:url(#_Linear11);"/><path d="M2026.06,691.076l111.679,181.115l1012.15,-624.114l-111.68,-181.114l-1012.15,624.113Z" style="fill:url(#_Linear12);"/><path d="M2565.94,358.172l111.679,181.114l-1027.83,633.783l-111.679,-181.115l1027.83,-633.782Z" style="fill:url(#_Linear13);"/><path d="M2033.14,936.684l116.454,188.858l979.514,-603.99l-116.454,-188.858l-979.514,603.99Z" style="fill:url(#_Linear14);"/><path d="M684.871,940.863l134.486,218.101l1962.41,-1210.06l-134.486,-218.101l-1962.41,1210.06Z" style="fill:url(#_Linear15);"/><path d="M1254.19,589.807l134.486,218.101l1393.08,-859.006l-134.486,-218.101l-1393.08,859.006Z" style="fill:url(#_Linear16);"/><path d="M-154.256,296.654l109.175,177.054l789.486,-486.815l-109.176,-177.053l-789.485,486.814Z" style="fill:url(#_Linear17);"/></g><rect id="bg" x="3.722" y="0" width="2793.43" height="931.808" style="fill:url(#_Linear18);fill-rule:nonzero;"/><path d="M-3.053,672.333c0,0 369.416,261.943 1400.1,261.943c1030.68,0 -1400.1,0 -1400.1,0l0,-261.943Z" style="fill:#fff;"/><path d="M2797.15,672.333c0,0 -369.417,261.943 -1400.1,261.943c-1030.68,0 1400.1,0 1400.1,0l0,-261.943Z" style="fill:#fff;"/></g><defs><linearGradient id="_Linear2" x1="0" y1="0" x2="1" y2="0" gradientUnits="userSpaceOnUse" gradientTransform="matrix(1832.31,-20.9559,20.9559,1832.31,1492.19,1297.78)"><stop offset="0" style="stop-color:#fff;stop-opacity:0"/><stop offset="0.92" style="stop-color:#fff;stop-opacity:1"/><stop offset="1" style="stop-color:#fff;stop-opacity:0"/></linearGradient><linearGradient id="_Linear3" x1="0" y1="0" x2="1" y2="0" gradientUnits="userSpaceOnUse" gradientTransform="matrix(597.542,-368.457,48.3552,78.4195,-14.02,166.863)"><stop offset="0" style="stop-color:#672cb2;stop-opacity:1"/><stop offset="1" style="stop-color:#415beb;stop-opacity:1"/></linearGradient><linearGradient id="_Linear4" x1="0" y1="0" x2="1" y2="0" gradientUnits="userSpaceOnUse" gradientTransform="matrix(-2304.41,1420.95,-46.8937,-76.0493,2085.37,-71.9627)"><stop offset="0" style="stop-color:#3e4dfe;stop-opacity:1"/><stop offset="0.46" style="stop-color:#6828d0;stop-opacity:1"/><stop offset="1" style="stop-color:#741dc3;stop-opacity:1"/></linearGradient><linearGradient id="_Linear5" x1="0" y1="0" x2="1" y2="0" gradientUnits="userSpaceOnUse" gradientTransform="matrix(-1524.88,940.273,-46.5047,-75.4185,1508.24,285.219)"><stop offset="0" style="stop-color:#2f57ea;stop-opacity:1"/><stop offset="1" style="stop-color:#682dba;stop-opacity:1"/></linearGradient><linearGradient id="_Linear6" x1="0" y1="0" x2="1" y2="0" gradientUnits="userSpaceOnUse" gradientTransform="matrix(1661.56,-1024.56,50.0764,81.2108,103.198,550.223)"><stop offset="0" style="stop-color:#234deb;stop-opacity:1"/><stop offset="0.15" style="stop-color:#2c4aea;stop-opacity:1"/><stop offset="0.31" style="stop-color:#473fe5;stop-opacity:1"/><stop offset="1" style="stop-color:#8925dc;stop-opacity:1"/></linearGradient><linearGradient id="_Linear7" x1="0" y1="0" x2="1" y2="0" gradientUnits="userSpaceOnUse" gradientTransform="matrix(865.085,-533.431,50.0764,81.2108,17.3943,603.131)"><stop offset="0" style="stop-color:#2f59ec;stop-opacity:1"/><stop offset="0.27" style="stop-color:#3158ea;stop-opacity:1"/><stop offset="0.54" style="stop-color:#3854e5;stop-opacity:1"/><stop offset="1" style="stop-color:#494ad8;stop-opacity:1"/></linearGradient><linearGradient id="_Linear8" x1="0" y1="0" x2="1" y2="0" gradientUnits="userSpaceOnUse" gradientTransform="matrix(2132.43,-1314.9,41.6426,67.5334,184.243,809.428)"><stop offset="0" style="stop-color:#5e28aa;stop-opacity:1"/><stop offset="0.19" style="stop-color:#533bc4;stop-opacity:1"/><stop offset="0.4" style="stop-color:#494ddc;stop-opacity:1"/><stop offset="1" style="stop-color:#4555e6;stop-opacity:1"/></linearGradient><linearGradient id="_Linear9" x1="0" y1="0" x2="1" y2="0" gradientUnits="userSpaceOnUse" gradientTransform="matrix(1086.17,-669.755,41.6426,67.5334,832.139,409.921)"><stop offset="0" style="stop-color:#305cef;stop-opacity:1"/><stop offset="0.62" style="stop-color:#3d58e6;stop-opacity:1"/><stop offset="0.82" style="stop-color:#5d4ed1;stop-opacity:1"/><stop offset="1" style="stop-color:#8144b9;stop-opacity:1"/></linearGradient><linearGradient id="_Linear10" x1="0" y1="0" x2="1" y2="0" gradientUnits="userSpaceOnUse" gradientTransform="matrix(2045.68,-1261.41,65.9353,106.93,1389.73,1023.07)"><stop offset="0" style="stop-color:#3e51fe;stop-opacity:1"/><stop offset="1" style="stop-color:#4d1284;stop-opacity:1"/></linearGradient><linearGradient id="_Linear11" x1="0" y1="0" x2="1" y2="0" gradientUnits="userSpaceOnUse" gradientTransform="matrix(1032.63,-636.744,65.9353,106.93,2187.19,531.339)"><stop offset="0" style="stop-color:#5527ba;stop-opacity:1"/><stop offset="0.57" style="stop-color:#4544e9;stop-opacity:1"/><stop offset="1" style="stop-color:#3e51fe;stop-opacity:1"/></linearGradient><linearGradient id="_Linear12" x1="0" y1="0" x2="1" y2="0" gradientUnits="userSpaceOnUse" gradientTransform="matrix(1130.99,-697.396,37.0784,60.1316,2203.74,706.504)"><stop offset="0" style="stop-color:#2c53df;stop-opacity:1"/><stop offset="0.47" style="stop-color:#5c22c2;stop-opacity:1"/><stop offset="1" style="stop-color:#6a14b9;stop-opacity:1"/></linearGradient><linearGradient id="_Linear13" x1="0" y1="0" x2="1" y2="0" gradientUnits="userSpaceOnUse" gradientTransform="matrix(-1148.52,708.2,37.0784,60.1316,2498.05,525.023)"><stop offset="0" style="stop-color:#3460ea;stop-opacity:1"/><stop offset="1" style="stop-color:#7822ab;stop-opacity:1"/></linearGradient><linearGradient id="_Linear14" x1="0" y1="0" x2="1" y2="0" gradientUnits="userSpaceOnUse" gradientTransform="matrix(1094.53,-674.909,38.6638,62.7027,2209.28,958.406)"><stop offset="0" style="stop-color:#493ec7;stop-opacity:1"/><stop offset="1" style="stop-color:#2949d3;stop-opacity:1"/></linearGradient><linearGradient id="_Linear15" x1="0" y1="0" x2="1" y2="0" gradientUnits="userSpaceOnUse" gradientTransform="matrix(2192.83,-1352.15,44.6504,72.4113,988.345,904.248)"><stop offset="0" style="stop-color:#522cad;stop-opacity:1"/><stop offset="0.48" style="stop-color:#3b58e6;stop-opacity:1"/><stop offset="1" style="stop-color:#3466f8;stop-opacity:1"/></linearGradient><linearGradient id="_Linear16" x1="0" y1="0" x2="1" y2="0" gradientUnits="userSpaceOnUse" gradientTransform="matrix(1556.66,-959.869,44.6504,72.4113,1489.13,595.451)"><stop offset="0" style="stop-color:#3466f8;stop-opacity:1"/><stop offset="0.52" style="stop-color:#3b58e6;stop-opacity:1"/><stop offset="1" style="stop-color:#522cad;stop-opacity:1"/></linearGradient><linearGradient id="_Linear17" x1="0" y1="0" x2="1" y2="0" gradientUnits="userSpaceOnUse" gradientTransform="matrix(882.186,-543.975,36.2471,58.7834,-4.63171,326.579)"><stop offset="0" style="stop-color:#3363f7;stop-opacity:1"/><stop offset="0.51" style="stop-color:#3f55e6;stop-opacity:1"/><stop offset="1" style="stop-color:#652bb0;stop-opacity:1"/></linearGradient><linearGradient id="_Linear18" x1="0" y1="0" x2="1" y2="0" gradientUnits="userSpaceOnUse" gradientTransform="matrix(5.67894e-14,923.553,-927.441,5.65513e-14,1400.43,3.46696)"><stop offset="0" style="stop-color:#3956e8;stop-opacity:0.22"/><stop offset="1" style="stop-color:#5232b3;stop-opacity:0.496078"/></linearGradient></defs></svg>