<?xml version="1.0" encoding="UTF-8" standalone="no"?><!DOCTYPE svg PUBLIC "-//W3C//DTD SVG 1.1//EN" "http://www.w3.org/Graphics/SVG/1.1/DTD/svg11.dtd"><svg width="100%" height="100%" viewBox="0 0 58 55" version="1.1" xmlns="http://www.w3.org/2000/svg" xmlns:xlink="http://www.w3.org/1999/xlink" xml:space="preserve" xmlns:serif="http://www.serif.com/" style="fill-rule:evenodd;clip-rule:evenodd;stroke-linejoin:round;stroke-miterlimit:1.41421;"><ellipse cx="28.619" cy="27.432" rx="28.619" ry="27.432" style="fill:#e1eefe;"/><g><circle cx="17.994" cy="37.405" r="6.65" style="fill:#3956e8;"/><circle cx="39.243" cy="17.458" r="6.65" style="fill:#3956e8;"/><path d="M17.994,37.405l21.249,-19.947" style="fill:#3956e8;"/><path d="M39.387,15.747c0.106,0.012 0.133,0.013 0.237,0.036c0.7,0.159 1.264,0.801 1.33,1.52c0.039,0.439 -0.097,0.89 -0.373,1.232c-0.066,0.083 -0.087,0.1 -0.162,0.176l-21.249,19.946c-0.08,0.07 -0.098,0.09 -0.186,0.152c-0.774,0.545 -2.002,0.306 -2.489,-0.566c-0.331,-0.593 -0.267,-1.384 0.161,-1.915c0.067,-0.083 0.088,-0.1 0.163,-0.176l21.248,-19.946c0.08,-0.07 0.099,-0.09 0.186,-0.152c0.325,-0.229 0.718,-0.328 1.134,-0.307Z" style="fill:#3956e8;fill-rule:nonzero;"/></g></svg>
