<?xml version="1.0" encoding="UTF-8" standalone="no"?><!DOCTYPE svg PUBLIC "-//W3C//DTD SVG 1.1//EN" "http://www.w3.org/Graphics/SVG/1.1/DTD/svg11.dtd"><svg width="100%" height="100%" viewBox="0 0 77 74" version="1.1" xmlns="http://www.w3.org/2000/svg" xmlns:xlink="http://www.w3.org/1999/xlink" xml:space="preserve" xmlns:serif="http://www.serif.com/" style="fill-rule:evenodd;clip-rule:evenodd;stroke-linejoin:round;stroke-miterlimit:1.41421;"><path d="M38.158,0c21.06,0 38.158,16.389 38.158,36.575c0,20.187 -17.098,36.576 -38.158,36.576c-21.06,0 -38.158,-16.389 -38.158,-36.576c0,-20.186 17.098,-36.575 38.158,-36.575Zm6.543,44.073l2.668,6.328c0.201,0.43 0.467,0.767 0.797,1.011c0.33,0.244 0.696,0.366 1.097,0.366c0.517,0 0.969,-0.186 1.356,-0.56c0.388,-0.373 0.581,-0.846 0.581,-1.42c0,-0.287 -0.043,-0.56 -0.129,-0.818l-10.933,-26.256c-0.143,-0.431 -0.387,-0.761 -0.732,-0.99c-0.344,-0.23 -0.731,-0.345 -1.162,-0.345c-0.459,-0.057 -0.868,0.036 -1.227,0.28c-0.358,0.244 -0.638,0.595 -0.839,1.055l-10.976,26.601c-0.057,0.344 -0.086,0.573 -0.086,0.688c0,0.545 0.158,0.976 0.473,1.292c0.316,0.315 0.775,0.473 1.378,0.473c0.401,0 0.767,-0.115 1.097,-0.344c0.33,-0.23 0.567,-0.56 0.711,-0.99l2.625,-6.371l13.301,0Zm-11.665,-3.917l10.029,0l-5.036,-12.052l-4.993,12.052Z" style="fill:#ab71fc;"/></svg>