<?xml version="1.0" encoding="UTF-8" standalone="no"?><!DOCTYPE svg PUBLIC "-//W3C//DTD SVG 1.1//EN" "http://www.w3.org/Graphics/SVG/1.1/DTD/svg11.dtd"><svg width="100%" height="100%" viewBox="0 0 77 74" version="1.1" xmlns="http://www.w3.org/2000/svg" xmlns:xlink="http://www.w3.org/1999/xlink" xml:space="preserve" xmlns:serif="http://www.serif.com/" style="fill-rule:evenodd;clip-rule:evenodd;stroke-linejoin:round;stroke-miterlimit:1.41421;"><g><g><ellipse cx="38.158" cy="36.575" rx="38.158" ry="36.575" style="fill:#ecf6ff;"/></g></g><g><g><path d="M30.417,42.166c0,-1.247 -1.012,-2.259 -2.259,-2.259c-1.247,0 -2.259,1.012 -2.259,2.259l0,9.288c0,1.246 1.012,2.259 2.259,2.259c1.247,0 2.259,-1.013 2.259,-2.259l0,-9.288Z" style="fill:#3956e8;"/><g><path d="M40.417,30.237c0,-1.247 -1.012,-2.259 -2.259,-2.259c-1.247,0 -2.259,1.012 -2.259,2.259l0,21.217c0,1.246 1.012,2.259 2.259,2.259c1.247,0 2.259,-1.013 2.259,-2.259l0,-21.217Z" style="fill:#3956e8;"/></g><g><path d="M50.417,21.697c0,-1.246 -1.012,-2.259 -2.259,-2.259c-1.247,0 -2.259,1.013 -2.259,2.259l0,29.757c0,1.246 1.012,2.259 2.259,2.259c1.247,0 2.259,-1.013 2.259,-2.259l0,-29.757Z" style="fill:#3956e8;"/></g></g></g></svg>