<?xml version="1.0" encoding="UTF-8" standalone="no"?>
<!DOCTYPE svg PUBLIC "-//W3C//DTD SVG 1.1//EN" "http://www.w3.org/Graphics/SVG/1.1/DTD/svg11.dtd"><svg viewBox="0 0 523 516" version="1.1" xmlns="http://www.w3.org/2000/svg" xmlns:xlink="http://www.w3.org/1999/xlink" xml:space="preserve"
  xmlns:serif="http://www.serif.com/" style="fill-rule:evenodd;clip-rule:evenodd;stroke-linejoin:round;stroke-miterlimit:1.41421;">
  <g id="shells">
    <ellipse cx="261.144" cy="257.872" rx="260.925" ry="257.393" style="fill:#ecf6ff;stroke:#d3dee9;stroke-width:0.37px;" />
    <ellipse cx="261.144" cy="257.872" rx="191.794" ry="189.197" style="fill:#daecff;stroke:#d3dee9;stroke-width:0.38px;" />
    <ellipse cx="261.144" cy="257.872" rx="111.462" ry="109.953" style="fill:#bed7f5;stroke:#d3dee9;stroke-width:0.38px;" />
  </g>
  <g id="elements">
    <g id="revisionhub">
      <ellipse cx="260.743" cy="258.307" rx="72.819" ry="71.833" style="fill:#fff;" />
      <path id="logo"
        d="M260.736,262.572c3.049,-10.111 6.918,-19.868 12.638,-28.673c1.439,-2.215 2.778,-4.87 5.612,-5.167c0.145,-0.015 0.163,-0.025 0.49,-0.018c1.183,0.047 2.283,0.705 2.928,1.745c1.3,2.097 0.843,4.786 0.092,7.028c-0.91,2.72 -2.49,5.183 -4.269,7.483c-2.556,3.305 -5.464,6.57 -9.147,8.274c-0.381,0.177 -0.773,0.332 -1.177,0.451c-0.246,0.65 -0.487,1.3 -0.723,1.951c0.835,-0.374 1.721,-0.644 2.644,-0.789c0.378,-0.06 0.758,-0.099 1.143,-0.097c1.923,0.03 3.791,1.121 4.488,3.056c1.301,3.612 -0.735,7.553 -2.061,10.612c-1.033,2.406 -2.261,4.894 -2.155,7.452c0,0 1.922,-1.107 3.251,-2.416c2.075,-2.043 3.793,-4.43 5.252,-6.949c0,0 1.253,-1.319 2.451,-0.792c1.009,0.443 1.391,1.811 0.809,2.81c-0.298,0.511 -1.5,2.479 -2.738,4.108c-2.037,2.68 -4.263,5.363 -7.452,6.703c-1.459,0.613 -3.378,0.621 -4.486,-0.657c-1.87,-2.16 -0.715,-5.896 0.492,-9.164c0.272,-0.737 0.565,-1.466 0.871,-2.189c0.979,-2.315 2.227,-4.602 2.275,-7.201c0.018,-0.957 -0.01,-1.904 -2.032,-1.433c-2.506,0.583 -4.592,2.71 -5.458,5.046l0,0l-0.002,0.005l-0.017,0.044c-1.45,4.708 -2.712,9.452 -3.879,14.241l-0.077,0.32c-0.347,1.175 -0.896,1.268 -1.383,1.394c-1.263,0.327 -2.615,-0.919 -2.357,-2.275c0.313,-1.296 0.632,-2.591 0.958,-3.884c-1.732,2.031 -3.668,3.852 -5.947,5.279c-2.479,1.554 -5.884,2.247 -8.542,0.523c-3.593,-2.331 -4.964,-7.108 -5.86,-11.249l-0.008,-0.037c-1.025,3.405 -1.969,6.828 -2.865,10.265c0,0 -0.641,1.374 -1.78,1.422c-1.068,0.045 -2.061,-0.941 -2.001,-2c0.009,-0.165 0.023,-0.205 0.057,-0.367c1.589,-6.096 3.361,-12.21 5.381,-18.155l0.136,-0.507c0.177,-0.544 0.917,-2.524 1.536,-4.182c3.017,-8.085 6.31,-16.466 12.228,-22.416c0.271,-0.272 0.549,-0.536 0.836,-0.791c0.216,-0.191 0.437,-0.378 0.663,-0.557c0.189,-0.15 0.383,-0.296 0.58,-0.436c1.299,-0.92 2.767,-1.613 4.43,-1.64c0.085,0 0.085,0 0.171,0.001c1.361,0.041 2.671,0.607 3.634,1.586c2.429,2.469 2.536,6.325 2.006,9.536c-0.903,5.465 -4.026,10.612 -7.611,14.694c-3.605,4.104 -8.647,7.336 -14.449,6.996l-0.068,-0.004c0.451,4.62 1.076,9.474 3.633,13.163c0.637,0.919 1.481,1.795 2.611,1.945c1.905,0.252 3.574,-1.112 4.899,-2.236c3.845,-3.265 6.683,-7.58 9.349,-11.852Zm-4.138,-30.036c-1.578,0.026 -2.957,1.379 -4.147,2.646c-4.016,4.273 -6.521,9.757 -8.849,15.248c-1.02,2.405 -1.956,4.843 -2.84,7.294l-0.02,0.056c5.476,0.219 10.397,-4.233 13.415,-8.708c2.663,-3.95 5.027,-8.372 4.556,-13.085c-0.038,-0.384 -0.1,-0.768 -0.193,-1.144c-0.041,-0.166 -0.088,-0.331 -0.142,-0.493c-0.04,-0.118 -0.083,-0.235 -0.131,-0.35c-0.043,-0.104 -0.09,-0.208 -0.142,-0.309c-0.041,-0.081 -0.085,-0.161 -0.132,-0.239c-0.037,-0.06 -0.075,-0.119 -0.115,-0.176c-0.287,-0.408 -0.731,-0.741 -1.26,-0.74Zm22.588,0.068c-0.588,0.373 -0.98,0.983 -1.39,1.575c-2.976,4.315 -5.436,8.944 -7.544,13.744l-0.013,0.03c4.064,-3.394 7.563,-7.851 8.79,-12.256c0.289,-1.039 0.503,-2.203 0.17,-3.1c0,0 -0.008,0.004 -0.013,0.007Z"
        style="fill:#5232b3;" />
    </g>
    <g id="integrations">
      <g id="youtube">
        <circle cx="382.209" cy="108.303" r="43.741" style="fill:#fff;" />
        <path id="logo1" serif:id="logo"
          d="M409.178,103.025c0.02,-2.273 -1.182,-4.404 -3.138,-5.562c-3.567,-2.134 -19.016,-6.439 -19.016,-6.439c0,0 -15.449,-4.305 -19.594,-4.365c-2.233,-0.008 -4.416,1.223 -5.574,3.179c-2.093,3.579 -4.325,11.588 -4.325,11.588c0,0 -2.243,8.049 -2.291,12.154c-0.02,2.273 1.182,4.404 3.137,5.562c3.609,2.145 19.017,6.439 19.017,6.439c0,0 15.449,4.305 19.594,4.365c2.273,0.02 4.404,-1.182 5.563,-3.138c2.092,-3.579 4.324,-11.588 4.324,-11.588c0,0 2.284,-8.038 2.303,-12.195Zm-33.95,11.306l14.909,-3.819l-10.785,-10.979l-4.124,14.798Z"
          style="fill:#f00;" />
      </g>
      <g id="timer">
        <path d="M477.039,238.361c15.871,15.013 16.567,40.088 1.553,55.959c-15.014,15.871 -40.088,16.567 -55.959,1.553c-15.871,-15.014 -16.567,-40.088 -1.553,-55.959c15.014,-15.871 40.088,-16.567 55.959,-1.553Z" style="fill:#fff;" />
        <g id="icon">
          <g>
            <path
              d="M461.214,255.862c4.811,4.639 6.702,12.063 4.679,18.418c-1.63,5.119 -5.681,9.395 -10.691,11.302c-7.277,2.769 -16.265,0.257 -20.978,-6.295c-4.336,-6.026 -4.366,-14.801 -0.056,-20.86c3.356,-4.717 9.099,-7.628 14.886,-7.548c4.407,0.061 8.763,1.827 11.992,4.824c0.056,0.053 0.112,0.106 0.168,0.159Zm-2.693,2.544c-4.763,-4.421 -12.66,-5.026 -18.031,-1.161c-3.851,2.77 -6.159,7.563 -5.913,12.309c0.284,5.483 4.002,10.656 9.228,12.606c4.255,1.588 9.26,0.994 13.013,-1.566c3.924,-2.676 6.35,-7.417 6.217,-12.171c-0.105,-3.751 -1.723,-7.393 -4.514,-10.017Z"
              style="fill:#f58519;fill-rule:nonzero;" />
            <g>
              <path d="M456.866,260.29c0.062,-0.065 0.059,-0.169 -0.006,-0.231l-0.238,-0.225c-0.066,-0.062 -0.17,-0.059 -0.232,0.006l-7.954,8.409c-0.062,0.065 -0.059,0.169 0.006,0.231l0.238,0.225c0.066,0.062 0.17,0.059 0.232,-0.006l7.954,-8.409Z"
                style="fill:none;stroke:#f58519;stroke-width:2.82px;stroke-linecap:round;stroke-miterlimit:1.5;" />
              <path d="M459.819,265.127c0.086,-0.028 0.133,-0.121 0.105,-0.207l-0.101,-0.311c-0.028,-0.086 -0.121,-0.133 -0.207,-0.105l-11.004,3.588c-0.086,0.028 -0.133,0.12 -0.105,0.206l0.101,0.312c0.028,0.086 0.121,0.133 0.207,0.105l11.004,-3.588Z"
                style="fill:none;stroke:#f58519;stroke-width:2.82px;stroke-linecap:round;stroke-miterlimit:1.5;" />
            </g>
          </g>
          <path d="M465.361,255.014c0.482,-0.51 0.46,-1.316 -0.05,-1.799l-1.849,-1.749c-0.51,-0.482 -1.317,-0.46 -1.799,0.05l-2.778,2.937c-0.483,0.51 -0.46,1.316 0.05,1.799l1.849,1.749c0.51,0.482 1.316,0.46 1.799,-0.05l2.778,-2.937Z"
            style="fill:#f58519;" />
          <path d="M469.362,266.883c0.386,-0.059 0.652,-0.419 0.593,-0.805l-0.211,-1.398c-0.059,-0.385 -0.419,-0.651 -0.805,-0.593l-3.861,0.584c-0.385,0.059 -0.651,0.419 -0.593,0.805l0.212,1.398c0.058,0.386 0.419,0.651 0.804,0.593l3.861,-0.584Z"
            style="fill:#f58519;" />
        </g>
      </g>
      <g id="a-grade">
        <path d="M176.232,53.029c18.435,-7.639 39.604,1.126 47.244,19.561c7.639,18.435 -1.126,39.605 -19.561,47.244c-18.435,7.64 -39.605,-1.125 -47.244,-19.561c-7.639,-18.435 1.125,-39.604 19.561,-47.244Z" style="fill:#fff;" />
        <path id="grade"
          d="M207.001,93.045c0.181,0.209 0.327,0.448 0.438,0.717c0.223,0.538 0.226,1.057 0.007,1.558c-0.218,0.5 -0.569,0.85 -1.053,1.051c-0.377,0.156 -0.768,0.184 -1.172,0.083c-0.404,-0.1 -0.784,-0.313 -1.139,-0.639l-4.961,-4.895l-12.471,5.167l0.014,6.994c0.032,0.459 -0.061,0.86 -0.282,1.204c-0.22,0.343 -0.518,0.593 -0.895,0.749c-0.565,0.234 -1.057,0.265 -1.475,0.091c-0.419,-0.173 -0.734,-0.515 -0.946,-1.026c-0.045,-0.108 -0.107,-0.334 -0.187,-0.68l-0.044,-29.206c0.01,-0.508 0.136,-0.946 0.377,-1.315c0.242,-0.368 0.589,-0.614 1.042,-0.738c0.403,-0.168 0.811,-0.211 1.223,-0.129c0.412,0.081 0.769,0.296 1.071,0.644l20.453,20.37Zm-20.339,-1.266l9.403,-3.896l-9.404,-9.344l0.001,13.24Z"
          style="fill:#4bbe2d;fill-rule:nonzero;" />
      </g>
      <g id="dropbox">
        <path d="M57.766,183.909c22.053,-5.336 44.288,8.236 49.624,30.289c5.336,22.052 -8.236,44.288 -30.289,49.623c-22.052,5.336 -44.288,-8.236 -49.624,-30.288c-5.335,-22.053 8.237,-44.289 30.289,-49.624Z" style="fill:#fff;" />
        <g id="logo2" serif:id="logo">
          <path id="polygon8" d="M49.824,205.901l-10.288,14.004l12.248,4.011l10.557,-13.633l-12.517,-4.382Z" style="fill:#007ee5;fill-rule:nonzero;" />
          <path id="polygon10" d="M45.193,234.993l16.959,3.787l6.55,-11.532l-16.918,-3.332l-6.591,11.077Z" style="fill:#007ee5;fill-rule:nonzero;" />
          <path id="polygon12" d="M68.702,227.248l12.517,4.383l10.289,-14.004l-12.249,-4.012l-10.557,13.633Z" style="fill:#007ee5;fill-rule:nonzero;" />
          <path id="polygon14" d="M85.85,202.539l-16.959,-3.787l-6.55,11.531l16.918,3.332l6.591,-11.076Z" style="fill:#007ee5;fill-rule:nonzero;" />
          <path id="polygon16" d="M69.372,228.949l-6.586,11.519l-5.094,-1.137l1.123,2.995l16.723,3.067l10.583,-13.306l-1.123,-2.994l-3.09,4.205l-12.536,-4.349Z" style="fill:#007ee5;fill-rule:nonzero;" />
        </g>
      </g>
      <g id="b-grade">
        <path d="M156.614,364.557c17.356,7.874 25.054,28.357 17.18,45.713c-7.873,17.355 -28.356,25.054 -45.712,17.18c-17.356,-7.874 -25.054,-28.357 -17.181,-45.713c7.874,-17.355 28.357,-25.054 45.713,-17.18Z" style="fill:#fff;" />
        <path id="grade1" serif:id="grade"
          d="M149.089,397.605c1.175,1.113 1.962,2.424 2.362,3.934c0.399,1.51 0.196,3.151 -0.608,4.925c-1.275,2.811 -3.003,4.448 -5.183,4.91c-2.179,0.462 -4.447,0.159 -6.803,-0.91l-9.764,-4.43c-0.507,-0.23 -0.857,-0.602 -1.051,-1.118c-0.194,-0.515 -0.176,-1.026 0.054,-1.533l10.411,-22.949c0.23,-0.507 0.603,-0.857 1.118,-1.051c0.516,-0.193 1.027,-0.175 1.533,0.054l9.765,4.43c2.305,1.046 3.801,2.412 4.487,4.097c0.686,1.686 0.541,3.605 -0.436,5.759c-0.552,1.215 -1.334,2.166 -2.348,2.852c-1.013,0.685 -2.192,1.029 -3.537,1.03Zm1.713,-5.088c0.54,-1.19 0.628,-2.242 0.263,-3.156c-0.364,-0.914 -1.129,-1.635 -2.294,-2.163l-7.181,-3.258l-3.361,7.409l7.257,3.292c1.05,0.446 2.063,0.501 3.04,0.165c0.977,-0.335 1.736,-1.098 2.276,-2.289Zm-10.397,14.434c1.393,0.632 2.672,0.777 3.835,0.434c1.163,-0.343 2.073,-1.236 2.728,-2.68c1.275,-2.811 0.317,-4.941 -2.875,-6.389l-7.485,-3.396l-3.878,8.549l7.675,3.482Z"
          style="fill:#c1d853;fill-rule:nonzero;" />
      </g>
      <g id="evernote">
        <path d="M352.722,387.785c16.323,-0.761 30.194,11.874 30.954,28.197c0.761,16.324 -11.874,30.194 -28.197,30.954c-16.324,0.761 -30.194,-11.874 -30.955,-28.197c-0.76,-16.324 11.875,-30.194 28.198,-30.954Z" style="fill:#fff;" />
        <path id="logo3" serif:id="logo"
          d="M343.98,405.952l3.154,0.349c0.181,0.02 0.342,-0.109 0.362,-0.286c0.001,-0.001 0.258,-2.675 0.34,-3.417l0.001,-0.009c0.067,-0.609 0.255,-1.126 0.53,-1.547l0.13,-0.188c-0.012,0.001 -0.025,0.005 -0.038,0.016l-6.79,5.322c-0.013,0.009 -0.021,0.021 -0.026,0.033c0.133,-0.048 0.316,-0.113 0.341,-0.121c0.56,-0.179 1.221,-0.238 1.996,-0.152Zm24.603,2.061c-0.104,-1.352 -0.828,-2.093 -1.521,-2.429c-0.746,-0.364 -2.291,-0.826 -4.246,-1.275c-1.573,-0.362 -3.448,-0.554 -4.583,-0.645c-0.034,-0.934 -0.594,-1.845 -1.291,-2.217c-1.86,-0.988 -4.885,-1.134 -5.68,-1.005c-0.632,0.101 -1.349,0.373 -1.785,0.865c-0.293,0.329 -0.508,0.769 -0.58,1.408c-0.04,0.361 -0.124,1.214 -0.198,1.972c-0.075,0.761 -0.14,1.441 -0.14,1.445c-0.076,0.676 -0.691,1.165 -1.379,1.09l-3.153,-0.349c-0.672,-0.074 -1.199,-0.02 -1.611,0.113c-0.412,0.133 -0.717,0.34 -0.96,0.598c-0.483,0.512 -0.632,1.193 -0.708,1.896c0,0 -0.057,0.576 -0.04,1.703c0.021,0.874 0.301,6.991 0.996,8.919c0.269,0.75 0.468,1.072 1.117,1.461c1.452,0.813 4.852,1.914 6.46,2.3c1.605,0.386 2.579,0.931 3.327,-0.262c0.003,-0.003 0.157,-0.3 0.372,-0.738c0.704,-1.524 0.933,-2.919 1.045,-3.935c0.011,-0.104 0.165,-0.091 0.153,0.017c-0.079,0.717 -0.498,3.24 1.367,4.135c0.737,0.354 2.3,0.769 3.894,1.134c1.442,0.328 2.439,1.013 2.03,4.714c-0.249,2.251 -0.762,2.507 -3.265,2.23c-2.029,-0.224 -2.808,-0.258 -2.632,-1.85c0.142,-1.287 1.416,-1.01 2.371,-0.904c0.426,0.047 0.151,-0.301 0.239,-1.094c0.088,-0.79 0.638,-1.191 0.167,-1.255c-3.293,-0.455 -5.245,-0.584 -5.696,3.495c-0.41,3.703 0.949,4.55 5.635,5.068c3.675,0.407 4.983,0.431 7.015,-4.051c0.402,-0.885 1.438,-3.606 2.397,-8.261c0.607,-2.944 1.061,-11.98 0.883,-14.293Zm-7.503,9.213c-0.452,-0.066 -0.892,-0.086 -1.306,-0.066c0.216,-0.902 0.722,-1.981 2.07,-1.784c1.492,0.216 1.547,1.638 1.448,2.586c-0.601,-0.348 -1.363,-0.612 -2.212,-0.736Z"
          style="fill:#2dbe60;fill-rule:nonzero;" />
      </g>
    </g>
  </g>
</svg>
