<svg viewBox="0 0 523 516" fill="none" xmlns="http://www.w3.org/2000/svg">
  <g class="shells">
    <path d="M261.144 515.265C405.249 515.265 522.069 400.026 522.069 257.872C522.069 115.718 405.249 0.479004 261.144 0.479004C117.039 0.479004 0.219 115.718 0.219 257.872C0.219 400.026 117.039 515.265 261.144 515.265Z" fill="#ECF6FF"
      stroke="#D3DEE9" stroke-width="0.37" stroke-miterlimit="1.41421" stroke-linejoin="round" />
    <path d="M261.144 447.069C367.069 447.069 452.938 362.363 452.938 257.872C452.938 153.381 367.069 68.675 261.144 68.675C155.219 68.675 69.35 153.381 69.35 257.872C69.35 362.363 155.219 447.069 261.144 447.069Z" fill="#DAECFF" stroke="#D3DEE9"
      stroke-width="0.38" stroke-miterlimit="1.41421" stroke-linejoin="round" />
    <path d="M261.144 367.825C322.703 367.825 372.606 318.597 372.606 257.872C372.606 197.147 322.703 147.919 261.144 147.919C199.585 147.919 149.682 197.147 149.682 257.872C149.682 318.597 199.585 367.825 261.144 367.825Z" fill="#BED7F5"
      stroke="#D3DEE9" stroke-width="0.38" stroke-miterlimit="1.41421" stroke-linejoin="round" />
  </g>
  <g id="elements">
    <g id="revisionhub" filter="url(#filter0_d)">
      <path d="M260.743 330.14C300.96 330.14 333.562 297.979 333.562 258.307C333.562 218.635 300.96 186.474 260.743 186.474C220.526 186.474 187.924 218.635 187.924 258.307C187.924 297.979 220.526 330.14 260.743 330.14Z" fill="white" />
      <path class="logo" fill-rule="evenodd" clip-rule="evenodd"
        d="M260.736 262.572C263.785 252.461 267.654 242.704 273.374 233.899C274.813 231.684 276.152 229.029 278.986 228.732C279.131 228.717 279.149 228.707 279.476 228.714C280.659 228.761 281.759 229.419 282.404 230.459C283.704 232.556 283.247 235.245 282.496 237.487C281.586 240.207 280.006 242.67 278.227 244.97C275.671 248.275 272.763 251.54 269.08 253.244C268.699 253.421 268.307 253.576 267.903 253.695C267.657 254.345 267.416 254.995 267.18 255.646C268.015 255.272 268.901 255.002 269.824 254.857C270.202 254.797 270.582 254.758 270.967 254.76C272.89 254.79 274.758 255.881 275.455 257.816C276.756 261.428 274.72 265.369 273.394 268.428C272.361 270.834 271.133 273.322 271.239 275.88C271.239 275.88 273.161 274.773 274.49 273.464C276.565 271.421 278.283 269.034 279.742 266.515C279.742 266.515 280.995 265.196 282.193 265.723C283.202 266.166 283.584 267.534 283.002 268.533C282.704 269.044 281.502 271.012 280.264 272.641C278.227 275.321 276.001 278.004 272.812 279.344C271.353 279.957 269.434 279.965 268.326 278.687C266.456 276.527 267.611 272.791 268.818 269.523C269.09 268.786 269.383 268.057 269.689 267.334C270.668 265.019 271.916 262.732 271.964 260.133C271.982 259.176 271.954 258.229 269.932 258.7C267.426 259.283 265.34 261.41 264.474 263.746L264.472 263.751L264.455 263.795C263.005 268.503 261.743 273.247 260.576 278.036L260.499 278.356C260.152 279.531 259.603 279.624 259.116 279.75C257.853 280.077 256.501 278.831 256.759 277.475C257.072 276.179 257.391 274.884 257.717 273.591C255.985 275.622 254.049 277.443 251.77 278.87C249.291 280.424 245.886 281.117 243.228 279.393C239.635 277.062 238.264 272.285 237.368 268.144L237.36 268.107C236.335 271.512 235.391 274.935 234.495 278.372C234.495 278.372 233.854 279.746 232.715 279.794C231.647 279.839 230.654 278.853 230.714 277.794C230.723 277.629 230.737 277.589 230.771 277.427C232.36 271.331 234.132 265.217 236.152 259.272L236.288 258.765C236.465 258.221 237.205 256.241 237.824 254.583C240.841 246.498 244.134 238.117 250.052 232.167C250.323 231.895 250.601 231.631 250.888 231.376C251.104 231.185 251.325 230.998 251.551 230.819C251.74 230.669 251.934 230.523 252.131 230.383C253.43 229.463 254.898 228.77 256.561 228.743C256.646 228.743 256.646 228.743 256.732 228.744C258.093 228.785 259.403 229.351 260.366 230.33C262.795 232.799 262.902 236.655 262.372 239.866C261.469 245.331 258.346 250.478 254.761 254.56C251.156 258.664 246.114 261.896 240.312 261.556L240.244 261.552C240.695 266.172 241.32 271.026 243.877 274.715C244.514 275.634 245.358 276.51 246.488 276.66C248.393 276.912 250.062 275.548 251.387 274.424C255.232 271.159 258.07 266.844 260.736 262.572V262.572ZM256.598 232.536C255.02 232.562 253.641 233.915 252.451 235.182C248.435 239.455 245.93 244.939 243.602 250.43C242.582 252.835 241.646 255.273 240.762 257.724L240.742 257.78C246.218 257.999 251.139 253.547 254.157 249.072C256.82 245.122 259.184 240.7 258.713 235.987C258.675 235.603 258.613 235.219 258.52 234.843C258.479 234.677 258.432 234.512 258.378 234.35C258.338 234.232 258.295 234.115 258.247 234C258.204 233.896 258.157 233.792 258.105 233.691C258.064 233.61 258.02 233.53 257.973 233.452C257.936 233.392 257.898 233.333 257.858 233.276C257.571 232.868 257.127 232.535 256.598 232.536V232.536ZM279.186 232.604C278.598 232.977 278.206 233.587 277.796 234.179C274.82 238.494 272.36 243.123 270.252 247.923L270.239 247.953C274.303 244.559 277.802 240.102 279.029 235.697C279.318 234.658 279.532 233.494 279.199 232.597C279.199 232.597 279.191 232.601 279.186 232.604V232.604Z"
        fill="#5232B3" />
    </g>
    <g id="outer-elements">
      <g id="youtube" filter="url(#filter1_d)">
        <path d="M382.209 152.044C406.367 152.044 425.95 132.46 425.95 108.303C425.95 84.1455 406.367 64.562 382.209 64.562C358.052 64.562 338.468 84.1455 338.468 108.303C338.468 132.46 358.052 152.044 382.209 152.044Z" fill="white" />
        <path class="logo" fill-rule="evenodd" clip-rule="evenodd"
          d="M409.178 103.025C409.198 100.752 407.996 98.621 406.04 97.463C402.473 95.329 387.024 91.024 387.024 91.024C387.024 91.024 371.575 86.719 367.43 86.659C365.197 86.651 363.014 87.882 361.856 89.838C359.763 93.417 357.531 101.426 357.531 101.426C357.531 101.426 355.288 109.475 355.24 113.58C355.22 115.853 356.422 117.984 358.377 119.142C361.986 121.287 377.394 125.581 377.394 125.581C377.394 125.581 392.843 129.886 396.988 129.946C399.261 129.966 401.392 128.764 402.551 126.808C404.643 123.229 406.875 115.22 406.875 115.22C406.875 115.22 409.159 107.182 409.178 103.025ZM375.228 114.331L390.137 110.512L379.352 99.533L375.228 114.331V114.331Z"
          fill="#FF0000" />
      </g>
      <g id="timer" filter="url(#filter2_d)">
        <path fill-rule="evenodd" clip-rule="evenodd"
          d="M477.039 238.361C492.91 253.374 493.606 278.449 478.592 294.32C463.578 310.191 438.504 310.887 422.633 295.873C406.762 280.859 406.066 255.785 421.08 239.914C436.094 224.043 461.168 223.347 477.039 238.361Z" fill="white" />
        <g class="logo">
          <path
            d="M461.214 255.862C466.025 260.501 467.916 267.925 465.893 274.28C464.263 279.399 460.212 283.675 455.202 285.582C447.925 288.351 438.937 285.839 434.224 279.287C429.888 273.261 429.858 264.486 434.168 258.427C437.524 253.71 443.267 250.799 449.054 250.879C453.461 250.94 457.817 252.706 461.046 255.703C461.102 255.756 461.158 255.809 461.214 255.862V255.862ZM458.521 258.406C453.758 253.985 445.861 253.38 440.49 257.245C436.639 260.015 434.331 264.808 434.577 269.554C434.861 275.037 438.579 280.21 443.805 282.16C448.06 283.748 453.065 283.154 456.818 280.594C460.742 277.918 463.168 273.177 463.035 268.423C462.93 264.672 461.312 261.03 458.521 258.406V258.406Z"
            fill="#F58519" />
          <path fill-rule="evenodd" clip-rule="evenodd"
            d="M456.866 260.29C456.928 260.225 456.925 260.121 456.86 260.059L456.622 259.834C456.556 259.772 456.452 259.775 456.39 259.84L448.436 268.249C448.374 268.314 448.377 268.418 448.442 268.48L448.68 268.705C448.746 268.767 448.85 268.764 448.912 268.699L456.866 260.29Z"
            stroke="#F58519" stroke-width="2.82" stroke-miterlimit="1.5" stroke-linecap="round" stroke-linejoin="round" />
          <path fill-rule="evenodd" clip-rule="evenodd"
            d="M459.819 265.127C459.905 265.099 459.952 265.006 459.924 264.92L459.823 264.609C459.795 264.523 459.702 264.476 459.616 264.504L448.612 268.092C448.526 268.12 448.479 268.212 448.507 268.298L448.608 268.61C448.636 268.696 448.729 268.743 448.815 268.715L459.819 265.127V265.127Z"
            stroke="#F58519" stroke-width="2.82" stroke-miterlimit="1.5" stroke-linecap="round" stroke-linejoin="round" />
          <path fill-rule="evenodd" clip-rule="evenodd"
            d="M465.361 255.014C465.843 254.504 465.821 253.698 465.311 253.215L463.462 251.466C462.952 250.984 462.145 251.006 461.663 251.516L458.885 254.453C458.402 254.963 458.425 255.769 458.935 256.252L460.784 258.001C461.294 258.483 462.1 258.461 462.583 257.951L465.361 255.014Z"
            fill="#F58519" />
          <path fill-rule="evenodd" clip-rule="evenodd"
            d="M469.362 266.883C469.748 266.824 470.014 266.464 469.955 266.078L469.744 264.68C469.685 264.295 469.325 264.029 468.939 264.087L465.078 264.671C464.693 264.73 464.427 265.09 464.485 265.476L464.697 266.874C464.755 267.26 465.116 267.525 465.501 267.467L469.362 266.883V266.883Z"
            fill="#F58519" />
        </g>
      </g>
      <g id="a-grade" filter="url(#filter3_d)">
        <path fill-rule="evenodd" clip-rule="evenodd"
          d="M176.232 53.029C194.667 45.39 215.836 54.155 223.476 72.59C231.115 91.025 222.35 112.195 203.915 119.834C185.48 127.474 164.31 118.709 156.671 100.273C149.032 81.838 157.796 60.669 176.232 53.029V53.029Z" fill="white" />
        <path class="logo"
          d="M207.001 93.045C207.182 93.254 207.328 93.493 207.439 93.762C207.662 94.3 207.665 94.819 207.446 95.32C207.228 95.82 206.877 96.17 206.393 96.371C206.016 96.527 205.625 96.555 205.221 96.454C204.817 96.354 204.437 96.141 204.082 95.815L199.121 90.92L186.65 96.087L186.664 103.081C186.696 103.54 186.603 103.941 186.382 104.285C186.162 104.628 185.864 104.878 185.487 105.034C184.922 105.268 184.43 105.299 184.012 105.125C183.593 104.952 183.278 104.61 183.066 104.099C183.021 103.991 182.959 103.765 182.879 103.419L182.835 74.213C182.845 73.705 182.971 73.267 183.212 72.898C183.454 72.53 183.801 72.284 184.254 72.16C184.657 71.992 185.065 71.949 185.477 72.031C185.889 72.112 186.246 72.327 186.548 72.675L207.001 93.045V93.045ZM186.662 91.779L196.065 87.883L186.661 78.539L186.662 91.779Z"
          fill="#4BBE2D" />
      </g>
      <g id="dropbox" filter="url(#filter4_d)">
        <path fill-rule="evenodd" clip-rule="evenodd"
          d="M57.766 183.909C79.819 178.573 102.054 192.145 107.39 214.198C112.726 236.25 99.154 258.486 77.101 263.821C55.049 269.157 32.813 255.585 27.477 233.533C22.142 211.48 35.714 189.244 57.766 183.909V183.909Z" fill="white" />
        <g class="logo">
          <path d="M49.824 205.901L39.536 219.905L51.784 223.916L62.341 210.283L49.824 205.901V205.901Z" fill="#007EE5" />
          <path d="M45.193 234.993L62.152 238.78L68.702 227.248L51.784 223.916L45.193 234.993Z" fill="#007EE5" />
          <path d="M68.702 227.248L81.219 231.631L91.508 217.627L79.259 213.615L68.702 227.248V227.248Z" fill="#007EE5" />
          <path d="M85.85 202.539L68.891 198.752L62.341 210.283L79.259 213.615L85.85 202.539V202.539Z" fill="#007EE5" />
          <path d="M69.372 228.949L62.786 240.468L57.692 239.331L58.815 242.326L75.538 245.393L86.121 232.087L84.998 229.093L81.908 233.298L69.372 228.949V228.949Z" fill="#007EE5" />
        </g>
      </g>
      <g id="b-grade" filter="url(#filter5_d)">
        <path fill-rule="evenodd" clip-rule="evenodd"
          d="M156.614 364.557C173.97 372.431 181.668 392.914 173.794 410.27C165.921 427.625 145.438 435.324 128.082 427.45C110.726 419.576 103.028 399.093 110.901 381.737C118.775 364.382 139.258 356.683 156.614 364.557Z" fill="white" />
        <path class="logo"
          d="M149.089 397.605C150.264 398.718 151.051 400.029 151.451 401.539C151.85 403.049 151.647 404.69 150.843 406.464C149.568 409.275 147.84 410.912 145.66 411.374C143.481 411.836 141.213 411.533 138.857 410.464L129.093 406.034C128.586 405.804 128.236 405.432 128.042 404.916C127.848 404.401 127.866 403.89 128.096 403.383L138.507 380.434C138.737 379.927 139.11 379.577 139.625 379.383C140.141 379.19 140.652 379.208 141.158 379.437L150.923 383.867C153.228 384.913 154.724 386.279 155.41 387.964C156.096 389.65 155.951 391.569 154.974 393.723C154.422 394.938 153.64 395.889 152.626 396.575C151.613 397.26 150.434 397.604 149.089 397.605V397.605ZM150.802 392.517C151.342 391.327 151.43 390.275 151.065 389.361C150.701 388.447 149.936 387.726 148.771 387.198L141.59 383.94L138.229 391.349L145.486 394.641C146.536 395.087 147.549 395.142 148.526 394.806C149.503 394.471 150.262 393.708 150.802 392.517ZM140.405 406.951C141.798 407.583 143.077 407.728 144.24 407.385C145.403 407.042 146.313 406.149 146.968 404.705C148.243 401.894 147.285 399.764 144.093 398.316L136.608 394.92L132.73 403.469L140.405 406.951V406.951Z"
          fill="#C1D853" />
      </g>
      <g id="evernote" filter="url(#filter6_d)">
        <path fill-rule="evenodd" clip-rule="evenodd"
          d="M352.722 387.785C369.045 387.024 382.916 399.659 383.676 415.982C384.437 432.306 371.802 446.176 355.479 446.936C339.155 447.697 325.285 435.062 324.524 418.739C323.764 402.415 336.399 388.545 352.722 387.785Z" fill="white" />
        <path class="logo"
          d="M343.98 405.952L347.134 406.301C347.315 406.321 347.476 406.192 347.496 406.015C347.497 406.014 347.754 403.34 347.836 402.598L347.837 402.589C347.904 401.98 348.092 401.463 348.367 401.042L348.497 400.854C348.485 400.855 348.472 400.859 348.459 400.87L341.669 406.192C341.656 406.201 341.648 406.213 341.643 406.225C341.776 406.177 341.959 406.112 341.984 406.104C342.544 405.925 343.205 405.866 343.98 405.952V405.952ZM368.583 408.013C368.479 406.661 367.755 405.92 367.062 405.584C366.316 405.22 364.771 404.758 362.816 404.309C361.243 403.947 359.368 403.755 358.233 403.664C358.199 402.73 357.639 401.819 356.942 401.447C355.082 400.459 352.057 400.313 351.262 400.442C350.63 400.543 349.913 400.815 349.477 401.307C349.184 401.636 348.969 402.076 348.897 402.715C348.857 403.076 348.773 403.929 348.699 404.687C348.624 405.448 348.559 406.128 348.559 406.132C348.483 406.808 347.868 407.297 347.18 407.222L344.027 406.873C343.355 406.799 342.828 406.853 342.416 406.986C342.004 407.119 341.699 407.326 341.456 407.584C340.973 408.096 340.824 408.777 340.748 409.48C340.748 409.48 340.691 410.056 340.708 411.183C340.729 412.057 341.009 418.174 341.704 420.102C341.973 420.852 342.172 421.174 342.821 421.563C344.273 422.376 347.673 423.477 349.281 423.863C350.886 424.249 351.86 424.794 352.608 423.601C352.611 423.598 352.765 423.301 352.98 422.863C353.684 421.339 353.913 419.944 354.025 418.928C354.036 418.824 354.19 418.837 354.178 418.945C354.099 419.662 353.68 422.185 355.545 423.08C356.282 423.434 357.845 423.849 359.439 424.214C360.881 424.542 361.878 425.227 361.469 428.928C361.22 431.179 360.707 431.435 358.204 431.158C356.175 430.934 355.396 430.9 355.572 429.308C355.714 428.021 356.988 428.298 357.943 428.404C358.369 428.451 358.094 428.103 358.182 427.31C358.27 426.52 358.82 426.119 358.349 426.055C355.056 425.6 353.104 425.471 352.653 429.55C352.243 433.253 353.602 434.1 358.288 434.618C361.963 435.025 363.271 435.049 365.303 430.567C365.705 429.682 366.741 426.961 367.7 422.306C368.307 419.362 368.761 410.326 368.583 408.013V408.013ZM361.08 417.226C360.628 417.16 360.188 417.14 359.774 417.16C359.99 416.258 360.496 415.179 361.844 415.376C363.336 415.592 363.391 417.014 363.292 417.962C362.691 417.614 361.929 417.35 361.08 417.226V417.226Z"
          fill="#2DBE60" />
      </g>
    </g>
  </g>
  <defs>
    <filter id="filter0_d" x="167.924" y="170.474" width="185.638" height="183.666" filterUnits="userSpaceOnUse" color-interpolation-filters="sRGB">
      <feFlood flood-opacity="0" result="BackgroundImageFix" />
      <feColorMatrix in="SourceAlpha" type="matrix" values="0 0 0 0 0 0 0 0 0 0 0 0 0 0 0 0 0 0 127 0" />
      <feOffset dy="4" />
      <feGaussianBlur stdDeviation="10" />
      <feColorMatrix type="matrix" values="0 0 0 0 0 0 0 0 0 0 0 0 0 0 0 0 0 0 0.15 0" />
      <feBlend mode="normal" in2="BackgroundImageFix" result="effect1_dropShadow" />
      <feBlend mode="normal" in="SourceGraphic" in2="effect1_dropShadow" result="shape" />
    </filter>
    <filter id="filter1_d" x="318.468" y="48.562" width="127.482" height="127.482" filterUnits="userSpaceOnUse" color-interpolation-filters="sRGB">
      <feFlood flood-opacity="0" result="BackgroundImageFix" />
      <feColorMatrix in="SourceAlpha" type="matrix" values="0 0 0 0 0 0 0 0 0 0 0 0 0 0 0 0 0 0 127 0" />
      <feOffset dy="4" />
      <feGaussianBlur stdDeviation="10" />
      <feColorMatrix type="matrix" values="0 0 0 0 0 0 0 0 0 0 0 0 0 0 0 0 0 0 0.15 0" />
      <feBlend mode="normal" in2="BackgroundImageFix" result="effect1_dropShadow" />
      <feBlend mode="normal" in="SourceGraphic" in2="effect1_dropShadow" result="shape" />
    </filter>
    <filter id="filter2_d" x="390.259" y="211.54" width="119.153" height="119.153" filterUnits="userSpaceOnUse" color-interpolation-filters="sRGB">
      <feFlood flood-opacity="0" result="BackgroundImageFix" />
      <feColorMatrix in="SourceAlpha" type="matrix" values="0 0 0 0 0 0 0 0 0 0 0 0 0 0 0 0 0 0 127 0" />
      <feOffset dy="4" />
      <feGaussianBlur stdDeviation="10" />
      <feColorMatrix type="matrix" values="0 0 0 0 0 0 0 0 0 0 0 0 0 0 0 0 0 0 0.15 0" />
      <feBlend mode="normal" in2="BackgroundImageFix" result="effect1_dropShadow" />
      <feBlend mode="normal" in="SourceGraphic" in2="effect1_dropShadow" result="shape" />
    </filter>
    <filter id="filter3_d" x="133.911" y="34.2693" width="112.325" height="112.325" filterUnits="userSpaceOnUse" color-interpolation-filters="sRGB">
      <feFlood flood-opacity="0" result="BackgroundImageFix" />
      <feColorMatrix in="SourceAlpha" type="matrix" values="0 0 0 0 0 0 0 0 0 0 0 0 0 0 0 0 0 0 127 0" />
      <feOffset dy="4" />
      <feGaussianBlur stdDeviation="10" />
      <feColorMatrix type="matrix" values="0 0 0 0 0 0 0 0 0 0 0 0 0 0 0 0 0 0 0.15 0" />
      <feBlend mode="normal" in2="BackgroundImageFix" result="effect1_dropShadow" />
      <feBlend mode="normal" in="SourceGraphic" in2="effect1_dropShadow" result="shape" />
    </filter>
    <filter id="filter4_d" x="6.31683" y="166.748" width="122.234" height="122.233" filterUnits="userSpaceOnUse" color-interpolation-filters="sRGB">
      <feFlood flood-opacity="0" result="BackgroundImageFix" />
      <feColorMatrix in="SourceAlpha" type="matrix" values="0 0 0 0 0 0 0 0 0 0 0 0 0 0 0 0 0 0 127 0" />
      <feOffset dy="4" />
      <feGaussianBlur stdDeviation="10" />
      <feColorMatrix type="matrix" values="0 0 0 0 0 0 0 0 0 0 0 0 0 0 0 0 0 0 0.15 0" />
      <feBlend mode="normal" in2="BackgroundImageFix" result="effect1_dropShadow" />
      <feBlend mode="normal" in="SourceGraphic" in2="effect1_dropShadow" result="shape" />
    </filter>
    <filter id="filter5_d" x="87.8123" y="345.468" width="109.071" height="109.071" filterUnits="userSpaceOnUse" color-interpolation-filters="sRGB">
      <feFlood flood-opacity="0" result="BackgroundImageFix" />
      <feColorMatrix in="SourceAlpha" type="matrix" values="0 0 0 0 0 0 0 0 0 0 0 0 0 0 0 0 0 0 127 0" />
      <feOffset dy="4" />
      <feGaussianBlur stdDeviation="10" />
      <feColorMatrix type="matrix" values="0 0 0 0 0 0 0 0 0 0 0 0 0 0 0 0 0 0 0.15 0" />
      <feBlend mode="normal" in2="BackgroundImageFix" result="effect1_dropShadow" />
      <feBlend mode="normal" in="SourceGraphic" in2="effect1_dropShadow" result="shape" />
    </filter>
    <filter id="filter6_d" x="304.491" y="371.752" width="99.2172" height="99.2163" filterUnits="userSpaceOnUse" color-interpolation-filters="sRGB">
      <feFlood flood-opacity="0" result="BackgroundImageFix" />
      <feColorMatrix in="SourceAlpha" type="matrix" values="0 0 0 0 0 0 0 0 0 0 0 0 0 0 0 0 0 0 127 0" />
      <feOffset dy="4" />
      <feGaussianBlur stdDeviation="10" />
      <feColorMatrix type="matrix" values="0 0 0 0 0 0 0 0 0 0 0 0 0 0 0 0 0 0 0.15 0" />
      <feBlend mode="normal" in2="BackgroundImageFix" result="effect1_dropShadow" />
      <feBlend mode="normal" in="SourceGraphic" in2="effect1_dropShadow" result="shape" />
    </filter>
  </defs>
</svg>
