<?xml version="1.0" encoding="UTF-8" standalone="no"?><!DOCTYPE svg PUBLIC "-//W3C//DTD SVG 1.1//EN" "http://www.w3.org/Graphics/SVG/1.1/DTD/svg11.dtd"><svg viewBox="0 0 833 870" version="1.1" xmlns="http://www.w3.org/2000/svg" xmlns:xlink="http://www.w3.org/1999/xlink" xml:space="preserve" xmlns:serif="http://www.serif.com/" style="fill-rule:evenodd;clip-rule:evenodd;stroke-linejoin:round;stroke-miterlimit:1.41421;"><g><g><path d="M369.883,869.417l-184.942,0l0,-655.865l184.942,-106.776l0,762.641Z" style="fill:url(#_Linear1);"/><path d="M0,869.417l0,-762.641l184.941,106.776l0,655.865l-184.941,0Z" style="fill:url(#_Linear2);"/><path d="M184.941,0l184.942,106.776l-184.942,106.776l-184.941,-106.776l184.941,-106.776Z" style="fill:#3956e8;"/><path d="M369.883,106.776l-184.942,106.776l-184.941,-106.776l184.941,-106.776l184.942,106.776Zm-368.882,0l183.94,106.199l183.941,-106.199l-183.941,-106.199l-183.94,106.199Z" style="fill:#4963e6;"/><path d="M0,106.776l0,53.388l184.941,106.776l0,-53.388l-184.941,-106.776Z" style="fill:#2641c9;"/><path d="M184.941,213.552l0,53.388l-184.941,-106.776l0,-53.388l184.941,106.776Zm-184.442,-53.677l183.942,106.199l0,-52.234l-183.942,-106.198l0,52.233Z" style="fill:#4963e6;"/><path d="M184.941,213.552l184.942,-106.776l0,53.661l-184.942,106.503l0,-53.388Z" style="fill:#546ef3;"/><path d="M369.883,160.437l-184.942,106.503l0,-53.388l184.942,-106.776l0,53.661Zm-184.442,53.403l0,52.235l183.941,-105.927l0,-52.506l-183.941,106.198Z" style="fill:#4963e6;"/><path d="M189.726,134.904c-0.278,0.368 -0.67,0.699 -1.176,0.994c-1.011,0.59 -2.246,0.846 -3.703,0.768c-1.457,-0.078 -2.719,-0.425 -3.785,-1.04c-0.83,-0.479 -1.37,-1.04 -1.621,-1.684c-0.251,-0.643 -0.204,-1.306 0.14,-1.988l5.646,-9.68l-27.453,-15.843l-16.65,3.419c-1.055,0.271 -2.126,0.328 -3.212,0.171c-1.086,-0.157 -2.043,-0.475 -2.872,-0.954c-1.244,-0.717 -1.914,-1.426 -2.009,-2.127c-0.095,-0.7 0.338,-1.33 1.3,-1.891c0.202,-0.118 0.666,-0.319 1.391,-0.605l69.553,-14.26c1.224,-0.233 2.421,-0.261 3.592,-0.084c1.17,0.176 2.178,0.568 3.025,1.173c0.888,0.513 1.486,1.093 1.792,1.739c0.306,0.646 0.227,1.275 -0.235,1.889l-23.723,40.003Zm-21.67,-30.55l20.701,11.946l10.853,-18.383l-31.554,6.437Z" style="fill:#132966;fill-rule:nonzero;"/></g><g><path d="M230.94,869.417l0,-575.646l185.178,106.639l-0.231,469.007l-184.947,0Z" style="fill:url(#_Linear3);"/><path d="M600.822,869.417l-184.85,0l0.146,-469.007l184.704,-106.639l0,575.646Z" style="fill:url(#_Linear4);"/><path d="M415.881,186.995l184.941,106.776l-184.704,106.639l-185.178,-106.639l184.941,-106.776Z" style="fill:#5232b3;"/><path d="M600.822,293.771l-184.704,106.639l-185.178,-106.639l184.941,-106.776l184.941,106.776Zm-368.883,-0.001l184.177,106.063l183.707,-106.062l-183.941,-106.199l-183.943,106.198Z" style="fill:#5f4faf;"/><path d="M230.94,293.771l0.237,53.251l184.941,106.776l0,-53.388l-185.178,-106.639Z" style="fill:#453082;"/><path d="M416.118,400.41l0,53.388l-184.941,-106.776l-0.237,-53.251l185.178,106.639Zm-184.442,-53.678l183.943,106.2l0,-52.233l-184.174,-106.061l0.231,52.094Z" style="fill:#5f4faf;"/><path d="M416.118,400.41l184.704,-106.639l0.237,53.251l-184.941,106.776l0,-53.388Z" style="fill:#694cbd;"/><path d="M601.059,347.022l-184.941,106.776l0,-53.388l184.704,-106.639l0.237,53.251Zm-184.442,53.676l0,52.234l183.94,-106.198l-0.23,-52.1l-183.71,106.064Z" style="fill:#5f4faf;"/><path d="M430.526,299.337c2.296,2.44 3.395,4.908 3.297,7.404c-0.098,2.496 -1.917,4.776 -5.459,6.84c-5.615,3.273 -11.534,4.508 -17.758,3.704c-6.223,-0.804 -12.089,-2.796 -17.598,-5.974l-22.833,-13.177c-1.184,-0.684 -1.837,-1.471 -1.958,-2.362c-0.121,-0.892 0.324,-1.632 1.336,-2.222l45.834,-26.715c1.012,-0.59 2.287,-0.852 3.824,-0.786c1.538,0.065 2.899,0.44 4.083,1.124l22.834,13.176c5.39,3.111 8.353,6.141 8.89,9.092c0.537,2.95 -1.345,5.678 -5.645,8.185c-2.428,1.415 -5.272,2.283 -8.531,2.602c-3.26,0.32 -6.698,0.023 -10.316,-0.891Zm8.558,-6.329c2.378,-1.385 3.431,-2.875 3.16,-4.469c-0.271,-1.594 -1.769,-3.178 -4.493,-4.75l-16.792,-9.69l-14.798,8.625l16.97,9.793c2.479,1.372 5.163,2.143 8.052,2.314c2.89,0.171 5.523,-0.437 7.901,-1.823Zm-39.183,14.182c3.258,1.88 6.585,2.964 9.981,3.251c3.397,0.288 6.537,-0.409 9.42,-2.089c5.616,-3.273 4.692,-7.063 -2.771,-11.37l-17.503,-10.1l-17.074,9.951l17.947,10.357Z" style="fill:#251d4e;fill-rule:nonzero;"/></g><g><path d="M462.353,869.417l0,-388.925l184.942,106.776l0,282.149l-184.942,0Z" style="fill:url(#_Linear5);"/><path d="M832.104,869.417l-184.942,0l0,-281.92l184.942,-106.776l0,388.696Z" style="fill:url(#_Linear6);"/><path d="M647.295,373.716l184.941,106.776l-184.941,106.776l-184.942,-106.776l184.942,-106.776Z" style="fill:#2b2a54;"/><path d="M832.236,480.492l-184.941,106.776l-184.942,-106.776l184.942,-106.776l184.941,106.776Zm-368.882,0l183.941,106.198l183.94,-106.198l-183.94,-106.199l-183.941,106.199Z" style="fill:#2c2b65;"/><path d="M462.353,480.492l0,53.388l184.942,106.776l0,-53.388l-184.942,-106.776Z" style="fill:#28273f;"/><path d="M647.295,587.268l0,53.388l-184.942,-106.776l0,-53.388l184.942,106.776Zm-184.442,-53.677l183.941,106.199l0,-52.234l-183.941,-106.198l0,52.233Z" style="fill:#2c2b65;"/><path d="M647.159,587.343l184.941,-106.776l0,53.388l-184.941,106.776l0,-53.388Z" style="fill:#413f94;"/><path d="M832.1,533.955l-184.941,106.776l0,-53.388l184.941,-106.776l0,53.388Zm-184.44,53.677l0,52.233l183.941,-106.198l0,-52.234l-183.941,106.199Z" style="fill:#2c2b65;"/><path d="M693.69,479.935c0.764,1.203 0.463,2.203 -0.903,2.999c-0.911,0.531 -2.101,0.813 -3.57,0.845c-1.52,0.061 -2.902,-0.267 -4.146,-0.985c-0.83,-0.478 -1.452,-1.043 -1.868,-1.693c-1.902,-3.152 -4.985,-5.958 -9.249,-8.419c-4.443,-2.563 -9.201,-4.341 -14.277,-5.334c-5.075,-0.992 -10.065,-1.158 -14.971,-0.497c-4.905,0.661 -9.305,2.126 -13.201,4.397c-4.199,2.447 -6.839,5.12 -7.92,8.017c-1.08,2.897 -0.7,5.801 1.142,8.713c1.842,2.911 4.895,5.597 9.16,8.058c4.383,2.529 9.262,4.289 14.637,5.278c1.014,0.233 1.936,0.589 2.765,1.068c1.303,0.752 1.91,1.6 1.82,2.546c-0.049,0.852 -0.503,1.529 -1.363,2.031c-0.607,0.353 -1.368,0.574 -2.285,0.662c-0.916,0.087 -1.851,0.031 -2.806,-0.168c-3.423,-0.684 -6.9,-1.664 -10.43,-2.938c-3.531,-1.274 -6.688,-2.715 -9.472,-4.321c-5.745,-3.316 -9.944,-7 -12.596,-11.054c-2.651,-4.054 -3.34,-8.118 -2.064,-12.194c1.276,-4.076 4.696,-7.735 10.261,-10.979c5.11,-2.978 11.103,-4.874 17.98,-5.688c6.878,-0.814 13.906,-0.513 21.086,0.901c7.179,1.415 13.76,3.848 19.743,7.3c5.745,3.316 9.921,7.134 12.527,11.455Z" style="fill:#1b1729;fill-rule:nonzero;"/></g></g><defs><linearGradient id="_Linear1" x1="0" y1="0" x2="1" y2="0" gradientUnits="userSpaceOnUse" gradientTransform="matrix(5.05718e-14,-611.808,825.9,3.74624e-14,274.642,759.317)"><stop offset="0" style="stop-color:#fff;stop-opacity:0"/><stop offset="1" style="stop-color:#4fbfff;stop-opacity:0.6"/></linearGradient><linearGradient id="_Linear2" x1="0" y1="0" x2="1" y2="0" gradientUnits="userSpaceOnUse" gradientTransform="matrix(5.05506e-14,-617.322,825.554,3.78e-14,97.6398,775.014)"><stop offset="0" style="stop-color:#fff;stop-opacity:0"/><stop offset="1" style="stop-color:#3f9fff;stop-opacity:0.6"/></linearGradient><linearGradient id="_Linear3" x1="0" y1="0" x2="1" y2="0" gradientUnits="userSpaceOnUse" gradientTransform="matrix(4.43583e-14,-457.938,724.426,2.80406e-14,338.864,790.996)"><stop offset="0" style="stop-color:#fff;stop-opacity:0"/><stop offset="1" style="stop-color:#8b69ff;stop-opacity:0.6"/></linearGradient><linearGradient id="_Linear4" x1="0" y1="0" x2="1" y2="0" gradientUnits="userSpaceOnUse" gradientTransform="matrix(4.61215e-14,-500.785,753.221,3.06643e-14,507.135,830.519)"><stop offset="0" style="stop-color:#fff;stop-opacity:0"/><stop offset="1" style="stop-color:#5533c6;stop-opacity:0.6"/></linearGradient><linearGradient id="_Linear5" x1="0" y1="0" x2="1" y2="0" gradientUnits="userSpaceOnUse" gradientTransform="matrix(2.98385e-14,-354.992,487.299,2.1737e-14,560.684,879.365)"><stop offset="0" style="stop-color:#fff;stop-opacity:0"/><stop offset="1" style="stop-color:#6969ff;stop-opacity:0.6"/></linearGradient><linearGradient id="_Linear6" x1="0" y1="0" x2="1" y2="0" gradientUnits="userSpaceOnUse" gradientTransform="matrix(2e-06,0,0,2e-06,530.092,617.333)"><stop offset="0" style="stop-color:#fff;stop-opacity:0"/><stop offset="1" style="stop-color:#6995ff;stop-opacity:0.6"/></linearGradient></defs></svg>
