<?xml version="1.0" encoding="UTF-8" standalone="no"?><!DOCTYPE svg PUBLIC "-//W3C//DTD SVG 1.1//EN" "http://www.w3.org/Graphics/SVG/1.1/DTD/svg11.dtd"><svg width="100%" height="100%" viewBox="0 0 833 1205" version="1.1" xmlns="http://www.w3.org/2000/svg" xmlns:xlink="http://www.w3.org/1999/xlink" xml:space="preserve" xmlns:serif="http://www.serif.com/" style="fill-rule:evenodd;clip-rule:evenodd;stroke-linejoin:round;stroke-miterlimit:1.41421;"><g><g><path d="M184.941,0l184.942,106.776l-184.942,106.776l-184.941,-106.776l184.941,-106.776Z" style="fill:#3956e8;"/><path d="M369.883,106.776l-184.942,106.776l-184.941,-106.776l184.941,-106.776l184.942,106.776Zm-368.884,0l183.941,106.198l183.944,-106.198l-183.944,-106.199l-183.941,106.199Z" style="fill:#4963e6;"/><path d="M0,106.776l0,909.038l184.941,110.854l0,-913.116l-184.941,-106.776Z" style="fill:url(#_Linear1);"/><path d="M0,106.776l0,53.388l184.941,106.776l0,-53.388l-184.941,-106.776Z" style="fill:#2641c9;"/><path d="M184.941,213.552l0,53.388l-184.941,-106.776l0,-53.388l184.941,106.776Zm-184.441,-53.677l183.941,106.199l0,-52.233l-183.941,-106.199l0,52.233Z" style="fill:#4963e6;"/><path d="M184.941,213.552l184.942,-106.776l0,917.52l-184.942,111.995l0,-922.739Z" style="fill:url(#_Linear2);"/><path d="M184.941,213.552l184.942,-106.776l0,53.661l-184.942,106.503l0,-53.388Z" style="fill:#546ef3;"/><path d="M369.883,160.437l-184.942,106.503l0,-53.388l184.942,-106.776l0,53.661Zm-184.442,53.404l0,52.234l183.941,-105.927l0,-52.506l-183.941,106.199Z" style="fill:#4963e6;"/><g transform="matrix(0.866128,0.499822,-0.995363,0.580163,-44191.8,5660.36)"><text x="20185px" y="-26963.9px" style="font-family:'Quicksand-Medium', 'Quicksand';font-weight:500;font-size:76.238px;fill:#132966;">A</text></g></g><g><path d="M415.881,186.995l184.941,106.776l-184.704,106.639l-185.178,-106.639l184.941,-106.776Z" style="fill:#5232b3;"/><path d="M600.822,293.771l-184.704,106.639l-185.178,-106.639l184.941,-106.776l184.941,106.776Zm-368.881,-0.001l184.177,106.062l183.703,-106.061l-183.94,-106.199l-183.94,106.198Z" style="fill:#5f4faf;"/><path d="M230.94,293.771l0,805.411l184.781,105.222l0.397,-803.994l-185.178,-106.639Z" style="fill:url(#_Linear3);"/><path d="M230.94,293.771l0.237,53.251l184.941,106.776l0,-53.388l-185.178,-106.639Z" style="fill:#453082;"/><path d="M416.118,400.41l0,53.388l-184.941,-106.776l-0.237,-53.251l185.178,106.639Zm-184.441,-53.678l183.943,106.2l0,-52.233l-184.174,-106.061l0.231,52.094Z" style="fill:#5f4faf;"/><path d="M416.118,400.41l184.704,-106.639l0,763.381l-184.941,102.861l0.237,-759.603Z" style="fill:url(#_Linear4);"/><path d="M416.118,400.41l184.704,-106.639l0.237,53.251l-184.941,106.776l0,-53.388Z" style="fill:#694cbd;"/><path d="M601.059,347.022l-184.941,106.776l0,-53.388l184.704,-106.639l0.237,53.251Zm-184.441,53.676l0,52.234l183.94,-106.198l-0.231,-52.099l-183.709,106.063Z" style="fill:#5f4faf;"/><g transform="matrix(0.866128,0.499822,-0.995363,0.580163,-43976.4,5623.98)"><text x="20413.7px" y="-26778.3px" style="font-family:'Quicksand-Medium', 'Quicksand';font-weight:500;font-size:76.238px;fill:#251d4e;">B</text></g></g><g><path d="M647.295,373.716l184.941,106.776l-184.941,106.776l-184.942,-106.776l184.942,-106.776Z" style="fill:#2b2a54;"/><path d="M832.236,480.492l-184.941,106.776l-184.942,-106.776l184.942,-106.776l184.941,106.776Zm-368.884,0l183.944,106.198l183.941,-106.198l-183.941,-106.199l-183.944,106.199Z" style="fill:#2c2b65;"/><path d="M462.353,480.492l0,427.103l184.942,106.776l0,-427.103l-184.942,-106.776Z" style="fill:url(#_Linear5);"/><path d="M462.353,480.492l0,53.388l184.942,106.776l0,-53.388l-184.942,-106.776Z" style="fill:#28273f;"/><path d="M647.295,587.268l0,53.388l-184.942,-106.776l0,-53.388l184.942,106.776Zm-184.442,-53.677l183.941,106.198l0,-52.233l-183.941,-106.198l0,52.233Z" style="fill:#2c2b65;"/><path d="M647.162,587.497l184.942,-106.776l0,427.104l-184.942,106.776l0,-427.104Z" style="fill:url(#_Linear6);"/><path d="M647.159,587.343l184.941,-106.776l0,53.388l-184.941,106.776l0,-53.388Z" style="fill:#413f94;"/><path d="M832.1,533.955l-184.941,106.776l0,-53.388l184.941,-106.776l0,53.388Zm-184.44,53.677l0,52.233l183.942,-106.198l0,-52.234l-183.942,106.199Z" style="fill:#2c2b65;"/><g transform="matrix(0.866128,0.499822,-0.995363,0.580163,-43758.2,5586.16)"><text x="20647.1px" y="-26590.4px" style="font-family:'Quicksand-Medium', 'Quicksand';font-weight:500;font-size:76.238px;fill:#1b1729;">C</text></g></g></g><defs><linearGradient id="_Linear1" x1="0" y1="0" x2="1" y2="0" gradientUnits="userSpaceOnUse" gradientTransform="matrix(5.05506e-14,-825.554,825.554,5.05506e-14,97.6398,1000.42)"><stop offset="0" style="stop-color:#fff;stop-opacity:0"/><stop offset="1" style="stop-color:#3f9fff;stop-opacity:0.6"/></linearGradient><linearGradient id="_Linear2" x1="0" y1="0" x2="1" y2="0" gradientUnits="userSpaceOnUse" gradientTransform="matrix(5.05718e-14,-825.9,825.9,5.05718e-14,274.642,987.664)"><stop offset="0" style="stop-color:#fff;stop-opacity:0"/><stop offset="1" style="stop-color:#4fbfff;stop-opacity:0.6"/></linearGradient><linearGradient id="_Linear3" x1="0" y1="0" x2="1" y2="0" gradientUnits="userSpaceOnUse" gradientTransform="matrix(4.43583e-14,-724.426,724.426,4.43583e-14,338.864,1080.35)"><stop offset="0" style="stop-color:#fff;stop-opacity:0"/><stop offset="1" style="stop-color:#8b69ff;stop-opacity:0.6"/></linearGradient><linearGradient id="_Linear4" x1="0" y1="0" x2="1" y2="0" gradientUnits="userSpaceOnUse" gradientTransform="matrix(4.61441e-14,-753.59,753.59,4.61441e-14,507.089,1101.48)"><stop offset="0" style="stop-color:#fff;stop-opacity:0"/><stop offset="1" style="stop-color:#5533c6;stop-opacity:0.6"/></linearGradient><linearGradient id="_Linear5" x1="0" y1="0" x2="1" y2="0" gradientUnits="userSpaceOnUse" gradientTransform="matrix(2.98385e-14,-487.299,487.299,2.98385e-14,560.684,1028.03)"><stop offset="0" style="stop-color:#fff;stop-opacity:0"/><stop offset="1" style="stop-color:#6969ff;stop-opacity:0.6"/></linearGradient><linearGradient id="_Linear6" x1="0" y1="0" x2="1" y2="0" gradientUnits="userSpaceOnUse" gradientTransform="matrix(2e-06,0,0,2e-06,530.092,668.36)"><stop offset="0" style="stop-color:#fff;stop-opacity:0"/><stop offset="1" style="stop-color:#6995ff;stop-opacity:0.6"/></linearGradient></defs></svg>