<svg xmlns="http://www.w3.org/2000/svg" xmlns:xlink="http://www.w3.org/1999/xlink" xmlns:serif="http://www.serif.com/" width="100%" height="100%" viewBox="0 0 997 644" version="1.1" xml:space="preserve" style="fill: #ff5959;fill-rule:evenodd;clip-rule:evenodd;stroke-linejoin:round;stroke-miterlimit:1.41421;">
  <path d="M315.919,281.095c0.946,0.086 0.947,0.206 1.313,0.345c5.428,2.068 7.224,8.767 6.081,14.997c-0.369,2.12 -0.614,4.494 0.754,6.161c1.434,1.746 3.898,2.061 5.986,2.36c0,0 2.231,0.831 2.143,2.599c-0.069,1.382 -1.397,2.513 -2.851,2.351c-1.176,-0.169 -1.241,-0.19 -1.761,-0.294c-4.736,-0.939 -9.304,-4.534 -9.517,-9.969c-0.165,-4.214 1.963,-8.193 0.067,-11.332c-0.458,-0.758 -1.118,-1.377 -1.883,-1.818c-1.813,-1.047 -1.468,-0.597 -1.662,-0.7c-1.896,-1.015 -1.52,-4.784 1.33,-4.7Z" style="fill-rule:nonzero;"/>
  <path d="M179.253,283.115c0.945,0.087 0.946,0.206 1.312,0.346c5.463,2.08 7.15,8.851 6.049,15.183c-0.342,2.084 -0.558,4.4 0.832,6.028c1.454,1.703 3.883,2.012 5.94,2.306c0,0 1.395,0.33 1.905,1.403c0.766,1.615 -0.489,3.784 -2.613,3.547c-1.176,-0.168 -1.24,-0.19 -1.761,-0.294c-4.735,-0.939 -9.304,-4.534 -9.517,-9.969c-0.165,-4.214 1.963,-8.194 0.068,-11.332c-0.468,-0.774 -1.147,-1.402 -1.933,-1.846c-1.799,-1.016 -1.421,-0.569 -1.612,-0.672c-1.822,-0.975 -1.593,-4.615 1.176,-4.704c0.051,0.001 0.102,0.003 0.154,0.004Z" style="fill-rule:nonzero;"/>
  <path d="M295.253,155.115c0.946,0.087 0.948,0.207 1.312,0.346c5.463,2.08 7.151,8.85 6.049,15.183c-0.342,2.084 -0.558,4.4 0.832,6.028c1.454,1.703 3.883,2.012 5.94,2.306c0,0 1.395,0.33 1.905,1.403c0.766,1.615 -0.489,3.784 -2.613,3.547c-1.176,-0.168 -1.24,-0.19 -1.761,-0.294c-4.735,-0.939 -9.304,-4.534 -9.517,-9.969c-0.165,-4.214 1.963,-8.193 0.068,-11.332c-0.468,-0.774 -1.147,-1.403 -1.933,-1.846c-1.802,-1.017 -1.421,-0.57 -1.613,-0.672c-1.896,-1.016 -1.519,-4.784 1.331,-4.7Z" style="fill-rule:nonzero;"/>
  <path d="M165.323,155.115c0.945,0.087 0.947,0.206 1.312,0.346c5.463,2.08 7.151,8.85 6.049,15.183c-0.342,2.084 -0.558,4.4 0.832,6.028c1.454,1.703 3.883,2.012 5.941,2.306c0,0 2.23,0.831 2.142,2.599c-0.068,1.382 -1.396,2.514 -2.851,2.351c-1.176,-0.168 -1.24,-0.19 -1.761,-0.294c-4.735,-0.939 -9.304,-4.534 -9.517,-9.969c-0.165,-4.214 1.963,-8.194 0.068,-11.332c-0.468,-0.774 -1.147,-1.403 -1.933,-1.846c-1.799,-1.016 -1.42,-0.569 -1.612,-0.672c-1.835,-0.982 -1.593,-4.615 1.176,-4.704c0.051,0.001 0.103,0.003 0.154,0.004Z" style="fill-rule:nonzero;"/>
  <path d="M71.323,257.253c0.945,0.086 0.947,0.206 1.312,0.345c5.463,2.08 7.15,8.851 6.049,15.183c-0.342,2.084 -0.557,4.401 0.832,6.028c1.454,1.704 3.883,2.012 5.941,2.307c0,0 3.919,2.328 1.176,4.452c-0.705,0.545 -0.118,0.904 -3.646,0.204c-4.735,-0.94 -9.304,-4.535 -9.517,-9.97c-0.165,-4.213 1.964,-8.193 0.068,-11.332c-0.468,-0.774 -1.147,-1.402 -1.933,-1.846c-0.998,-0.563 -1.348,-0.503 -1.746,-0.748c-1.763,-1.089 -1.48,-4.538 1.31,-4.628c0.051,0.002 0.103,0.003 0.154,0.005Z" style="fill-rule:nonzero;"/>
  <path d="M41.99,131.273c0.945,0.086 0.946,0.206 1.312,0.345c5.463,2.081 7.15,8.851 6.049,15.183c-0.342,2.084 -0.558,4.4 0.831,6.028c1.454,1.704 3.884,2.013 5.941,2.307c0,0 1.915,0.606 2.123,2.138c0.21,1.541 -1.042,3.012 -2.831,2.812c-1.176,-0.169 -1.24,-0.191 -1.761,-0.294c-4.736,-0.939 -9.304,-4.535 -9.517,-9.97c-0.165,-4.213 1.963,-8.193 0.067,-11.331c-0.467,-0.775 -1.146,-1.403 -1.932,-1.846c-0.998,-0.564 -1.349,-0.504 -1.746,-0.749c-1.764,-1.089 -1.48,-4.538 1.31,-4.628c0.051,0.002 0.102,0.003 0.154,0.005Z" style="fill-rule:nonzero;"/>
  <path d="M211.184,66.444c0.946,0.087 0.947,0.206 1.311,0.345c5.463,2.08 7.15,8.852 6.049,15.183c-0.342,2.084 -0.557,4.401 0.832,6.028c1.453,1.704 3.883,2.012 5.94,2.307c0,0 2.231,0.831 2.143,2.599c-0.069,1.382 -1.396,2.513 -2.851,2.35c-1.176,-0.168 -1.24,-0.19 -1.761,-0.293c-4.736,-0.939 -9.304,-4.535 -9.517,-9.97c-0.165,-4.213 1.963,-8.193 0.067,-11.331c-0.467,-0.775 -1.146,-1.403 -1.932,-1.847c-0.996,-0.562 -1.348,-0.503 -1.747,-0.749c-1.763,-1.089 -1.478,-4.538 1.312,-4.627c0.051,0.002 0.102,0.003 0.154,0.005Z" style="fill-rule:nonzero;"/>
  <path d="M393.85,81.189c0.946,0.087 0.947,0.207 1.312,0.346c5.429,2.067 7.224,8.766 6.081,14.996c-0.369,2.121 -0.614,4.495 0.754,6.161c1.434,1.746 3.898,2.061 5.986,2.36c0,0 3.92,2.329 1.176,4.452c-0.705,0.545 -0.117,0.904 -3.646,0.204c-4.735,-0.939 -9.304,-4.534 -9.516,-9.969c-0.165,-4.214 1.963,-8.193 0.067,-11.332c-0.468,-0.774 -1.147,-1.403 -1.932,-1.846c-0.999,-0.564 -1.35,-0.504 -1.747,-0.749c-1.786,-1.104 -1.423,-4.54 1.311,-4.627c0.052,0.001 0.103,0.003 0.154,0.004Z" style="fill-rule:nonzero;"/>
  <path d="M424.516,226.523c0.945,0.086 0.947,0.206 1.312,0.345c5.43,2.067 7.224,8.766 6.082,14.996c-0.369,2.121 -0.615,4.495 0.754,6.161c1.434,1.746 3.898,2.062 5.986,2.361c0,0 1.395,0.329 1.904,1.403c0.766,1.615 -0.489,3.784 -2.613,3.546c-1.176,-0.168 -1.24,-0.19 -1.761,-0.293c-4.735,-0.939 -9.304,-4.535 -9.517,-9.97c-0.164,-4.214 1.963,-8.193 0.068,-11.332c-0.468,-0.774 -1.147,-1.402 -1.932,-1.846c-0.999,-0.563 -1.349,-0.503 -1.746,-0.749c-1.787,-1.102 -1.425,-4.539 1.309,-4.627c0.051,0.002 0.103,0.003 0.154,0.005Z" style="fill-rule:nonzero;"/>
  <path d="M410.586,336.523c0.945,0.086 0.947,0.206 1.312,0.345c5.453,2.076 7.151,8.85 6.049,15.183c-0.342,2.084 -0.557,4.401 0.832,6.028c1.454,1.703 3.884,2.012 5.941,2.307c0,0 2.776,1.241 1.987,3.35c-0.396,1.059 -1.528,1.73 -2.696,1.599c-1.175,-0.168 -1.24,-0.19 -1.761,-0.293c-4.735,-0.939 -9.304,-4.535 -9.516,-9.97c-0.165,-4.213 1.963,-8.194 0.067,-11.332c-0.468,-0.774 -1.147,-1.402 -1.932,-1.846c-0.999,-0.563 -1.349,-0.503 -1.746,-0.748c-1.813,-1.119 -1.27,-4.545 1.309,-4.628c0.051,0.002 0.103,0.003 0.154,0.005Z" style="fill-rule:nonzero;"/>
  <path d="M89.92,33.505c0.946,0.086 0.948,0.206 1.312,0.345c5.452,2.076 7.15,8.851 6.049,15.183c-0.343,2.084 -0.558,4.4 0.831,6.028c1.454,1.703 3.884,2.012 5.941,2.307c0,0 1.395,0.329 1.905,1.403c0.766,1.615 -0.489,3.784 -2.613,3.546c-1.176,-0.168 -1.241,-0.19 -1.761,-0.293c-4.736,-0.94 -9.304,-4.535 -9.517,-9.97c-0.165,-4.214 1.963,-8.193 0.067,-11.332c-0.458,-0.758 -1.118,-1.376 -1.883,-1.818c-1.008,-0.582 -1.387,-0.524 -1.795,-0.777c-1.764,-1.088 -1.48,-4.537 1.31,-4.627c0.051,0.002 0.102,0.003 0.154,0.005Z" style="fill-rule:nonzero;"/>
  <path d="M75.99,440.171c0.946,0.087 0.947,0.207 1.312,0.345c5.463,2.081 7.15,8.851 6.049,15.183c-0.342,2.085 -0.558,4.401 0.831,6.029c1.454,1.703 3.884,2.012 5.941,2.306c0,0 2.231,0.831 2.143,2.6c-0.069,1.381 -1.397,2.513 -2.851,2.35c-1.176,-0.168 -1.24,-0.19 -1.761,-0.294c-4.736,-0.939 -9.304,-4.534 -9.517,-9.969c-0.165,-4.214 1.963,-8.193 0.067,-11.332c-0.458,-0.758 -1.118,-1.376 -1.883,-1.818c-1.817,-1.05 -1.469,-0.597 -1.662,-0.7c-1.834,-0.982 -1.592,-4.615 1.177,-4.704c0.051,0.001 0.102,0.003 0.154,0.004Z" style="fill-rule:nonzero;"/>
  <path d="M189.323,408.171c0.946,0.087 0.947,0.206 1.313,0.346c5.461,2.08 7.149,8.851 6.048,15.182c-0.342,2.085 -0.557,4.401 0.832,6.029c1.453,1.703 3.883,2.012 5.941,2.306c0,0 3.919,2.329 1.175,4.452c-0.704,0.545 -0.117,0.904 -3.645,0.204c-4.735,-0.939 -9.304,-4.534 -9.517,-9.969c-0.166,-4.247 1.974,-8.291 0.025,-11.401c-0.885,-1.413 -3.223,-2.321 -3.223,-2.321c-1.659,-0.7 -1.513,-1.297 -1.589,-2.099c-0.133,-1.424 1.086,-2.775 2.64,-2.729Z" style="fill-rule:nonzero;"/>
  <path d="M269.92,348.444c0.946,0.086 0.947,0.206 1.312,0.345c5.463,2.08 7.15,8.851 6.049,15.183c-0.342,2.084 -0.558,4.401 0.831,6.028c1.454,1.704 3.884,2.012 5.941,2.307c0,0 2.231,0.831 2.143,2.599c-0.069,1.382 -1.397,2.513 -2.851,2.35c-1.176,-0.168 -1.241,-0.19 -1.761,-0.293c-4.736,-0.939 -9.304,-4.535 -9.517,-9.97c-0.165,-4.213 1.963,-8.193 0.067,-11.331c-0.467,-0.775 -1.146,-1.403 -1.932,-1.846c-0.995,-0.562 -1.348,-0.503 -1.746,-0.75c-1.764,-1.088 -1.48,-4.537 1.31,-4.627c0.051,0.002 0.103,0.003 0.154,0.005Z" style="fill-rule:nonzero;"/>
  <path d="M772.387,265.095c0.945,0.086 0.946,0.206 1.312,0.345c5.405,2.058 7.224,8.767 6.081,14.997c-0.368,2.121 -0.614,4.495 0.754,6.16c1.435,1.746 3.898,2.062 5.987,2.361c0,0 1.914,0.606 2.123,2.138c0.209,1.541 -1.043,3.012 -2.832,2.812c-1.175,-0.169 -1.24,-0.191 -1.761,-0.294c-4.735,-0.939 -9.303,-4.534 -9.517,-9.969c-0.165,-4.214 1.964,-8.193 0.068,-11.332c-0.468,-0.774 -1.147,-1.403 -1.933,-1.846c-0.998,-0.564 -1.348,-0.504 -1.746,-0.749c-1.743,-1.076 -1.48,-4.538 1.31,-4.628c0.051,0.002 0.102,0.004 0.154,0.005Z" style="fill-rule:nonzero;"/>
  <path d="M635.722,267.115c0.944,0.087 0.946,0.207 1.311,0.346c5.417,2.063 7.225,8.766 6.081,14.996c-0.368,2.121 -0.615,4.494 0.754,6.161c1.433,1.746 3.898,2.061 5.986,2.36c0,0 2.776,1.241 1.987,3.351c-0.395,1.058 -1.527,1.73 -2.696,1.599c-1.175,-0.168 -1.24,-0.19 -1.761,-0.294c-4.735,-0.939 -9.304,-4.535 -9.516,-9.97c-0.167,-4.249 1.973,-8.289 0.024,-11.4c-0.884,-1.413 -3.224,-2.322 -3.224,-2.322c-2.135,-0.902 -2.138,-4.736 0.9,-4.831c0.052,0.001 0.103,0.003 0.154,0.004Z" style="fill-rule:nonzero;"/>
  <path d="M751.722,139.115c0.944,0.087 0.946,0.206 1.311,0.346c5.417,2.063 7.225,8.766 6.081,14.996c-0.368,2.121 -0.615,4.494 0.754,6.161c1.434,1.746 3.898,2.062 5.986,2.36c0,0 1.915,0.606 2.123,2.138c0.209,1.541 -1.043,3.012 -2.831,2.812c-1.177,-0.168 -1.241,-0.19 -1.762,-0.294c-4.735,-0.939 -9.304,-4.535 -9.516,-9.97c-0.167,-4.249 1.973,-8.289 0.024,-11.4c-0.885,-1.413 -3.224,-2.322 -3.224,-2.322c-2.135,-0.902 -2.138,-4.736 0.9,-4.831c0.052,0.001 0.103,0.003 0.154,0.004Z" style="fill-rule:nonzero;"/>
  <path d="M621.791,139.115c0.946,0.087 0.947,0.207 1.312,0.345c5.462,2.081 7.15,8.854 6.048,15.184c-0.346,2.11 -0.554,4.466 0.878,6.08c1.465,1.652 3.848,1.961 5.895,2.254c0,0 2.776,1.241 1.988,3.35c-0.396,1.059 -1.528,1.73 -2.696,1.6c-1.177,-0.168 -1.241,-0.19 -1.762,-0.294c-4.735,-0.939 -9.304,-4.534 -9.516,-9.97c-0.166,-4.246 1.974,-8.287 0.024,-11.4c-0.884,-1.412 -3.223,-2.321 -3.223,-2.321c-1.659,-0.7 -1.513,-1.298 -1.588,-2.099c-0.134,-1.424 1.086,-2.775 2.64,-2.729Z" style="fill-rule:nonzero;"/>
  <path d="M527.79,241.253c0.946,0.086 0.947,0.206 1.313,0.345c5.429,2.068 7.223,8.767 6.081,14.996c-0.369,2.121 -0.615,4.495 0.754,6.161c1.434,1.746 3.898,2.062 5.986,2.361c0,0 1.395,0.329 1.904,1.403c0.767,1.615 -0.489,3.784 -2.613,3.546c-1.175,-0.168 -1.24,-0.19 -1.761,-0.293c-4.735,-0.94 -9.304,-4.535 -9.516,-9.97c-0.165,-4.214 1.963,-8.193 0.067,-11.332c-0.458,-0.758 -1.118,-1.376 -1.883,-1.818c-1.008,-0.582 -1.387,-0.524 -1.795,-0.776c-1.744,-1.077 -1.481,-4.538 1.309,-4.628c0.052,0.002 0.103,0.003 0.154,0.005Z" style="fill-rule:nonzero;"/>
  <path d="M498.457,115.273c0.945,0.086 0.947,0.206 1.312,0.345c5.453,2.077 7.15,8.853 6.049,15.183c-0.342,2.084 -0.557,4.401 0.832,6.028c1.454,1.704 3.883,2.012 5.941,2.307c0,0 1.914,0.606 2.123,2.138c0.209,1.541 -1.043,3.012 -2.832,2.812c-1.176,-0.169 -1.24,-0.191 -1.761,-0.294c-4.735,-0.939 -9.304,-4.535 -9.517,-9.97c-0.165,-4.213 1.963,-8.193 0.068,-11.331c-0.468,-0.775 -1.147,-1.403 -1.933,-1.846c-0.997,-0.564 -1.348,-0.504 -1.746,-0.749c-1.763,-1.089 -1.48,-4.538 1.31,-4.628c0.051,0.002 0.103,0.003 0.154,0.005Z" style="fill-rule:nonzero;"/>
  <path d="M649.65,41.347c0.945,0.086 0.947,0.206 1.312,0.345c5.41,2.06 7.224,8.767 6.082,14.997c-0.369,2.121 -0.614,4.495 0.754,6.16c1.434,1.746 3.898,2.062 5.986,2.361c0,0 2.231,0.831 2.142,2.599c-0.068,1.382 -1.396,2.513 -2.851,2.35c-1.175,-0.168 -1.24,-0.19 -1.761,-0.293c-4.735,-0.939 -9.303,-4.534 -9.517,-9.969c-0.165,-4.214 1.964,-8.194 0.068,-11.332c-0.468,-0.775 -1.147,-1.403 -1.933,-1.847c-1.793,-1.013 -1.42,-0.569 -1.612,-0.671c-1.925,-1.031 -1.37,-4.779 1.33,-4.7Z" style="fill-rule:nonzero;"/>
  <path d="M839.317,54.523c0.946,0.086 0.948,0.206 1.312,0.345c5.467,2.081 7.151,8.848 6.049,15.183c-0.343,2.086 -0.541,4.419 0.832,6.028c1.453,1.703 3.883,2.012 5.94,2.307c0,0 2.231,0.831 2.143,2.599c-0.069,1.382 -1.396,2.513 -2.851,2.35c-1.176,-0.168 -1.24,-0.19 -1.761,-0.293c-4.735,-0.94 -9.303,-4.535 -9.517,-9.97c-0.166,-4.213 1.964,-8.193 0.068,-11.332c-0.468,-0.774 -1.147,-1.402 -1.933,-1.846c-0.994,-0.562 -1.348,-0.503 -1.746,-0.749c-1.786,-1.103 -1.424,-4.539 1.31,-4.627c0.052,0.002 0.103,0.003 0.154,0.005Z" style="fill-rule:nonzero;"/>
  <path d="M931.124,18.759c0.946,0.087 0.948,0.207 1.312,0.345c5.452,2.077 7.15,8.853 6.049,15.183c-0.342,2.085 -0.556,4.404 0.831,6.028c1.455,1.704 3.884,2.013 5.941,2.307c0,0 2.776,1.241 1.988,3.35c-0.396,1.059 -1.528,1.73 -2.696,1.6c-1.176,-0.169 -1.24,-0.19 -1.761,-0.294c-4.736,-0.939 -9.304,-4.535 -9.517,-9.97c-0.166,-4.249 1.974,-8.289 0.025,-11.401c-0.886,-1.414 -3.223,-2.32 -3.223,-2.32c-2.229,-0.94 -1.799,-4.912 1.051,-4.828Z" style="fill-rule:nonzero;"/>
  <path d="M880.983,210.523c0.946,0.086 0.947,0.205 1.313,0.345c5.403,2.058 7.223,8.771 6.081,14.996c-0.369,2.121 -0.614,4.496 0.754,6.161c1.435,1.746 3.898,2.062 5.986,2.361c0,0 1.915,0.605 2.123,2.138c0.209,1.54 -1.043,3.011 -2.831,2.811c-1.176,-0.168 -1.241,-0.19 -1.762,-0.293c-4.735,-0.94 -9.304,-4.535 -9.516,-9.97c-0.164,-4.184 1.935,-8.126 0.109,-11.261c-0.469,-0.806 -1.164,-1.459 -1.974,-1.917c-1.799,-1.015 -1.421,-0.569 -1.613,-0.672c-1.834,-0.981 -1.593,-4.615 1.176,-4.704c0.052,0.002 0.103,0.003 0.154,0.005Z" style="fill-rule:nonzero;"/>
  <path d="M867.053,320.523c0.946,0.086 0.948,0.206 1.313,0.345c5.458,2.079 7.149,8.857 6.049,15.182c-0.342,2.085 -0.556,4.404 0.831,6.029c1.454,1.703 3.884,2.012 5.941,2.307c0,0 2.448,0.959 2.109,2.904c-0.224,1.284 -1.307,2.214 -2.817,2.045c-1.175,-0.168 -1.241,-0.19 -1.761,-0.293c-4.736,-0.939 -9.305,-4.536 -9.517,-9.97c-0.166,-4.246 1.973,-8.29 0.025,-11.401c-0.801,-1.278 -2.925,-2.227 -2.929,-2.228c-0.526,-0.149 -0.517,-0.18 -0.707,-0.298c-1.764,-1.088 -1.481,-4.537 1.309,-4.627c0.052,0.002 0.103,0.003 0.154,0.005Z" style="fill-rule:nonzero;"/>
  <path d="M546.388,17.505c0.944,0.086 0.946,0.206 1.311,0.345c5.453,2.076 7.149,8.85 6.049,15.183c-0.342,2.084 -0.557,4.401 0.831,6.028c1.455,1.703 3.884,2.012 5.941,2.307c0,0 1.915,0.605 2.124,2.138c0.209,1.54 -1.043,3.011 -2.832,2.811c-1.176,-0.168 -1.24,-0.19 -1.761,-0.293c-4.735,-0.94 -9.304,-4.535 -9.517,-9.97c-0.166,-4.247 1.974,-8.29 0.025,-11.401c-0.885,-1.412 -3.224,-2.321 -3.224,-2.321c-1.659,-0.7 -1.513,-1.298 -1.588,-2.099c-0.133,-1.424 1.086,-2.775 2.641,-2.728Z" style="fill-rule:nonzero;"/>
  <path d="M532.457,379.171c0.945,0.086 0.946,0.206 1.312,0.345c5.463,2.081 7.151,8.852 6.049,15.183c-0.342,2.085 -0.558,4.4 0.832,6.029c1.454,1.703 3.883,2.012 5.941,2.306c0,0 2.448,0.96 2.108,2.905c-0.224,1.284 -1.307,2.214 -2.817,2.045c-1.176,-0.169 -1.24,-0.19 -1.761,-0.294c-4.735,-0.939 -9.304,-4.534 -9.517,-9.969c-0.165,-4.214 1.963,-8.193 0.068,-11.332c-0.458,-0.758 -1.119,-1.376 -1.884,-1.818c-1.008,-0.583 -1.386,-0.525 -1.795,-0.777c-1.763,-1.088 -1.48,-4.537 1.31,-4.627c0.051,0.001 0.102,0.003 0.154,0.004Z" style="fill-rule:nonzero;"/>
  <path d="M645.79,392.171c0.946,0.086 0.947,0.206 1.313,0.345c5.403,2.058 7.225,8.768 6.081,14.997c-0.368,2.121 -0.614,4.495 0.754,6.161c1.434,1.745 3.898,2.061 5.986,2.36c0,0 2.231,0.831 2.143,2.599c-0.069,1.382 -1.397,2.513 -2.852,2.351c-1.176,-0.169 -1.24,-0.19 -1.761,-0.294c-4.735,-0.939 -9.304,-4.535 -9.516,-9.97c-0.164,-4.186 1.934,-8.124 0.109,-11.261c-0.469,-0.805 -1.164,-1.459 -1.974,-1.916c-1.799,-1.016 -1.421,-0.57 -1.613,-0.672c-1.925,-1.031 -1.37,-4.779 1.33,-4.7Z" style="fill-rule:nonzero;"/>
  <path d="M726.387,332.444c0.945,0.086 0.947,0.206 1.313,0.345c5.402,2.058 7.222,8.771 6.08,14.996c-0.368,2.121 -0.614,4.495 0.754,6.161c1.441,1.753 3.909,2.064 5.986,2.361c0,0 1.395,0.329 1.905,1.403c0.766,1.615 -0.489,3.784 -2.613,3.546c-1.174,-0.168 -1.24,-0.19 -1.761,-0.293c-4.735,-0.939 -9.304,-4.535 -9.517,-9.97c-0.164,-4.187 1.935,-8.124 0.109,-11.261c-0.469,-0.806 -1.164,-1.46 -1.974,-1.917c-0.998,-0.563 -1.348,-0.503 -1.746,-0.748c-1.763,-1.089 -1.48,-4.538 1.31,-4.628c0.051,0.002 0.102,0.003 0.154,0.005Z" style="fill-rule:nonzero;"/>
  <path d="M430.557,482.523c0.945,0.086 0.946,0.206 1.312,0.345c5.429,2.067 7.224,8.766 6.081,14.996c-0.369,2.121 -0.615,4.494 0.754,6.161c1.44,1.753 3.909,2.063 5.986,2.361c0,0 1.712,0.508 2.063,1.836c0.417,1.578 -1.019,3.309 -2.771,3.113c-1.174,-0.168 -1.24,-0.19 -1.761,-0.293c-4.736,-0.939 -9.304,-4.535 -9.517,-9.97c-0.165,-4.214 1.963,-8.194 0.067,-11.332c-0.467,-0.774 -1.146,-1.402 -1.932,-1.846c-1.798,-1.015 -1.421,-0.569 -1.612,-0.672c-1.897,-1.015 -1.521,-4.783 1.33,-4.699Z" style="fill-rule:nonzero;"/>
  <path d="M384.557,580.523c0.945,0.086 0.946,0.206 1.312,0.345c5.453,2.076 7.15,8.853 6.049,15.183c-0.342,2.084 -0.558,4.401 0.831,6.028c1.455,1.703 3.884,2.012 5.941,2.307c0,0 1.395,0.329 1.905,1.403c0.766,1.615 -0.489,3.784 -2.613,3.546c-1.176,-0.168 -1.24,-0.19 -1.761,-0.293c-4.736,-0.939 -9.304,-4.535 -9.517,-9.97c-0.165,-4.213 1.963,-8.194 0.067,-11.332c-0.467,-0.774 -1.146,-1.402 -1.932,-1.846c-1.8,-1.016 -1.421,-0.569 -1.612,-0.672c-1.897,-1.015 -1.521,-4.783 1.33,-4.699Z" style="fill-rule:nonzero;"/>
  <path d="M867.053,537.523c0.946,0.086 0.948,0.206 1.313,0.345c5.458,2.079 7.149,8.857 6.049,15.183c-0.342,2.084 -0.556,4.403 0.831,6.028c1.455,1.703 3.884,2.012 5.941,2.307c0,0 1.915,0.605 2.123,2.138c0.209,1.54 -1.043,3.011 -2.831,2.811c-1.176,-0.168 -1.24,-0.19 -1.761,-0.293c-4.736,-0.939 -9.305,-4.536 -9.517,-9.97c-0.166,-4.246 1.973,-8.29 0.025,-11.401c-0.801,-1.279 -2.925,-2.226 -2.929,-2.228c-0.526,-0.149 -0.517,-0.18 -0.707,-0.298c-1.786,-1.102 -1.425,-4.539 1.309,-4.627c0.052,0.002 0.103,0.003 0.154,0.005Z" style="fill-rule:nonzero;"/>
  <path d="M798.053,580.523c0.946,0.086 0.947,0.205 1.313,0.345c5.413,2.061 7.224,8.766 6.081,14.996c-0.369,2.121 -0.614,4.496 0.754,6.161c1.434,1.746 3.898,2.062 5.986,2.361c0,0 1.395,0.329 1.905,1.403c0.766,1.615 -0.489,3.784 -2.613,3.546c-1.176,-0.168 -1.241,-0.19 -1.761,-0.293c-4.736,-0.939 -9.303,-4.535 -9.517,-9.97c-0.166,-4.214 1.963,-8.193 0.067,-11.332c-0.467,-0.774 -1.146,-1.402 -1.931,-1.845c-1.003,-0.566 -1.351,-0.505 -1.747,-0.75c-1.813,-1.118 -1.27,-4.544 1.309,-4.627c0.052,0.002 0.103,0.003 0.154,0.005Z" style="fill-rule:nonzero;"/>
  <path d="M945.053,119.523c0.946,0.086 0.947,0.206 1.313,0.345c5.405,2.058 7.224,8.766 6.081,14.996c-0.369,2.121 -0.614,4.496 0.754,6.161c1.434,1.746 3.898,2.062 5.986,2.361c0,0 1.395,0.329 1.905,1.403c0.766,1.615 -0.489,3.784 -2.613,3.546c-1.176,-0.168 -1.241,-0.19 -1.761,-0.293c-4.736,-0.939 -9.303,-4.535 -9.517,-9.97c-0.166,-4.214 1.963,-8.193 0.067,-11.332c-0.467,-0.774 -1.146,-1.402 -1.932,-1.846c-0.998,-0.563 -1.348,-0.503 -1.746,-0.748c-1.744,-1.077 -1.48,-4.538 1.31,-4.628c0.051,0.002 0.102,0.003 0.153,0.005Z" style="fill-rule:nonzero;"/>
  <path d="M95.964,586.171c0.942,0.088 0.943,0.206 1.308,0.345c5.463,2.081 7.15,8.853 6.049,15.183c-0.342,2.085 -0.558,4.4 0.832,6.029c1.454,1.703 3.883,2.012 5.94,2.306c0,0 1.915,0.606 2.124,2.138c0.209,1.541 -1.043,3.012 -2.832,2.812c-1.176,-0.168 -1.24,-0.19 -1.761,-0.294c-4.735,-0.939 -9.304,-4.534 -9.517,-9.969c-0.165,-4.214 1.964,-8.194 0.068,-11.332c-0.468,-0.774 -1.147,-1.403 -1.933,-1.846c-4.709,-2.66 -3.297,-3.514 -2.227,-4.617c0.597,-0.615 1.719,-0.762 1.949,-0.755Z" style="fill-rule:nonzero;"/>
  <path d="M209.294,554.171c0.946,0.087 0.947,0.207 1.312,0.345c5.463,2.081 7.15,8.851 6.049,15.183c-0.343,2.085 -0.558,4.401 0.831,6.028c1.454,1.704 3.884,2.013 5.941,2.307c0,0 1.395,0.33 1.904,1.403c0.767,1.616 -0.489,3.784 -2.612,3.547c-1.176,-0.168 -1.241,-0.19 -1.762,-0.294c-4.735,-0.939 -9.303,-4.534 -9.516,-9.969c-0.165,-4.214 1.963,-8.193 0.067,-11.332c-0.468,-0.774 -1.147,-1.403 -1.932,-1.846c-0.995,-0.562 -1.348,-0.503 -1.747,-0.749c-1.763,-1.089 -1.479,-4.538 1.311,-4.627c0.051,0.001 0.102,0.003 0.154,0.004Z" style="fill-rule:nonzero;"/>
  <path d="M289.89,494.444c0.946,0.086 0.947,0.206 1.312,0.345c5.463,2.08 7.15,8.85 6.049,15.183c-0.342,2.084 -0.558,4.4 0.832,6.028c1.454,1.704 3.883,2.013 5.94,2.307c0,0 1.395,0.329 1.905,1.403c0.766,1.615 -0.489,3.784 -2.613,3.546c-1.174,-0.168 -1.24,-0.19 -1.761,-0.293c-4.735,-0.939 -9.304,-4.535 -9.517,-9.97c-0.165,-4.213 1.964,-8.193 0.068,-11.332c-0.468,-0.774 -1.147,-1.402 -1.933,-1.846c-0.994,-0.562 -1.347,-0.502 -1.746,-0.749c-1.786,-1.102 -1.424,-4.539 1.31,-4.627c0.052,0.002 0.103,0.003 0.154,0.005Z" style="fill-rule:nonzero;"/>
  <path d="M853.123,436.523c0.946,0.086 0.947,0.205 1.313,0.345c5.463,2.081 7.151,8.848 6.049,15.183c-0.343,2.084 -0.557,4.401 0.831,6.028c1.46,1.71 3.894,2.013 5.941,2.307c0,0 1.219,0.289 1.756,1.133c0.993,1.563 -0.323,4.056 -2.464,3.816c-1.176,-0.168 -1.241,-0.19 -1.761,-0.293c-4.693,-0.932 -9.226,-4.456 -9.508,-9.773c-0.231,-4.349 2.023,-8.506 -0.028,-11.666c-0.452,-0.696 -1.079,-1.266 -1.797,-1.681c-1.008,-0.582 -1.386,-0.524 -1.795,-0.777c-1.744,-1.076 -1.48,-4.537 1.31,-4.627c0.051,0.002 0.102,0.003 0.153,0.005Z" style="fill-rule:nonzero;"/>
  <path d="M552.427,570.171c0.946,0.086 0.947,0.206 1.313,0.345c5.452,2.077 7.15,8.851 6.049,15.183c-0.342,2.085 -0.558,4.402 0.831,6.028c1.454,1.704 3.884,2.013 5.941,2.307c0,0 3.92,2.329 1.176,4.452c-0.705,0.545 -0.118,0.904 -3.645,0.204c-4.736,-0.939 -9.305,-4.534 -9.517,-9.97c-0.165,-4.213 1.963,-8.193 0.067,-11.331c-0.467,-0.774 -1.146,-1.403 -1.932,-1.846c-0.998,-0.564 -1.349,-0.504 -1.746,-0.749c-1.786,-1.102 -1.425,-4.539 1.309,-4.627c0.052,0.001 0.103,0.003 0.154,0.004Z" style="fill-rule:nonzero;"/>
  <path d="M665.761,538.171c0.945,0.086 0.946,0.206 1.312,0.345c5.428,2.068 7.224,8.766 6.081,14.997c-0.369,2.12 -0.614,4.494 0.755,6.161c1.433,1.746 3.897,2.061 5.985,2.36c0,0 1.915,0.606 2.123,2.138c0.21,1.541 -1.042,3.012 -2.831,2.812c-1.176,-0.169 -1.24,-0.19 -1.761,-0.294c-4.736,-0.939 -9.304,-4.534 -9.517,-9.97c-0.166,-4.246 1.975,-8.288 0.025,-11.4c-0.801,-1.279 -2.925,-2.227 -2.929,-2.228c-0.526,-0.149 -0.517,-0.181 -0.707,-0.298c-1.763,-1.088 -1.48,-4.537 1.31,-4.627c0.051,0.001 0.102,0.003 0.154,0.004Z" style="fill-rule:nonzero;"/>
  <path d="M746.357,478.444c0.946,0.086 0.948,0.206 1.313,0.345c5.428,2.067 7.224,8.767 6.081,14.996c-0.369,2.121 -0.614,4.495 0.754,6.161c1.434,1.746 3.898,2.062 5.986,2.361c0,0 1.915,0.606 2.123,2.138c0.209,1.541 -1.043,3.011 -2.831,2.811c-1.176,-0.168 -1.241,-0.19 -1.762,-0.293c-4.735,-0.94 -9.304,-4.535 -9.516,-9.97c-0.166,-4.246 1.974,-8.288 0.024,-11.401c-0.8,-1.278 -2.925,-2.226 -2.929,-2.227c-1.022,-0.29 -0.983,-0.44 -1.289,-0.797c-1.207,-1.404 -0.262,-4.059 1.892,-4.129c0.052,0.002 0.103,0.003 0.154,0.005Z" style="fill-rule:nonzero;"/>
  <path d="M312.054,30.68c0.946,0.087 0.948,0.207 1.312,0.346c5.429,2.067 7.223,8.768 6.081,14.996c-0.369,2.121 -0.614,4.495 0.754,6.161c1.434,1.746 3.898,2.061 5.986,2.36c0,0 1.712,0.509 2.063,1.837c0.417,1.578 -1.019,3.309 -2.771,3.113c-1.176,-0.168 -1.241,-0.19 -1.761,-0.294c-4.736,-0.939 -9.305,-4.534 -9.517,-9.969c-0.165,-4.214 1.963,-8.194 0.067,-11.332c-0.468,-0.774 -1.146,-1.403 -1.932,-1.846c-0.995,-0.562 -1.348,-0.503 -1.747,-0.749c-1.743,-1.077 -1.479,-4.538 1.311,-4.627c0.052,0.001 0.103,0.003 0.154,0.004Z" style="fill-rule:nonzero;"/>
</svg>
