<?xml version="1.0" encoding="UTF-8" standalone="no"?><!DOCTYPE svg PUBLIC "-//W3C//DTD SVG 1.1//EN" "http://www.w3.org/Graphics/SVG/1.1/DTD/svg11.dtd"><svg width="100%" height="100%" viewBox="0 0 77 74" version="1.1" xmlns="http://www.w3.org/2000/svg" xmlns:xlink="http://www.w3.org/1999/xlink" xml:space="preserve" xmlns:serif="http://www.serif.com/" style="fill-rule:evenodd;clip-rule:evenodd;stroke-linejoin:round;stroke-miterlimit:1.41421;"><g><ellipse cx="38.158" cy="36.575" rx="38.158" ry="36.575" style="fill:#ecf6ff;"/><circle cx="26.282" cy="18.715" r="4.375" style="fill:#3956e8;"/><circle cx="26.282" cy="34.695" r="4.375" style="fill:#3956e8;"/><circle cx="26.282" cy="50.675" r="4.375" style="fill:#3956e8;"/><path d="M27.081,15.138c0,-0.441 -0.358,-0.799 -0.799,-0.799c-0.441,0 -0.799,0.358 -0.799,0.799l0,33.093c0,0.441 0.358,0.799 0.799,0.799c0.441,0 0.799,-0.358 0.799,-0.799l0,-33.093Z" style="fill:#3956e8;"/><path d="M52.324,18.725c0,-0.516 -0.419,-0.935 -0.935,-0.935l-18.195,0c-0.516,0 -0.935,0.419 -0.935,0.935c0,0.516 0.419,0.935 0.935,0.935l18.195,0c0.516,0 0.935,-0.419 0.935,-0.935Z" style="fill:#3956e8;"/><path d="M52.324,34.705c0,-0.516 -0.419,-0.935 -0.935,-0.935l-18.195,0c-0.516,0 -0.935,0.419 -0.935,0.935c0,0.516 0.419,0.935 0.935,0.935l18.195,0c0.516,0 0.935,-0.419 0.935,-0.935Z" style="fill:#3956e8;"/><path d="M52.324,50.685c0,-0.516 -0.419,-0.935 -0.935,-0.935l-18.195,0c-0.516,0 -0.935,0.419 -0.935,0.935c0,0.516 0.419,0.935 0.935,0.935l18.195,0c0.516,0 0.935,-0.419 0.935,-0.935Z" style="fill:#3956e8;"/></g></svg>